{"glyphs":{":":{"x_min":0,"x_max":273,"ha":273,"o":"m 136 447 q 165 445 182 426 q 199 407 198 379 q 196 353 178 336 q 159 319 131 321 q 126 322 120 323 q 114 324 108 327 q 95 334 86 347 q 76 360 74 377 q 74 382 76 386 q 78 392 78 400 q 79 407 81 413 q 84 417 89 419 q 90 420 92 422 q 93 424 93 425 q 98 436 111 442 q 124 447 136 447 z m 99 424 l 97 424 q 96 424 96 423 q 95 422 97 422 q 99 423 99 424 z m 141 383 q 139 382 138 384 q 137 385 137 383 q 140 380 141 383 z m 133 372 q 134 374 134 378 q 133 381 132 383 q 129 382 130 378 q 130 374 133 372 z m 97 370 q 98 372 99 372 q 100 373 100 375 q 99 375 98 376 q 98 376 96 376 q 95 375 95 372 q 95 370 97 370 z m 149 328 q 151 326 151 328 q 151 330 149 328 z m 86 7 q 87 10 89 12 q 91 13 92 15 q 87 19 86 16 q 86 13 84 11 q 77 23 75 31 q 73 39 74 53 q 78 79 92 90 q 107 102 115 104 q 139 110 154 106 q 168 101 183 86 q 200 66 198 48 q 197 31 193 19 q 187 5 173 -6 q 159 -17 142 -18 q 126 -19 112 -14 q 99 -10 86 7 z m 93 29 q 88 30 90 28 q 91 27 93 29 z m 183 13 q 184 11 184 14 q 184 16 183 13 z m 99 -4 q 104 -5 104 0 q 99 0 99 -4 z m 116 -7 l 113 -7 q 112 -9 114 -9 q 117 -9 116 -7 z m 153 -4 q 153 0 149 -1 q 149 -3 151 -2 q 153 -2 153 -4 z m 126 -9 q 124 -10 123 -9 q 122 -8 120 -8 q 119 -12 122 -11 q 124 -10 126 -9 z m 153 -7 q 157 -9 156 -9 q 154 -6 156 -4 q 159 -2 156 -2 q 155 -4 154 -4 q 154 -5 153 -7 z m 164 31 q 166 29 165 29 q 165 30 166 30 q 167 31 167 32 q 163 32 163 31 z m 143 -6 q 145 -9 146 -10 q 147 -8 150 -8 q 152 -9 152 -7 q 146 -5 143 -6 z m 139 -14 q 139 -13 140 -13 q 141 -13 141 -12 q 140 -12 140 -12 q 140 -11 138 -12 q 138 -14 139 -14 z"},"$":{"x_min":0,"x_max":637,"ha":637,"o":"m 77 117 q 76 115 76 115 q 77 115 77 113 q 79 114 79 116 q 79 117 77 117 z m 142 263 q 152 262 158 258 q 165 255 170 250 l 171 249 q 171 248 172 248 q 173 246 173 246 q 173 246 173 244 q 173 243 174 242 q 174 241 175 241 q 179 239 179 239 q 183 234 186 224 l 186 219 q 185 217 184 214 q 183 211 185 210 q 187 209 187 209 q 187 200 184 194 q 181 187 179 185 q 170 173 153 169 q 151 168 150 170 q 148 171 147 168 q 144 167 141 167 q 138 167 135 166 q 134 164 136 158 q 137 152 139 146 q 133 151 129 150 q 125 148 118 146 q 121 136 111 130 q 109 131 109 132 q 109 134 107 134 q 104 129 110 129 q 116 129 118 127 q 112 123 108 122 q 111 120 112 118 q 114 115 117 114 q 119 116 120 118 q 122 121 124 117 q 127 122 124 127 q 121 132 123 140 q 125 142 131 142 q 137 142 140 142 q 146 128 149 124 q 152 121 156 113 q 159 110 159 110 q 162 108 165 105 q 168 102 170 100 q 170 100 173 97 q 178 95 182 92 q 185 90 189 87 q 189 85 192 85 q 195 85 200 82 q 202 80 200 80 q 199 79 201 77 q 202 76 204 77 q 205 78 208 77 q 212 77 216 76 q 221 74 226 72 q 240 68 256 66 q 272 64 281 63 q 285 63 290 62 q 294 62 297 63 l 297 68 q 297 69 298 68 q 300 68 300 70 q 300 73 299 75 q 298 77 297 79 l 297 129 q 297 137 299 137 q 301 137 297 142 q 297 144 298 144 q 299 145 299 146 q 297 149 297 155 q 297 161 297 166 l 297 266 q 300 267 302 265 q 304 263 306 265 q 305 267 304 267 q 304 267 303 269 q 303 270 304 271 q 304 272 303 274 q 301 274 301 272 q 301 269 297 270 l 297 292 q 299 294 300 293 q 302 292 302 295 q 297 296 297 304 q 297 312 297 315 q 269 323 236 332 q 202 342 175 353 q 156 361 144 370 q 133 378 125 388 q 112 402 104 420 q 97 438 94 464 q 91 486 96 514 q 100 541 112 564 q 125 590 146 611 q 148 612 148 610 q 148 608 150 609 q 148 611 151 616 q 168 631 180 638 q 191 644 207 650 q 212 651 215 652 q 218 654 223 653 q 223 654 222 654 q 222 654 222 656 q 232 659 251 664 q 270 668 280 670 q 286 672 290 672 q 294 672 297 673 l 297 688 q 297 696 297 707 q 297 718 297 729 q 297 740 298 749 q 298 758 298 762 q 299 767 304 775 q 309 783 323 783 q 336 784 344 778 q 353 773 353 757 q 353 744 353 730 q 353 715 354 703 q 354 691 354 682 q 354 674 354 673 q 359 673 368 672 q 377 670 386 668 q 396 666 404 664 q 413 662 419 660 q 427 658 453 648 q 479 638 503 618 q 522 601 535 580 q 548 560 550 528 q 550 504 542 492 q 535 481 530 476 q 522 470 512 466 q 502 463 491 464 q 480 464 470 469 q 459 474 452 485 q 445 496 446 508 q 446 521 453 529 q 461 531 461 535 l 462 536 q 464 536 466 535 q 467 534 467 536 q 466 538 466 539 q 467 540 468 542 q 462 561 451 572 q 440 584 427 591 q 414 598 400 601 q 385 604 370 606 q 362 607 359 607 q 356 607 353 607 l 353 597 l 353 419 q 352 418 350 418 q 347 419 348 417 q 350 416 351 417 q 352 418 353 417 q 353 413 354 410 q 354 406 353 402 q 351 398 350 396 q 349 394 347 389 q 349 388 350 388 q 352 389 353 387 q 353 382 356 382 q 359 381 361 381 q 365 379 368 378 q 372 378 374 374 q 375 375 376 376 q 376 377 378 377 q 387 374 397 372 q 407 370 418 366 q 438 361 458 355 q 478 349 496 338 q 516 325 535 304 q 554 282 564 256 q 568 247 570 233 q 573 219 574 207 q 574 205 573 204 q 572 203 571 201 q 573 195 573 184 q 573 174 571 163 q 565 131 549 104 q 533 78 516 62 q 493 42 473 32 q 453 23 424 13 q 409 8 390 4 q 370 -1 354 -4 q 353 -24 353 -51 q 353 -78 353 -92 q 353 -106 343 -111 q 333 -116 322 -115 q 309 -115 304 -108 q 298 -102 297 -92 l 297 -4 q 293 -4 286 -4 q 279 -3 275 -2 q 254 1 232 4 q 211 8 192 15 q 171 23 152 33 q 132 43 116 57 q 108 65 98 76 q 88 88 81 100 q 83 101 86 100 q 89 99 91 101 q 91 102 92 102 q 92 102 92 104 q 90 105 89 103 q 88 101 86 103 q 84 108 84 110 q 85 111 84 115 q 86 117 88 116 q 89 115 89 118 q 88 121 80 120 q 73 119 74 115 q 67 129 64 144 q 61 158 61 172 q 61 218 87 245 q 100 258 116 262 q 131 265 142 263 z m 316 723 q 315 725 314 724 q 313 722 312 722 q 314 720 314 720 q 315 720 314 722 q 314 723 316 723 z m 347 694 q 344 694 345 692 l 347 692 z m 340 692 q 338 694 338 692 q 338 690 340 692 z m 342 680 l 339 680 q 340 677 342 679 z m 348 666 q 346 667 346 664 q 346 662 348 663 z m 211 420 q 215 414 219 414 q 222 414 220 416 q 219 418 221 419 q 226 417 234 414 q 243 410 254 407 q 266 402 278 399 q 290 396 297 394 l 297 415 q 299 420 302 420 q 301 423 300 424 q 300 426 302 431 q 300 431 300 429 q 299 427 297 427 q 297 440 307 439 q 306 441 302 441 q 297 441 297 444 l 297 549 q 299 554 302 553 q 300 556 302 558 q 303 559 303 562 q 298 563 298 575 q 297 587 297 593 l 297 607 q 278 607 263 603 q 248 599 239 599 q 238 599 238 598 q 238 597 236 595 q 236 594 235 594 q 227 589 218 584 q 208 578 198 569 q 184 554 176 533 q 167 512 171 482 q 173 469 176 462 q 179 455 186 445 q 184 443 182 445 q 181 447 179 446 q 183 444 186 442 q 189 440 192 438 q 195 436 199 430 q 199 427 203 427 q 208 425 211 424 q 214 424 217 419 q 215 417 214 420 q 214 422 211 420 z m 194 590 q 192 589 192 588 q 191 586 188 587 q 189 585 192 584 q 195 584 196 586 q 197 588 196 588 q 194 588 194 590 z m 482 562 q 479 564 479 562 q 479 559 482 562 z m 480 556 q 480 558 478 557 q 476 556 475 557 q 475 555 477 555 q 479 555 480 556 z m 483 543 q 482 546 482 544 q 482 541 483 543 z m 335 537 q 334 539 334 536 q 334 534 335 537 z m 476 520 q 474 519 476 516 q 477 514 479 515 q 479 517 478 518 q 476 518 476 520 z m 315 487 q 316 488 316 487 q 317 486 318 487 q 318 489 316 489 q 315 489 314 487 q 315 487 315 487 z m 120 488 q 122 488 122 486 q 121 484 123 485 q 121 486 122 488 q 122 489 120 488 z m 308 482 q 308 483 306 483 q 306 484 308 482 z m 349 445 q 346 445 347 442 q 348 440 348 438 q 350 439 350 441 q 349 443 349 445 z m 176 421 q 178 419 180 420 q 181 421 185 421 q 185 425 182 424 q 178 423 176 421 z m 140 422 q 136 420 132 419 q 127 418 125 415 q 129 418 134 418 q 138 417 140 422 z m 150 419 q 151 417 152 418 q 153 420 155 419 q 154 421 152 420 q 151 420 150 419 z m 165 416 q 164 417 162 416 q 160 414 158 416 q 158 415 160 415 q 161 415 160 413 q 159 411 158 412 q 156 412 154 412 q 152 408 152 404 q 157 403 161 407 q 163 408 163 406 q 163 403 165 404 q 169 405 166 409 q 163 413 165 416 z m 127 411 q 125 409 128 408 q 130 407 132 407 l 132 410 q 128 408 127 411 z m 227 415 q 225 416 225 414 q 225 411 227 413 z m 236 411 q 234 411 234 409 q 235 407 237 408 q 236 408 236 411 z m 315 398 q 309 397 311 390 q 315 391 314 393 q 314 395 315 398 z m 255 389 q 258 388 260 390 q 262 392 267 392 q 265 395 260 394 q 255 393 255 389 z m 272 390 q 270 390 270 390 q 269 389 267 389 q 267 386 270 386 q 272 388 272 390 z m 186 388 q 186 386 188 386 q 189 387 189 386 q 191 386 190 388 q 188 389 186 388 z m 350 386 q 348 388 348 385 q 349 384 349 384 q 350 384 350 386 z m 292 387 q 292 386 290 388 q 290 387 292 387 z m 303 380 q 305 378 304 376 q 303 373 305 371 q 306 373 311 375 q 310 377 311 378 q 312 379 312 381 q 309 382 308 382 q 306 381 303 380 z m 299 377 q 299 377 295 377 q 295 376 296 376 q 296 376 296 375 l 298 375 q 298 376 299 377 z m 291 372 q 290 375 290 372 q 290 370 291 372 z m 374 371 q 370 367 372 364 q 374 362 372 358 l 378 355 q 378 353 376 352 q 375 352 375 350 q 381 352 379 347 q 381 348 384 348 q 386 349 388 350 q 384 353 385 355 q 382 355 382 356 q 381 358 379 360 q 382 363 384 363 q 381 365 380 368 q 379 372 374 371 z m 258 370 q 256 372 256 370 q 257 368 258 370 z m 306 370 l 306 366 q 307 366 307 368 q 307 369 309 368 q 307 370 306 370 z m 265 366 q 261 366 260 365 q 260 361 262 361 l 262 363 q 261 365 264 364 q 266 363 265 366 z m 304 364 q 304 363 302 365 q 302 364 304 364 z m 390 359 q 390 360 390 360 q 389 360 389 359 q 389 359 390 359 z m 406 357 q 407 356 408 356 q 410 355 409 353 l 412 353 q 410 354 410 356 q 409 358 406 357 z m 347 357 q 345 355 342 355 q 343 353 344 350 q 345 346 349 345 q 349 350 348 352 q 347 354 347 357 z m 417 355 q 417 355 414 355 q 414 353 416 353 q 419 353 417 355 z m 391 350 q 391 351 389 351 q 389 350 391 350 z m 380 344 q 380 345 378 345 q 378 346 380 344 z m 394 337 q 396 337 396 336 q 397 335 399 336 q 402 338 398 340 q 395 341 394 337 z m 391 333 q 388 333 387 332 q 386 331 384 330 q 386 328 388 330 q 391 331 391 333 z m 310 312 q 308 312 307 310 q 306 309 303 310 q 302 308 301 306 q 300 304 301 301 q 304 304 310 312 z m 491 310 q 488 309 491 308 q 494 306 493 304 q 495 304 494 307 q 491 307 491 310 z m 510 306 q 510 308 508 308 q 505 307 507 305 q 507 306 508 306 z m 353 303 q 354 302 353 300 q 352 299 352 297 q 352 296 352 296 q 351 296 351 295 l 351 293 q 348 286 352 282 q 352 281 352 281 q 353 281 353 280 l 353 279 l 353 199 q 353 166 354 130 q 354 95 354 62 q 361 62 383 65 q 405 68 428 80 q 442 88 454 97 q 466 106 476 120 q 481 127 486 136 q 490 146 493 157 q 495 168 496 180 q 496 191 498 198 q 498 201 497 202 q 497 203 495 205 l 495 207 q 496 212 494 216 q 491 220 492 226 q 491 227 491 228 l 491 230 q 489 235 486 238 q 482 242 482 245 q 482 248 480 248 q 478 250 476 252 q 475 254 473 256 q 462 270 442 278 q 421 287 410 291 q 407 292 400 294 q 392 296 384 298 q 375 299 366 300 q 358 302 353 303 z m 491 297 q 490 295 493 295 q 496 295 495 297 q 493 297 493 298 q 493 299 491 297 z m 499 288 l 497 288 q 498 282 494 279 q 490 276 490 269 q 495 269 500 272 q 504 274 504 278 q 502 278 502 277 q 501 276 499 277 q 496 279 498 282 q 500 284 499 288 z m 549 266 l 549 264 q 551 263 553 264 q 552 266 549 266 z m 513 266 q 508 266 507 262 q 511 262 513 266 z m 516 265 q 515 263 516 262 q 518 262 519 263 q 517 265 516 265 z m 521 255 l 518 255 q 517 254 521 254 z m 538 251 q 532 251 531 245 q 533 246 534 245 q 535 244 537 244 q 538 246 538 248 q 537 249 538 251 z m 502 250 q 500 251 499 250 q 498 248 496 249 q 497 244 503 245 q 503 249 502 250 z m 556 247 q 551 247 550 246 q 551 245 554 244 q 557 244 556 247 z m 491 242 l 489 242 q 489 240 492 240 q 492 241 492 241 q 491 241 491 242 z m 495 237 q 494 237 494 236 q 493 235 491 235 q 492 233 494 234 q 496 235 495 237 z m 310 233 q 310 232 313 232 q 313 233 310 233 z m 303 233 q 302 233 302 233 q 302 231 302 232 q 302 233 303 233 z m 537 232 q 539 230 539 232 q 539 234 537 232 z m 319 231 q 318 232 318 232 q 319 231 319 231 z m 494 225 q 496 223 497 222 q 498 220 500 220 q 501 220 500 222 q 500 223 502 223 q 499 228 494 225 z m 537 221 q 536 222 536 222 q 535 221 533 222 q 535 219 537 221 z m 529 221 q 526 221 527 219 l 529 219 z m 526 214 q 524 212 526 212 q 529 213 528 211 q 527 209 525 211 q 523 213 521 211 q 523 206 527 208 q 531 209 533 211 q 533 213 530 215 q 528 217 526 214 z m 314 211 q 312 212 312 210 q 313 209 313 208 q 314 208 314 211 z m 94 210 q 92 209 92 208 q 91 208 89 208 q 88 204 87 202 q 86 201 88 197 q 90 197 90 198 q 91 199 93 199 q 91 201 92 203 q 93 205 96 205 q 96 207 95 208 q 94 208 94 210 z m 123 208 q 121 209 118 208 q 115 208 113 208 q 110 200 98 200 q 104 199 111 201 q 118 203 123 208 z m 502 207 q 504 205 504 207 q 504 209 502 207 z m 514 197 q 522 197 527 194 q 529 197 527 200 q 525 202 522 202 q 519 203 516 202 q 514 201 514 197 z m 501 201 q 502 199 502 198 q 502 196 505 196 q 505 201 501 201 z m 110 197 q 108 195 105 193 q 102 191 101 188 q 103 188 103 186 q 103 185 104 184 q 109 190 110 197 z m 96 194 q 94 196 94 194 q 94 192 94 193 q 95 194 96 194 z m 93 191 q 92 193 90 192 q 88 190 88 188 q 88 186 93 186 q 93 188 92 189 q 91 190 93 191 z m 526 189 q 524 189 523 188 q 522 188 521 188 q 522 187 522 185 q 524 185 526 189 z m 120 187 q 118 187 116 186 q 114 184 112 184 q 113 183 112 181 q 112 179 114 179 q 112 184 116 184 q 119 184 120 187 z m 345 183 l 343 183 l 343 179 q 346 179 345 183 z m 102 175 q 104 175 106 171 q 108 167 103 167 q 105 165 107 165 q 109 165 107 162 q 110 162 112 159 q 109 157 107 154 q 105 152 103 149 q 105 149 106 148 q 106 146 108 147 q 110 149 114 150 q 117 150 119 152 q 119 154 118 154 q 118 154 118 156 q 121 155 120 156 q 120 156 124 154 q 125 156 126 158 q 128 159 130 161 q 129 163 124 165 q 126 158 118 158 q 111 157 113 167 q 108 168 106 173 q 104 178 107 180 q 100 183 102 175 z m 90 180 l 90 167 q 91 166 92 168 q 94 169 96 167 q 96 165 94 164 q 92 163 94 162 q 97 161 96 164 q 96 166 98 166 q 98 167 97 167 q 96 167 96 169 q 95 171 96 172 q 98 172 99 173 q 97 182 90 180 z m 522 178 q 516 178 515 173 q 520 171 522 178 z m 338 169 q 336 167 339 168 q 342 169 342 167 q 341 165 338 165 q 336 165 337 162 q 342 161 343 164 q 344 167 348 168 q 346 172 344 172 q 342 171 338 169 z m 331 170 q 327 170 327 168 q 325 166 328 167 q 330 168 329 166 q 331 166 331 170 z m 152 179 q 149 180 146 178 q 142 177 139 176 q 141 174 144 176 q 148 178 150 175 q 151 176 150 178 q 150 179 152 179 z m 74 170 q 72 171 72 169 q 72 167 72 166 q 72 166 74 170 z m 119 168 q 118 166 121 166 q 124 166 123 168 q 121 170 121 169 q 121 168 119 168 z m 302 165 q 302 162 304 162 q 306 161 308 160 q 309 163 306 164 q 304 164 302 165 z m 71 165 q 71 166 68 165 q 66 164 67 162 q 69 162 69 164 q 69 165 71 165 z m 517 162 q 515 162 515 162 q 515 161 514 161 q 514 159 516 160 q 519 160 517 162 z m 75 156 q 73 156 74 154 q 75 152 77 153 q 78 155 76 155 q 75 155 75 156 z m 546 152 q 546 153 544 153 q 543 153 543 152 q 543 150 544 152 q 544 153 546 152 z m 516 142 q 514 143 514 143 q 510 140 507 136 q 512 134 512 138 q 511 141 516 142 z m 94 143 q 92 143 92 139 q 92 135 93 134 q 95 136 94 138 q 94 140 94 143 z m 305 137 q 306 133 308 132 q 309 131 308 127 q 310 127 310 128 q 311 130 313 131 q 311 137 305 137 z m 332 137 q 332 136 333 136 q 334 136 334 135 l 334 137 q 334 137 332 137 z m 321 130 q 319 129 321 128 q 323 126 325 126 q 324 127 324 129 q 321 129 321 130 z m 74 129 q 73 129 72 128 q 72 128 71 128 q 71 126 72 127 q 74 128 74 129 z m 502 129 l 500 129 q 500 127 499 127 q 500 126 503 126 q 503 127 502 127 q 502 127 502 129 z m 80 125 q 82 124 86 123 q 91 122 93 125 q 89 124 87 126 q 85 127 80 125 z m 145 118 q 144 119 142 118 q 139 117 138 119 q 136 118 137 117 q 138 116 140 115 q 142 115 142 116 q 143 117 145 118 z m 145 117 q 144 114 146 112 q 147 113 148 114 q 149 114 149 116 q 148 117 145 117 z m 124 115 q 123 115 123 112 q 125 112 126 113 q 126 114 124 115 z m 131 113 q 129 113 129 112 q 129 112 127 112 q 127 110 128 110 q 129 111 130 109 q 132 110 131 110 q 130 111 131 113 z m 300 111 q 302 107 305 110 q 305 112 303 112 q 301 112 300 111 z m 120 110 q 119 111 119 111 q 120 110 120 110 z m 512 106 l 512 103 q 516 103 516 105 q 515 105 514 106 q 514 106 512 106 z m 157 105 q 154 104 154 102 q 155 100 154 96 q 161 94 161 100 q 161 102 160 102 q 158 103 157 105 z m 149 104 q 149 99 152 101 q 153 104 149 104 z m 96 100 q 95 99 93 99 q 94 97 94 95 q 95 93 95 90 q 97 94 97 96 q 97 98 96 98 q 96 98 96 100 z m 166 96 q 161 94 158 92 q 155 89 150 88 q 150 83 153 82 q 156 86 160 88 q 164 91 166 96 z m 482 91 q 483 93 480 92 q 478 92 480 90 q 480 91 482 91 q 483 91 482 91 z m 327 91 l 324 91 l 324 88 q 326 88 326 89 q 326 90 327 91 z m 177 90 q 173 90 171 84 l 174 84 q 174 87 177 90 z m 174 81 q 173 80 168 77 q 166 77 165 78 q 164 79 162 79 q 162 77 161 76 q 160 76 160 74 q 164 76 168 76 q 173 76 178 74 q 179 75 179 79 q 175 79 174 81 z m 183 74 q 183 66 185 66 q 187 68 188 70 q 190 72 195 71 q 191 72 188 75 q 186 78 183 74 z m 152 71 q 150 71 150 66 q 152 65 152 67 q 151 69 152 71 z m 185 63 q 184 63 184 62 q 184 61 183 61 q 183 59 184 60 q 186 61 185 63 z m 151 63 q 149 61 146 62 q 143 62 144 59 q 145 61 147 61 q 149 61 149 58 q 151 58 151 63 z m 192 57 q 192 57 189 57 q 189 55 190 55 q 191 55 192 57 z m 356 55 l 353 55 q 354 54 354 51 q 354 51 356 55 z m 391 54 q 389 54 390 52 q 390 50 392 51 l 392 53 q 391 54 391 54 z m 190 50 q 190 51 190 51 q 189 51 189 50 q 190 50 190 50 z m 241 39 q 240 39 240 38 q 240 38 239 38 q 239 37 240 37 q 240 37 240 36 l 241 36 z m 277 28 q 275 28 275 24 q 277 26 277 28 z m 265 15 q 265 16 264 16 q 263 16 263 15 q 263 15 265 15 z m 305 8 q 302 5 302 4 q 303 3 304 4 q 305 4 306 2 q 308 2 306 4 q 305 6 307 6 q 308 8 306 8 q 305 7 305 8 z m 79 112 q 77 110 79 108 q 81 107 79 104 q 81 104 81 104 q 81 103 83 103 q 85 106 82 108 q 79 109 79 112 z"},"?":{"x_min":0,"x_max":600,"ha":600,"o":"m 286 109 q 299 107 307 103 q 315 99 324 91 q 330 86 335 76 q 340 66 342 56 q 345 37 338 22 q 332 6 322 -2 q 307 -15 288 -17 q 272 -19 260 -14 q 248 -9 239 -1 q 230 7 224 18 q 218 29 218 46 l 218 50 q 221 61 226 71 q 230 81 238 87 l 238 88 q 238 89 238 89 q 239 89 239 90 q 239 93 242 95 q 244 97 247 99 q 253 103 264 106 q 276 110 286 109 z m 327 77 q 328 75 328 77 q 328 79 327 77 z m 284 65 q 282 68 276 70 q 276 67 279 67 q 282 67 284 65 z m 324 59 l 324 54 q 326 53 330 53 q 329 55 331 54 q 333 54 333 56 q 329 62 324 59 z m 505 375 q 503 373 503 372 q 503 371 502 369 q 484 354 467 345 q 450 336 435 329 q 430 327 422 323 q 413 319 403 314 q 393 310 384 306 q 374 301 368 298 q 352 290 338 278 q 324 266 318 255 q 311 241 310 232 q 310 224 308 204 q 308 198 308 191 q 308 184 306 176 q 304 167 298 164 q 293 160 291 159 q 283 156 276 156 q 271 156 266 157 q 262 158 260 163 q 259 164 258 164 q 256 164 254 164 q 253 163 252 165 q 247 169 245 170 q 243 170 242 170 q 241 171 240 172 q 238 174 235 179 q 233 183 233 185 l 233 187 q 231 191 231 198 q 231 205 231 212 q 231 220 232 226 q 232 231 232 233 q 234 253 244 274 q 254 294 272 311 q 273 312 275 312 q 276 310 279 313 q 281 316 285 320 q 289 324 292 328 l 293 328 q 294 328 294 328 q 294 329 295 329 q 296 330 297 330 q 298 330 300 331 q 300 332 301 332 q 302 332 303 333 q 308 340 316 344 q 323 348 329 354 l 330 355 q 332 357 332 357 q 345 365 358 372 q 371 379 385 387 q 412 403 430 416 q 448 428 458 440 q 469 453 474 468 q 478 482 479 503 q 478 535 468 552 q 458 569 448 580 q 441 588 418 602 q 396 617 361 623 q 354 624 342 625 q 330 626 318 626 q 305 627 294 626 q 284 626 280 625 q 278 624 276 625 q 274 626 273 625 q 266 623 258 622 q 249 622 242 617 l 241 617 q 240 617 240 617 q 238 617 236 616 q 234 616 232 616 q 232 615 231 615 l 229 615 q 211 607 198 598 q 186 590 166 572 q 146 554 142 536 q 137 518 136 505 q 137 490 142 481 q 148 472 159 462 q 161 462 161 463 q 161 477 168 488 q 174 500 191 503 q 212 506 222 500 q 231 494 236 488 q 241 480 242 464 q 243 448 237 434 q 233 425 218 411 q 204 397 181 394 q 174 392 154 392 q 134 392 115 403 q 112 404 105 408 q 98 413 91 420 q 84 428 78 438 q 71 447 68 458 q 59 490 63 521 q 68 553 80 573 q 91 593 94 598 q 114 625 148 646 q 182 667 218 678 q 252 687 287 690 q 322 692 357 689 q 399 685 436 670 q 474 655 488 642 l 490 640 q 492 640 492 640 q 493 639 495 639 l 497 638 q 528 614 547 577 q 566 540 563 488 q 561 471 559 458 q 557 444 550 431 q 543 414 534 402 q 525 389 514 379 q 509 378 505 375 z m 302 642 q 303 641 304 642 q 306 642 307 641 q 307 643 304 644 q 302 645 302 642 z m 487 624 q 487 626 485 626 q 485 623 487 624 z m 165 623 q 168 620 169 623 q 168 623 168 625 q 165 625 165 623 z m 96 586 q 96 589 93 591 q 92 589 92 587 q 93 585 96 586 z m 88 548 q 89 547 92 546 q 94 545 95 547 q 93 549 94 552 q 96 555 97 557 q 93 555 88 548 z m 81 544 q 82 543 83 543 q 85 543 85 544 q 84 545 82 546 q 81 546 81 544 z m 110 542 q 110 539 113 540 q 116 541 115 543 q 111 543 110 542 z m 174 469 q 172 469 172 468 q 174 468 174 469 z m 231 459 q 232 462 230 462 q 230 458 231 459 z m 192 455 l 192 459 l 189 459 q 189 455 192 455 z m 203 458 q 205 456 205 458 q 205 460 203 458 z m 219 456 q 221 454 224 459 q 219 457 219 456 z m 225 448 q 225 450 223 451 q 221 452 220 451 q 222 450 222 448 q 222 447 225 448 z m 487 422 q 487 423 488 423 q 488 424 488 424 q 489 424 489 425 q 487 424 484 426 q 481 429 479 426 q 483 428 487 422 z m 198 416 q 202 416 203 420 q 199 420 198 416 z m 484 411 l 484 413 q 483 413 483 414 q 483 414 482 414 q 482 411 484 411 z m 470 405 q 474 403 474 406 q 471 406 470 405 z m 479 406 q 476 406 476 405 q 479 402 479 406 z m 435 401 q 434 401 434 402 q 434 402 432 402 q 431 400 433 400 q 435 399 435 401 z m 433 391 q 431 391 432 392 q 433 392 433 394 q 430 395 430 392 q 431 389 433 391 z m 433 369 q 435 370 435 371 q 435 372 437 372 q 437 374 435 376 q 433 374 432 372 q 430 371 433 369 z m 445 359 q 445 362 443 364 q 440 359 445 359 z m 389 352 q 392 352 393 351 q 395 354 392 354 q 389 354 389 352 z m 359 335 q 363 336 361 340 q 359 343 357 340 q 359 341 359 335 z m 420 350 q 421 346 420 344 q 419 341 419 338 q 417 340 414 340 q 412 339 408 339 q 409 337 408 336 q 406 336 404 335 q 402 334 400 334 q 399 333 401 331 q 403 332 407 333 q 411 334 416 332 q 419 334 420 338 q 421 341 424 343 q 430 347 438 345 q 447 343 449 349 q 444 354 435 354 q 426 353 420 350 z m 398 337 q 400 337 402 338 q 404 340 406 340 q 405 342 403 342 q 401 341 399 343 q 399 341 398 340 q 398 339 398 337 z m 368 320 q 367 320 366 320 q 366 321 365 321 q 364 319 366 318 q 368 318 368 320 z m 394 326 q 393 326 394 327 q 394 328 392 327 q 391 326 392 325 q 394 324 394 326 z m 394 323 q 396 321 396 323 q 396 325 394 323 z m 302 301 q 304 301 308 299 q 313 297 315 300 q 313 301 308 304 q 303 306 302 301 z m 279 290 q 282 293 287 290 q 292 286 292 293 l 286 293 q 284 294 284 296 q 284 297 283 299 q 282 297 280 294 q 277 292 279 290 z m 369 303 q 368 303 372 301 q 372 303 372 304 q 373 304 373 306 q 370 304 369 303 z m 344 292 q 347 294 350 294 q 352 295 354 297 q 349 295 344 292 z m 273 286 l 273 284 q 275 283 275 285 q 275 287 274 287 q 274 286 273 286 z m 334 293 q 334 294 333 294 q 332 294 332 293 q 334 293 334 293 z m 342 290 q 341 292 342 292 q 343 291 341 293 q 337 293 337 292 q 340 294 340 291 q 341 288 342 290 z m 268 251 l 269 251 q 269 252 270 252 q 270 252 270 253 q 269 253 269 254 q 269 254 268 254 z m 271 219 q 274 220 274 219 q 275 218 276 217 q 278 219 278 222 q 276 221 274 221 q 271 221 271 219 z"},"<":{"x_min":0,"x_max":500,"ha":500,"o":"m 108 335 q 106 332 107 331 q 108 330 110 330 q 112 329 114 328 q 115 327 114 325 l 115 324 q 115 323 116 323 q 125 321 138 313 q 151 305 162 303 q 163 302 164 302 l 166 302 q 170 300 173 298 q 176 297 181 297 l 184 296 q 191 291 199 289 q 207 287 212 281 q 217 281 218 278 q 220 276 223 277 q 226 277 226 277 q 249 266 280 252 q 310 238 336 226 q 368 212 400 198 q 432 183 466 168 q 466 151 466 135 q 467 119 467 94 q 459 98 444 104 q 430 111 414 118 q 399 126 386 132 q 372 139 365 142 l 364 143 q 362 145 362 146 q 361 147 360 147 q 351 148 344 152 q 337 156 331 161 l 329 161 q 328 161 328 162 l 321 162 q 300 172 270 186 q 240 200 208 215 q 177 230 150 242 q 123 255 108 262 q 94 269 72 280 q 49 290 32 298 l 32 361 q 58 374 94 391 q 129 408 165 425 q 201 442 233 456 q 265 471 284 480 q 299 487 326 500 q 353 512 382 526 q 410 539 434 550 q 459 561 467 565 l 467 501 l 466 499 q 464 497 463 492 q 462 488 459 488 q 449 490 448 486 q 446 481 436 478 q 422 472 396 460 q 371 448 342 435 q 313 422 286 410 q 259 397 244 390 q 233 385 214 376 q 196 368 176 360 q 157 351 140 343 q 122 335 115 332 q 113 331 112 332 q 110 334 108 335 z m 386 510 q 386 511 387 512 q 388 514 386 514 q 387 512 386 512 q 384 511 386 510 z m 383 503 q 384 503 386 505 q 383 505 383 503 z m 372 494 q 374 497 376 495 l 376 498 q 374 498 372 497 q 370 496 372 494 z m 338 496 q 336 496 336 495 q 338 495 338 496 z m 377 491 l 377 490 q 373 486 377 489 q 381 492 377 491 z m 373 490 q 370 490 370 489 q 373 489 373 490 z m 355 482 q 357 485 359 485 q 361 485 363 486 l 363 489 q 361 488 357 486 q 353 485 355 482 z m 305 487 q 307 484 307 486 q 307 489 305 487 z m 368 479 q 368 481 370 481 q 370 483 368 485 q 367 484 366 482 q 366 480 368 479 z m 390 481 q 395 479 393 475 q 395 476 396 474 q 397 473 398 475 q 395 477 399 478 q 403 479 402 482 q 399 484 396 485 q 392 486 390 481 z m 327 470 q 329 477 330 478 q 329 480 328 480 q 326 481 325 483 q 323 479 326 476 q 328 473 327 470 z m 373 475 q 378 475 378 477 q 377 478 376 478 q 374 478 373 479 z m 385 477 q 384 477 384 478 q 384 478 382 478 q 380 476 382 476 q 385 475 385 477 z m 335 475 q 337 476 338 474 q 338 473 339 475 q 337 480 335 475 z m 320 459 q 318 459 318 458 q 320 458 320 459 z m 153 354 q 155 355 155 354 q 155 352 157 352 q 158 355 160 358 q 162 362 160 364 q 160 360 157 359 q 154 358 153 354 z m 125 296 q 127 293 127 296 q 127 298 125 296 z m 209 261 q 212 264 211 267 q 210 270 208 273 q 207 269 206 266 q 206 263 209 261 z m 225 258 q 228 258 228 261 q 223 261 220 262 q 218 264 216 266 q 214 261 218 262 q 223 262 225 258 z m 235 261 q 239 261 239 263 q 237 266 235 261 z m 218 249 q 216 252 218 256 q 214 256 214 257 q 215 255 216 252 q 216 250 218 249 z m 251 250 q 249 250 249 251 q 249 252 247 253 q 246 251 248 250 q 251 248 251 250 z m 251 234 q 251 236 252 238 q 254 240 252 241 q 252 239 250 237 q 249 235 251 234 z m 258 228 q 260 228 261 226 q 262 223 264 224 q 267 226 264 229 q 260 232 258 228 z m 373 192 q 374 188 372 188 q 369 189 370 186 q 372 186 372 185 q 373 184 375 185 q 375 187 378 190 q 380 193 377 194 q 378 192 373 192 z m 355 185 q 357 184 358 183 q 359 182 362 183 q 362 185 363 186 q 364 188 365 190 q 363 189 363 192 q 363 194 361 193 q 359 191 358 189 q 356 187 355 185 z m 315 222 q 315 223 316 223 q 318 223 317 225 l 314 225 q 314 222 315 222 z m 318 220 q 318 215 319 218 q 320 222 318 220 z m 381 175 q 383 174 383 177 q 383 180 381 180 z m 370 174 q 372 174 374 174 q 376 173 376 175 q 373 176 373 179 q 371 178 370 179 q 368 180 368 178 q 370 177 370 174 z m 371 164 q 370 165 371 167 q 372 169 370 169 q 370 167 369 166 q 368 165 371 164 z m 304 197 q 305 199 302 200 q 300 200 300 199 q 302 199 302 198 q 302 196 304 197 z m 380 163 q 380 159 384 157 q 382 159 383 160 q 384 161 384 164 q 382 164 382 164 q 382 163 380 163 z m 397 156 l 399 156 l 399 159 l 396 159 q 396 157 397 156 z m 381 146 q 378 151 372 156 q 377 141 393 146 q 393 143 394 142 q 396 141 397 139 q 399 139 402 142 q 404 144 402 146 q 401 144 399 144 q 399 147 400 148 q 395 148 393 148 q 391 147 388 149 q 388 146 386 146 q 383 146 381 146 z m 430 154 q 427 154 427 153 q 430 153 430 154 z m 413 146 q 413 147 412 147 q 411 147 411 146 q 412 146 412 145 q 412 144 413 146 z m 420 141 q 418 141 418 140 l 419 140 q 420 140 420 141 z m 425 140 q 423 140 423 140 q 423 141 421 141 q 419 139 422 138 q 425 138 425 140 z m 432 169 q 430 166 432 168 q 434 171 432 169 z m 438 158 l 438 156 q 440 154 440 156 q 441 159 439 159 q 439 158 438 158 z"},"=":{"x_min":0,"x_max":500,"ha":500,"o":"m 190 424 l 192 424 q 193 422 192 421 q 192 420 192 418 q 190 417 190 424 z m 203 410 q 205 409 204 408 q 204 406 202 406 q 202 408 202 408 q 203 408 203 410 z m 466 299 l 466 233 l 343 233 l 234 233 l 31 233 l 31 299 l 51 299 q 59 299 66 298 q 72 296 79 298 q 79 299 82 299 q 106 296 132 298 q 157 299 185 299 l 229 299 q 237 299 242 299 q 248 299 255 297 q 257 297 257 298 q 257 298 258 298 q 258 299 259 299 l 261 299 l 318 299 l 392 299 q 396 299 400 298 q 404 298 408 298 q 419 297 428 298 q 436 300 446 299 l 450 299 z m 197 295 q 195 295 195 294 q 197 296 197 295 z m 284 290 q 284 291 284 291 q 283 291 283 290 q 284 290 284 290 z m 178 451 q 178 449 176 446 q 174 443 172 445 q 174 440 177 438 q 180 435 187 435 q 188 436 187 437 q 186 438 185 439 q 184 440 184 441 q 183 442 185 444 q 179 446 179 449 q 185 449 185 452 q 196 451 206 451 q 217 451 225 451 q 224 450 225 450 q 228 450 226 446 q 225 442 226 440 q 231 441 232 445 q 233 449 235 452 q 255 452 274 452 q 294 451 311 452 q 313 450 315 450 q 317 450 319 449 q 319 448 320 448 l 322 448 q 335 450 356 450 q 378 451 400 451 q 421 451 440 451 q 458 451 466 451 l 466 385 q 424 386 384 386 q 345 385 305 384 l 302 384 q 301 385 300 385 q 299 385 297 386 l 294 386 q 244 384 189 385 q 134 386 83 385 l 80 386 q 66 388 57 386 q 48 385 31 385 l 31 452 q 42 452 59 452 q 76 451 93 451 q 110 451 124 451 q 138 451 144 451 q 153 452 162 452 q 170 451 178 451 z m 253 445 q 254 447 255 446 q 256 444 258 445 q 256 448 254 448 q 254 447 252 446 q 251 445 253 445 z m 213 443 q 211 442 210 443 q 210 444 208 443 q 209 441 210 440 q 210 438 213 439 q 212 441 214 442 q 217 444 214 445 q 212 443 213 443 z m 327 437 q 330 439 332 438 q 335 437 337 439 q 337 444 332 443 q 327 442 327 437 z m 154 451 q 153 452 152 451 q 152 450 151 450 q 151 449 153 450 q 155 450 154 451 z m 160 444 q 161 442 161 444 q 161 447 160 444 z m 102 441 q 104 441 104 440 q 104 439 105 439 q 105 441 106 441 q 107 441 107 443 q 105 442 104 442 q 103 442 102 441 z m 111 437 q 111 441 110 441 q 108 439 111 437 z m 294 439 q 299 437 300 434 q 302 438 299 440 q 296 442 294 439 z m 184 423 q 183 426 184 427 q 185 428 185 430 q 183 432 182 430 q 181 427 178 427 q 176 429 176 432 q 175 434 173 435 q 173 431 170 430 q 168 430 168 426 q 172 428 172 426 q 173 423 172 421 q 176 421 178 418 q 180 416 184 418 q 185 417 184 414 q 186 413 188 412 q 189 411 192 411 q 194 409 195 407 q 196 405 198 404 q 198 407 200 406 q 203 406 201 402 q 206 402 210 400 q 215 397 217 402 q 214 400 211 402 q 208 405 206 407 q 208 409 208 410 q 206 409 205 410 q 204 412 203 414 q 202 415 201 416 q 200 417 197 415 q 198 418 196 422 q 193 427 188 428 q 189 425 187 424 q 185 424 186 421 q 189 422 189 419 q 186 419 186 420 q 186 422 184 423 z m 137 429 q 135 429 135 428 q 137 428 137 429 z m 138 428 q 138 426 137 424 q 136 423 136 421 q 138 423 142 422 q 147 422 149 422 q 147 423 147 426 q 147 428 145 429 q 144 427 142 428 q 140 429 138 428 z m 221 424 q 221 427 220 428 l 217 428 q 217 423 221 424 z m 97 427 q 93 427 93 426 q 94 427 96 426 q 97 425 97 427 z m 103 423 q 104 425 102 426 q 101 428 100 426 q 101 425 101 424 q 101 422 103 423 z m 130 425 q 132 425 133 426 q 130 426 130 425 z m 150 421 q 152 419 153 419 q 153 421 152 422 q 150 423 150 421 z m 108 412 q 107 408 109 410 q 111 412 108 412 z"},"a":{"x_min":0,"x_max":564,"ha":564,"o":"m 434 125 q 439 117 438 103 q 437 89 440 81 q 442 70 446 65 q 449 60 452 56 q 457 52 464 50 q 471 48 476 48 q 485 49 494 56 q 504 64 506 78 q 508 89 509 98 q 510 107 510 123 q 509 135 509 142 q 509 150 510 167 q 511 181 520 186 q 528 192 538 193 q 551 193 560 187 q 568 181 571 163 q 573 155 572 147 q 572 139 573 131 l 573 78 q 572 68 572 62 q 571 56 568 48 q 566 43 564 39 q 563 35 561 31 q 560 30 555 30 q 555 28 556 28 q 558 27 558 25 q 550 13 540 5 q 529 -4 518 -7 q 506 -10 495 -12 q 472 -15 457 -14 q 442 -12 426 -7 q 423 -7 423 -5 q 421 -3 421 -2 q 421 -1 420 -1 q 417 -3 414 0 q 412 3 407 2 l 406 2 q 404 3 404 3 q 386 17 375 41 q 373 45 372 48 q 372 52 370 55 l 369 55 l 367 55 q 361 47 350 34 q 338 20 318 9 q 304 0 294 -4 q 283 -7 262 -12 q 242 -17 228 -18 q 214 -18 200 -18 l 197 -18 q 196 -18 195 -17 q 192 -17 188 -18 q 185 -18 182 -16 l 180 -15 q 178 -16 176 -16 q 175 -15 173 -15 q 171 -14 171 -14 q 166 -12 160 -12 q 155 -12 149 -12 q 124 -5 110 2 q 95 10 76 24 q 62 35 52 51 q 41 67 36 84 q 27 116 30 144 q 33 173 43 193 q 48 205 54 213 q 61 221 69 229 q 79 239 104 254 q 128 268 151 272 q 162 274 174 276 q 186 278 199 279 q 209 281 219 282 q 229 284 238 284 q 244 284 244 282 q 246 286 248 286 q 256 284 266 288 q 275 293 286 291 l 288 291 q 289 291 290 292 q 290 292 291 292 q 299 294 308 296 q 316 298 325 302 q 344 311 352 324 q 356 332 358 340 q 361 348 362 359 l 362 362 q 362 364 362 364 q 363 365 363 366 q 363 367 364 368 q 364 369 364 370 q 363 375 362 382 q 361 390 362 395 q 362 396 362 397 q 361 398 361 399 q 357 402 354 406 q 352 409 350 413 q 349 413 349 414 l 349 416 q 348 417 348 418 q 336 433 317 443 q 309 447 298 450 q 287 453 277 454 q 239 458 209 450 q 179 441 155 415 q 153 413 154 409 q 154 405 158 403 q 163 401 166 398 q 168 395 171 391 q 178 381 178 368 q 177 355 172 343 q 168 336 156 326 q 143 317 125 319 q 96 321 82 337 q 69 353 66 367 q 64 380 66 395 q 67 410 72 420 q 77 429 81 437 q 85 445 96 456 q 110 472 126 482 q 142 493 164 501 q 169 503 178 507 q 186 511 193 508 q 196 508 198 510 q 199 511 201 512 q 215 515 227 516 q 239 518 254 518 q 259 518 270 518 q 281 518 295 516 q 309 514 323 511 q 337 508 346 503 q 362 495 376 488 q 391 480 405 460 q 415 448 420 436 q 424 424 428 415 q 431 408 432 398 q 434 388 436 378 q 437 367 438 356 q 438 346 438 339 l 438 258 l 438 253 q 437 251 438 248 q 438 246 436 245 q 438 242 438 236 q 439 231 437 229 q 436 228 436 226 q 437 225 437 224 q 437 223 438 221 l 438 218 q 436 211 438 201 q 440 191 437 183 q 437 180 438 178 l 438 175 q 438 170 438 166 q 439 162 439 156 q 437 153 438 150 q 439 146 438 141 q 438 137 436 134 q 434 131 436 129 q 437 126 434 126 z m 346 487 q 348 485 350 487 q 351 489 349 490 q 349 488 348 488 q 346 489 346 487 z m 353 483 q 351 483 352 484 q 352 485 350 485 q 349 483 351 482 q 353 482 353 483 z m 303 466 q 302 466 300 467 q 299 468 299 466 q 300 466 302 465 q 303 464 303 466 z m 408 339 q 407 340 407 340 q 407 341 406 342 q 402 341 400 343 q 398 345 396 344 q 396 342 396 340 q 396 338 398 337 q 399 341 404 340 q 408 340 408 339 z m 388 341 q 389 343 386 343 q 384 343 384 342 q 386 342 386 342 q 386 341 388 341 z m 403 319 q 407 321 403 323 q 404 321 402 320 q 401 319 403 319 z m 407 319 q 407 319 409 315 q 415 315 416 317 q 414 318 414 320 q 413 321 411 321 q 410 320 408 320 q 407 321 407 319 z m 391 315 q 391 316 392 316 q 394 321 389 318 q 389 317 391 315 z m 400 308 l 404 308 q 404 310 402 310 q 401 311 399 313 q 399 311 400 310 q 401 310 400 308 z m 420 306 q 422 304 424 305 q 427 306 425 309 q 423 309 422 310 q 422 308 421 308 q 420 308 420 306 z m 379 296 q 380 294 385 291 l 385 296 q 383 295 382 296 q 381 298 379 296 z m 417 294 q 418 292 420 291 q 422 290 424 289 q 424 289 426 291 q 425 295 422 294 q 419 293 417 294 z m 239 269 q 241 271 244 274 q 248 277 244 280 q 245 275 241 274 q 237 274 239 269 z m 357 277 q 359 281 362 279 q 362 280 357 282 q 358 280 356 278 q 355 277 357 277 z m 344 272 q 346 271 346 270 q 347 269 349 268 q 348 271 348 272 q 349 274 347 275 q 347 273 346 273 q 345 273 344 272 z m 360 274 q 364 274 364 276 q 362 276 360 274 z m 336 273 l 336 272 q 338 270 338 272 q 338 274 337 274 q 337 273 336 273 z m 426 265 q 428 265 428 264 q 429 264 431 265 q 429 266 428 268 q 427 270 427 272 q 427 270 426 268 q 425 267 426 265 z m 278 255 q 278 253 276 249 q 281 249 282 250 q 284 252 288 253 q 288 256 286 256 q 286 253 283 254 q 280 254 278 255 z m 411 256 q 412 255 412 253 q 414 254 416 253 q 417 252 417 254 q 415 254 414 255 q 414 256 412 257 q 412 256 411 256 z m 417 253 q 420 254 420 252 q 420 249 422 247 q 424 252 420 256 q 420 254 418 254 q 417 255 417 253 z m 338 243 q 336 238 329 238 q 322 237 319 236 q 317 234 318 234 q 320 234 320 231 q 313 229 306 226 q 299 224 291 227 q 288 227 287 224 q 287 222 284 222 q 277 224 270 221 q 268 221 266 219 q 260 219 249 218 q 238 216 226 214 q 213 213 202 212 q 191 210 186 209 q 174 205 161 200 q 148 195 131 181 q 127 177 124 173 q 121 169 119 165 q 112 151 111 130 q 110 110 121 90 q 122 89 122 86 l 123 85 q 123 84 124 84 q 129 79 132 72 q 132 69 134 69 q 139 65 143 62 q 147 59 155 58 q 157 58 157 57 q 159 55 161 55 q 166 54 172 54 q 174 54 176 52 q 178 51 180 51 q 181 51 183 50 l 186 50 q 195 51 201 47 q 204 47 205 46 q 212 46 214 45 q 216 44 220 47 q 225 48 227 48 q 229 47 231 46 q 232 46 234 46 q 236 46 237 47 q 242 49 246 50 q 250 51 255 52 q 262 54 278 59 q 293 64 307 74 q 323 85 336 105 q 349 125 351 136 q 352 142 358 148 q 355 153 356 154 q 360 161 357 173 q 354 185 358 193 q 360 195 361 195 q 363 194 364 193 q 364 192 366 193 q 367 194 372 197 q 370 196 370 197 q 370 198 370 200 q 371 201 372 202 q 372 204 371 204 q 366 204 365 201 q 364 198 359 198 q 355 198 355 202 q 355 204 358 204 q 360 204 360 206 q 360 209 358 208 q 357 207 357 209 q 359 217 359 232 q 359 248 359 256 q 355 254 352 250 q 348 246 346 247 l 344 247 q 344 244 340 244 q 339 243 338 243 z m 393 250 q 393 253 391 253 q 390 252 393 250 z m 268 242 q 268 240 270 240 q 271 239 272 237 q 272 241 275 241 q 278 241 280 243 q 284 240 292 242 q 292 245 288 245 q 286 242 283 244 q 280 246 277 244 q 275 244 276 246 q 276 247 275 247 q 273 245 272 244 q 270 244 268 242 z m 385 247 q 384 245 388 245 q 387 247 388 248 q 388 249 387 250 q 386 249 386 248 q 387 247 385 247 z m 408 245 q 406 246 406 248 q 405 249 403 250 q 401 247 404 246 q 407 244 408 245 z m 395 237 q 392 237 392 241 q 393 245 391 245 q 392 243 390 239 q 392 239 393 237 q 394 235 395 237 z m 417 236 q 417 244 413 244 q 414 239 417 236 z m 376 236 q 378 235 379 236 q 380 238 378 239 q 378 238 376 236 z m 242 227 q 244 227 246 228 q 248 230 246 232 q 245 230 244 230 q 242 229 242 227 z m 375 227 q 374 229 376 228 q 379 227 378 229 q 376 228 376 232 q 375 236 375 234 q 373 233 373 230 q 373 228 375 227 z m 397 234 l 397 227 q 395 225 394 227 q 392 224 392 219 q 393 214 388 214 q 386 215 386 217 q 386 219 384 219 q 385 217 385 216 q 385 214 387 213 q 392 215 396 212 q 399 210 404 212 q 403 216 404 218 q 406 219 408 221 q 406 226 406 231 q 405 236 397 234 z m 414 226 q 416 230 421 227 q 421 230 423 230 q 425 231 425 234 q 422 234 421 232 q 420 231 418 230 q 415 233 415 234 q 413 233 411 234 q 414 232 413 230 q 412 228 414 226 z m 279 230 q 281 230 281 231 q 281 232 283 233 q 281 233 281 234 q 281 236 279 235 z m 277 227 q 275 227 275 228 q 275 230 273 231 q 271 230 273 228 q 275 225 277 227 z m 409 220 q 412 220 412 217 q 411 214 414 214 q 412 218 415 219 q 413 219 413 221 q 413 223 411 223 q 413 221 411 222 q 409 222 409 220 z m 365 207 q 366 210 368 212 q 369 214 370 217 q 368 218 366 219 q 365 220 362 220 q 360 218 362 214 q 363 209 365 207 z m 415 213 q 417 211 420 210 q 424 209 424 204 q 427 205 429 201 q 430 206 428 206 q 425 207 424 209 q 423 211 426 212 q 428 212 427 214 q 424 216 420 215 q 417 214 415 213 z m 396 191 q 401 191 402 192 q 401 195 400 198 q 399 201 399 205 q 398 204 396 204 q 395 205 395 204 q 399 202 398 198 q 397 193 396 191 z m 382 196 q 385 196 384 197 l 382 197 z m 405 193 q 407 190 406 189 q 405 188 404 186 q 405 182 409 181 q 413 180 417 181 q 419 179 418 176 q 418 174 419 172 q 422 173 422 177 q 416 182 422 186 q 427 190 429 193 q 421 197 420 192 q 420 186 413 185 q 414 189 412 192 q 409 196 405 193 z m 427 177 q 428 177 429 176 q 430 177 430 177 q 431 177 432 178 q 428 181 427 177 z m 386 166 q 387 167 388 168 q 390 169 388 171 q 389 169 386 168 q 384 167 386 166 z m 395 160 q 396 159 398 158 q 401 157 403 159 q 401 161 400 162 q 399 164 397 166 q 398 164 396 164 q 394 163 395 160 z m 375 154 q 378 154 377 152 q 376 150 379 150 q 379 152 378 154 q 378 155 378 157 q 380 159 382 157 q 383 160 381 160 q 379 158 377 158 q 375 157 375 154 z m 424 149 q 424 152 422 153 q 421 152 421 150 q 421 147 424 149 z m 363 144 q 363 147 360 147 q 360 145 361 145 q 362 145 363 144 z m 426 148 q 425 144 426 144 q 428 143 430 141 q 432 142 431 144 q 430 147 432 149 q 430 149 429 148 q 428 147 426 148 z m 396 140 q 399 138 399 133 q 396 131 390 131 q 385 131 384 128 q 386 126 388 128 q 390 129 392 129 q 392 127 394 128 q 396 128 398 128 q 400 126 400 124 q 400 123 402 123 q 400 126 401 128 q 402 130 403 133 q 399 134 400 137 q 402 140 404 141 q 401 141 401 144 q 401 146 400 147 l 396 147 q 398 145 397 144 q 396 142 396 140 z m 551 148 q 548 151 547 150 q 546 148 548 147 q 550 146 551 148 z m 537 143 q 540 144 542 146 q 541 147 540 147 q 539 147 538 148 q 537 147 537 143 z m 375 139 q 378 139 378 140 q 379 141 381 142 q 379 144 378 142 q 376 141 375 139 z m 406 139 q 408 137 410 140 q 413 142 411 144 q 406 141 406 139 z m 428 134 q 430 134 430 138 q 428 138 428 136 q 429 135 428 134 z m 363 130 q 363 132 364 132 q 364 132 364 134 q 362 135 361 134 q 360 134 358 135 q 358 132 360 132 q 361 131 363 130 z m 422 127 q 422 125 424 124 q 425 123 424 120 q 422 120 422 119 q 424 120 424 118 q 425 117 427 118 q 429 124 431 126 q 429 126 430 128 q 432 129 430 130 q 428 130 426 130 q 424 130 422 127 z m 541 128 q 543 130 544 130 q 546 130 547 132 q 545 134 543 132 q 541 129 541 128 z m 361 117 l 361 120 l 357 120 q 357 116 361 117 z m 374 105 q 370 107 372 112 q 374 116 371 118 q 369 114 368 111 q 370 110 371 106 q 372 103 374 105 z m 556 117 q 556 115 558 114 q 561 113 562 116 q 557 118 556 117 z m 402 108 q 404 109 404 106 q 404 104 406 103 q 407 105 409 106 q 411 106 413 107 l 413 110 q 408 108 406 110 q 404 113 402 108 z m 352 101 q 351 104 352 105 q 353 106 353 108 q 351 107 351 108 q 351 110 350 110 q 348 108 348 105 q 349 102 352 101 z m 553 111 q 552 112 552 113 q 553 114 552 114 q 549 111 553 111 z m 360 97 q 367 99 368 101 q 363 101 360 103 q 358 105 356 107 q 357 105 358 102 q 358 99 360 97 z m 384 99 q 386 97 386 100 q 386 102 384 101 z m 399 97 q 401 95 402 97 q 404 99 402 101 q 402 99 400 99 q 398 99 399 97 z m 419 88 q 419 91 424 90 q 428 89 429 93 q 427 94 427 96 q 427 98 424 97 q 424 93 420 92 q 415 91 419 88 z m 535 99 q 537 97 537 99 q 537 101 535 99 z m 381 92 q 382 90 383 90 q 384 89 382 87 q 388 89 390 83 q 392 85 394 88 q 397 91 396 93 q 394 90 390 90 q 385 89 385 94 q 383 92 381 92 z m 548 96 q 550 96 550 97 q 548 97 548 96 z m 370 91 q 366 89 369 89 q 372 89 370 91 z m 534 87 q 533 88 532 88 q 531 87 530 89 q 531 92 532 90 q 533 89 535 89 l 535 94 q 531 96 530 93 q 529 90 527 88 q 529 88 531 86 q 533 85 534 87 z m 72 82 l 71 82 q 70 82 70 81 q 69 80 71 81 q 73 82 72 82 z m 542 87 q 543 91 539 91 q 539 90 542 87 z m 409 85 q 410 87 407 87 q 407 85 409 85 z m 556 87 q 558 88 560 88 q 562 87 561 89 q 560 88 558 88 q 557 89 556 87 z m 547 85 q 549 84 550 86 q 552 87 550 88 q 550 86 548 86 q 546 87 547 85 z m 409 73 q 411 72 415 74 q 419 76 422 73 q 424 76 422 80 q 420 83 415 83 q 417 78 413 78 q 409 78 409 73 z m 378 76 q 381 76 382 74 q 384 73 388 74 q 388 79 385 79 q 382 79 379 81 q 378 80 378 76 z m 430 79 q 432 78 432 78 q 432 77 434 77 q 433 78 434 80 q 434 81 432 82 q 432 80 431 80 q 430 80 430 79 z m 322 74 q 323 73 323 71 l 332 71 q 333 70 332 68 q 332 66 334 65 q 338 64 338 67 q 338 70 338 73 q 333 74 329 76 q 325 79 322 74 z m 530 76 q 532 74 532 76 q 533 79 531 79 q 532 77 531 77 q 530 77 530 76 z m 428 70 q 432 70 432 71 q 431 71 429 73 q 429 71 428 70 z m 437 71 q 437 72 436 72 q 435 72 435 71 q 437 71 437 71 z m 380 65 q 380 66 382 66 q 382 67 379 69 q 381 67 380 66 q 378 65 380 65 z m 389 64 q 389 63 390 63 q 392 63 392 64 q 391 66 390 66 q 389 66 389 64 z m 509 63 q 509 61 511 62 q 513 62 514 61 q 514 62 514 64 q 515 67 514 69 q 513 67 511 66 q 509 65 509 63 z m 344 60 q 344 55 340 56 q 335 56 334 54 q 339 52 343 52 q 347 53 353 52 q 352 54 350 56 q 349 57 349 61 q 346 61 344 60 z m 419 59 q 418 57 419 56 q 420 55 420 53 q 422 54 426 54 q 430 55 430 51 q 433 53 434 54 q 432 54 430 56 q 428 58 430 60 q 428 59 427 60 q 426 61 424 62 q 424 60 422 60 q 420 60 419 59 z m 548 63 q 546 62 546 63 q 546 64 544 63 q 542 61 545 60 q 548 59 548 63 z m 436 58 q 438 56 440 59 q 436 61 436 58 z m 531 60 l 533 60 l 533 61 l 531 61 z m 525 58 q 529 58 529 59 q 528 60 526 60 q 525 60 525 58 z m 534 59 q 534 56 536 56 q 538 57 539 59 q 537 61 536 60 q 536 59 534 59 z m 300 50 l 300 51 q 300 53 299 53 q 299 50 300 50 z m 506 56 q 509 56 508 57 l 506 57 z m 499 52 q 497 49 499 50 q 501 50 499 52 z m 321 46 q 321 44 322 44 q 322 43 323 41 q 325 42 326 44 q 328 46 327 47 q 326 45 324 46 q 322 47 321 46 z m 399 46 l 403 46 q 403 49 402 49 q 402 47 401 47 q 400 47 399 46 z m 434 46 q 433 50 432 49 q 431 48 434 46 z m 518 49 l 521 49 q 521 51 518 51 z m 545 49 q 547 47 546 49 q 546 51 545 49 z m 416 38 q 418 37 418 39 q 417 41 419 43 q 416 43 416 41 q 417 39 416 38 z m 484 43 q 485 41 486 44 q 486 46 484 43 z m 402 36 q 402 38 402 38 q 403 38 403 40 q 401 40 400 41 q 399 42 398 40 q 400 39 400 38 q 400 36 402 36 z m 488 40 q 490 41 491 38 q 492 35 494 38 q 492 38 492 40 q 492 42 490 43 q 490 42 488 40 z m 461 36 q 462 36 462 34 q 467 34 467 39 q 462 39 461 36 z m 534 39 q 531 41 532 39 q 532 37 534 39 z m 244 24 q 246 25 246 24 q 247 23 249 23 q 250 24 250 29 q 247 28 247 30 q 247 32 245 32 q 246 30 245 28 q 244 26 244 24 z m 417 31 q 419 31 419 32 q 419 32 421 31 q 420 33 420 35 q 421 37 419 36 q 418 34 418 34 q 417 33 417 31 z m 496 32 q 497 32 497 32 q 497 31 498 31 q 498 34 496 34 z m 507 30 q 508 31 510 31 q 513 31 511 33 q 511 31 508 32 q 506 33 507 30 z m 505 26 q 510 26 509 28 l 505 28 z m 448 25 q 450 23 453 24 q 456 25 454 25 q 452 24 450 26 q 449 27 448 25 z m 199 -2 q 201 0 199 1 q 197 2 196 4 q 196 -2 199 -2 z"},"L":{"x_min":0,"x_max":637,"ha":637,"o":"m 152 516 q 154 517 154 513 q 153 509 151 510 q 147 514 152 516 z m 206 242 q 209 242 208 238 q 207 235 210 235 q 208 232 208 234 q 207 237 205 237 q 204 239 205 240 q 206 240 206 242 z m 229 216 q 233 216 232 212 q 229 212 229 216 z m 219 210 q 221 208 220 206 l 218 206 q 218 208 218 208 q 219 208 219 210 z m 160 206 q 161 206 161 206 q 161 205 162 205 q 163 203 160 203 q 158 203 158 201 q 156 203 158 204 q 160 205 160 206 z m 228 205 q 231 205 231 205 q 232 203 229 203 q 226 203 228 205 z m 155 199 q 157 201 156 199 q 156 197 155 199 z m 191 167 q 195 167 193 163 l 190 163 q 190 166 191 167 z m 156 154 l 157 154 l 158 154 q 157 152 157 153 q 157 154 156 154 z m 155 150 q 155 151 157 151 q 159 151 158 149 l 156 149 q 156 150 155 150 z m 233 325 l 233 300 q 232 298 232 298 l 230 298 q 230 291 233 291 q 232 285 232 278 q 233 271 233 269 q 231 268 231 270 q 231 271 229 271 q 228 268 230 268 q 231 267 233 266 q 233 264 232 262 q 232 260 233 257 q 230 262 225 257 q 227 254 233 254 q 232 249 232 248 q 232 246 233 241 q 230 242 226 240 q 223 238 225 233 q 227 234 226 236 q 224 237 226 239 q 233 241 232 235 q 231 229 232 224 q 230 224 230 226 q 230 227 228 227 q 227 224 230 224 q 232 224 232 221 q 230 218 228 218 q 226 219 222 219 q 222 222 221 222 q 218 222 220 220 q 221 219 219 219 q 216 218 218 220 q 219 223 216 223 q 216 221 214 219 q 212 217 210 219 q 213 221 212 222 q 211 224 216 225 q 215 231 212 238 q 209 244 202 244 q 202 247 204 246 q 206 246 208 246 q 209 248 206 247 q 203 246 202 248 q 203 253 200 254 q 196 256 195 260 q 192 256 198 252 q 203 248 199 242 q 201 239 200 236 q 200 233 200 231 q 205 231 206 230 q 207 227 206 226 q 204 226 204 224 q 206 221 208 218 q 209 214 213 213 q 211 204 218 203 q 220 196 218 195 q 216 194 219 190 q 217 190 217 190 q 217 191 215 191 q 217 187 218 184 q 220 181 220 177 q 218 175 218 176 q 217 178 215 178 q 217 175 216 172 q 215 168 217 166 q 224 166 226 171 q 225 175 224 178 q 222 180 220 182 q 222 183 222 185 q 221 187 225 187 q 224 192 222 194 q 220 197 220 201 q 225 203 226 200 q 226 196 229 195 q 231 197 231 200 q 235 189 232 174 q 229 159 232 150 q 230 148 229 150 q 228 151 226 151 q 226 148 232 142 q 232 138 233 136 l 233 125 q 233 117 235 106 q 237 94 239 86 q 243 75 250 70 q 258 65 269 63 l 261 61 q 261 59 263 60 q 265 61 267 60 q 269 57 268 55 q 268 53 268 50 q 269 48 270 50 q 271 52 272 54 q 271 57 270 58 q 269 60 271 63 q 302 60 336 62 q 369 63 404 61 q 408 61 407 59 q 408 60 409 60 q 410 60 411 61 q 427 61 446 62 q 465 62 482 66 q 499 70 512 78 q 525 86 530 102 q 532 103 532 102 q 533 101 535 101 q 535 103 534 104 q 532 104 532 106 q 536 116 537 132 q 538 147 538 165 q 538 183 537 201 q 536 219 535 233 q 535 254 543 266 q 551 279 574 278 q 583 277 592 274 q 600 272 603 267 q 604 265 602 266 q 599 267 599 265 q 600 263 602 264 q 603 265 604 265 q 608 261 608 257 l 608 254 q 610 251 612 245 q 613 237 612 224 q 610 210 608 194 q 605 177 603 160 q 601 142 601 126 q 602 109 602 95 q 603 81 604 66 q 607 46 605 32 q 603 15 592 4 q 581 -7 560 -7 q 549 -6 539 -5 q 529 -4 517 -4 q 505 -3 490 -2 q 475 -1 454 0 q 440 0 431 0 q 422 0 414 3 l 408 3 q 391 -2 374 1 q 356 4 339 4 q 316 3 294 2 q 271 0 248 0 q 223 0 204 0 q 185 0 168 0 q 152 -1 136 -2 q 121 -4 103 -5 q 88 -6 70 -8 q 53 -9 39 -4 q 28 1 24 7 q 20 13 19 26 q 18 66 56 61 q 76 59 93 56 q 110 53 124 62 q 135 70 138 78 q 142 85 144 93 q 146 101 146 109 q 147 117 148 126 q 149 127 153 129 q 152 124 154 122 q 157 121 159 119 q 162 120 166 120 q 171 120 169 123 q 165 120 158 123 q 152 126 157 133 q 160 134 162 133 q 164 132 166 132 q 167 134 168 134 q 169 135 171 137 q 170 141 161 141 q 159 139 158 136 q 157 134 154 132 q 152 133 151 136 q 150 138 148 140 q 153 140 154 139 q 155 139 158 144 q 157 145 156 144 q 154 142 152 144 q 151 145 151 149 q 150 149 150 148 q 150 148 149 148 q 148 158 148 170 q 149 182 149 195 q 160 195 162 192 q 165 190 171 182 q 171 179 170 180 q 168 182 166 182 q 165 180 167 179 q 169 178 170 177 q 171 174 168 174 q 166 174 167 172 q 167 170 168 170 q 170 171 170 169 q 172 171 174 173 q 175 175 179 174 q 180 176 178 175 q 176 174 176 176 q 177 179 180 179 q 183 179 182 183 q 184 184 187 184 q 190 185 189 189 q 186 190 186 188 q 186 186 184 185 q 180 187 179 182 q 177 184 174 184 q 172 185 170 187 q 169 189 170 190 q 171 190 170 192 q 169 194 168 194 q 166 193 165 194 q 165 202 171 204 q 172 201 170 202 q 168 202 168 200 q 171 200 174 197 q 176 198 176 200 q 175 203 175 205 q 178 206 180 205 q 182 204 186 205 q 185 208 186 212 q 186 215 185 217 q 185 219 187 218 q 189 218 189 219 q 187 220 185 222 q 183 223 182 226 q 180 224 178 222 q 176 219 175 214 q 170 214 170 218 q 171 222 169 224 q 167 223 168 220 q 168 218 166 219 q 168 215 171 215 q 168 211 161 213 q 159 210 158 208 q 157 207 154 205 q 155 201 153 200 q 151 200 149 198 l 149 276 q 149 281 148 288 q 148 294 153 292 q 151 295 152 298 q 153 300 148 302 l 148 310 q 148 312 150 312 l 152 312 q 152 314 150 314 q 149 314 149 315 q 152 322 151 326 q 150 330 148 340 q 148 342 150 340 q 151 339 152 341 q 152 345 150 350 q 147 355 152 357 q 152 358 151 358 q 150 357 150 359 q 150 364 151 368 q 152 371 150 375 q 149 376 149 378 q 148 379 148 382 q 148 391 148 402 q 148 414 148 426 q 148 438 148 449 q 149 460 149 467 q 151 471 153 471 q 148 479 148 486 q 149 494 149 506 q 153 508 156 511 q 159 514 160 519 q 158 520 156 519 q 154 518 152 519 q 151 523 153 527 q 152 528 150 528 q 149 528 148 530 q 148 532 149 533 q 150 534 151 536 q 149 538 149 543 q 146 564 142 576 q 137 589 130 596 q 124 602 116 604 q 108 607 100 607 q 89 607 78 604 q 68 602 54 602 q 18 601 19 643 q 21 653 28 660 q 34 667 45 668 q 58 670 70 669 q 81 668 101 666 q 118 664 144 662 q 169 659 191 658 q 208 658 230 660 q 251 663 270 665 q 289 667 304 669 q 318 671 322 671 q 326 671 332 670 q 338 668 344 665 q 350 662 355 657 q 360 652 362 644 q 366 621 355 611 q 344 601 330 602 q 313 604 302 606 q 290 607 270 605 q 261 604 255 598 q 249 593 244 587 q 237 578 234 558 q 232 537 233 523 l 233 495 q 231 493 230 494 q 229 496 227 497 q 225 496 226 494 q 228 491 224 492 q 226 488 227 491 q 228 494 231 492 q 231 491 233 491 z m 335 662 q 335 660 336 658 q 338 657 337 654 q 339 654 340 656 q 340 657 341 659 q 339 665 335 662 z m 243 643 l 243 647 l 241 647 q 242 645 242 644 q 241 643 243 643 z m 256 643 q 256 646 254 646 q 254 643 256 643 z m 251 640 q 252 639 254 643 q 251 643 251 640 z m 261 634 q 259 639 255 639 q 254 632 261 634 z m 360 635 q 362 638 360 639 q 361 637 360 636 q 358 636 360 635 z m 307 627 l 310 627 q 310 632 307 632 q 306 630 307 627 z m 329 626 q 331 626 332 628 q 333 629 332 630 q 331 628 330 628 q 328 628 329 626 z m 243 623 q 243 625 239 625 q 238 623 243 623 z m 257 620 q 258 618 260 618 q 263 617 262 621 q 257 621 257 620 z m 355 620 q 355 621 356 620 q 357 620 357 622 q 355 623 354 622 q 353 620 355 620 z m 331 616 q 333 614 338 616 q 336 621 334 620 q 335 618 334 618 q 332 618 331 616 z m 40 619 l 40 617 q 41 615 43 614 q 45 614 44 611 q 47 613 48 614 q 50 614 54 614 q 52 616 52 616 q 51 615 48 615 q 45 621 40 619 z m 238 611 q 240 611 242 610 q 243 608 245 609 q 245 614 238 616 q 239 614 238 614 q 238 613 238 611 z m 232 611 q 232 612 234 612 q 235 613 233 614 q 233 613 232 612 q 230 611 232 611 z m 273 618 q 273 621 272 621 q 269 618 273 618 z m 329 606 q 332 605 334 610 q 332 608 331 611 q 330 614 329 616 q 326 614 324 615 q 323 616 320 616 q 322 613 326 612 q 329 611 329 606 z m 333 613 q 334 611 334 613 q 334 615 333 613 z m 284 611 q 286 612 286 611 q 286 610 288 610 q 287 613 289 614 q 291 614 290 617 q 288 619 285 618 q 282 616 284 611 z m 202 538 q 204 536 206 536 q 207 536 211 535 q 209 537 208 538 q 206 540 204 542 q 204 540 202 540 q 201 540 202 538 z m 190 532 q 190 534 188 534 q 186 533 187 535 q 187 537 188 538 q 189 538 189 539 q 187 539 188 540 q 188 541 186 541 q 185 537 179 538 q 180 536 182 536 q 185 536 184 533 q 182 531 180 531 q 177 531 176 529 q 178 530 180 528 q 181 527 183 527 q 183 530 187 531 q 191 532 190 532 z m 156 531 q 160 531 160 537 q 159 537 158 538 q 158 538 156 537 q 157 535 156 534 q 156 533 156 531 z m 198 534 q 199 532 200 534 q 200 536 198 534 z m 212 515 q 210 514 210 515 q 211 516 209 516 q 209 514 210 513 q 212 512 212 510 q 216 511 217 509 q 218 507 218 504 q 219 501 220 498 q 220 495 223 495 q 223 501 225 503 q 222 506 226 510 q 229 514 229 517 q 224 518 222 521 q 221 524 218 526 q 218 520 215 520 q 213 521 213 522 q 213 523 211 523 q 209 521 209 520 q 211 519 212 520 q 212 520 214 520 q 216 519 215 517 q 214 515 212 515 z m 160 510 q 162 511 164 510 q 165 508 167 510 q 165 510 163 512 q 161 513 160 510 z m 229 502 q 227 504 227 502 q 227 500 229 502 z m 226 470 q 224 470 224 470 q 222 468 224 468 q 226 468 226 470 z m 179 463 q 180 467 178 465 q 175 463 174 465 q 174 463 179 463 z m 221 419 q 224 421 222 424 q 221 427 224 429 q 222 429 222 430 q 221 432 219 431 q 220 427 222 426 q 223 424 221 419 z m 212 421 q 212 422 213 423 q 214 424 212 424 q 213 423 212 422 q 210 422 212 421 z m 203 422 q 205 420 206 423 q 204 423 203 424 z m 211 403 q 208 401 208 399 q 209 397 208 394 q 210 395 212 394 q 214 394 218 394 q 218 398 220 398 q 221 398 223 396 q 224 394 223 394 q 222 394 222 392 q 224 394 226 397 q 227 400 229 402 q 227 402 226 403 q 226 404 224 403 q 222 402 224 401 q 225 400 223 399 q 221 401 220 402 q 218 402 219 404 l 215 404 q 216 401 214 401 q 212 401 211 403 z m 220 389 l 223 389 q 223 391 220 390 z m 166 362 q 167 362 168 362 q 168 363 169 363 l 169 365 l 166 365 z m 183 357 q 183 360 179 360 q 179 357 183 357 z m 171 349 q 173 350 174 350 q 175 349 177 349 q 177 352 180 350 q 183 348 182 352 q 178 352 178 354 q 176 352 173 354 q 170 355 169 354 q 172 351 171 349 z m 170 341 q 171 339 172 338 q 173 338 174 336 q 176 338 178 336 q 179 335 181 335 q 182 342 176 348 q 178 345 176 342 q 174 339 170 341 z m 201 344 q 201 346 200 348 q 199 349 197 347 q 199 346 199 344 q 199 343 201 344 z m 159 311 q 159 313 156 315 q 156 311 159 311 z m 229 302 q 228 304 229 304 q 230 304 230 306 q 229 306 228 307 q 227 308 226 306 q 228 307 228 305 q 227 303 229 302 z m 220 297 q 222 297 223 300 q 224 302 222 303 q 223 300 220 300 q 218 299 220 297 z m 213 284 q 214 286 216 288 q 217 289 218 291 q 216 290 216 292 q 216 293 214 292 q 212 290 211 288 q 210 286 213 284 z m 201 273 q 204 271 205 268 q 206 265 208 263 q 210 265 208 266 q 207 267 207 269 q 208 271 209 272 q 210 272 211 273 l 211 278 q 208 280 206 278 q 203 275 201 273 z m 180 276 q 178 274 180 274 q 182 274 180 276 z m 222 266 q 223 264 223 262 q 223 261 225 260 q 227 262 224 263 q 222 264 225 266 l 225 267 q 224 267 224 266 q 224 266 222 266 z m 180 263 q 179 263 178 264 q 178 265 176 265 q 176 263 178 262 q 180 261 180 263 z m 229 263 q 228 263 228 262 q 229 262 229 263 z m 600 248 q 600 251 602 252 q 605 252 605 255 l 602 255 q 602 253 600 252 q 598 250 600 248 z m 172 250 q 172 242 165 242 q 170 240 171 239 q 172 238 176 236 q 178 239 180 242 q 181 244 182 248 q 180 249 180 250 q 179 251 177 251 q 176 250 172 250 z m 220 240 q 215 243 217 246 q 216 248 214 248 q 213 247 212 248 q 210 244 214 241 q 217 238 220 240 z m 184 241 q 187 239 187 237 q 189 236 188 237 q 188 238 190 238 q 193 235 193 234 q 190 232 190 229 q 192 230 194 230 q 195 229 196 231 q 194 233 194 236 q 195 238 194 240 q 194 238 191 238 l 191 242 q 189 241 187 242 q 185 242 184 241 z m 598 234 q 597 237 600 238 q 603 240 600 242 q 600 240 598 238 q 596 236 598 234 z m 155 234 q 155 236 156 238 q 158 240 156 241 q 153 236 155 234 z m 166 233 q 164 234 166 236 q 167 237 165 237 q 165 237 162 237 q 161 234 163 232 q 165 231 166 233 z m 170 237 q 167 237 167 236 q 169 236 170 237 z m 181 237 q 180 233 182 234 q 184 236 181 237 z m 583 226 q 583 223 587 221 q 590 221 591 223 q 592 225 594 226 q 592 228 590 226 q 587 224 583 226 z m 164 226 q 164 227 163 227 q 162 227 162 226 q 164 226 164 226 z m 186 224 q 188 225 188 224 q 188 223 189 223 l 189 227 q 187 227 186 224 z m 198 224 q 199 227 195 227 q 195 224 198 224 z m 165 219 q 165 220 163 222 q 163 218 165 219 z m 598 217 q 599 218 600 220 q 600 221 598 222 q 599 220 598 219 q 596 218 598 217 z m 188 215 q 190 215 190 212 l 195 212 q 194 214 196 216 q 197 217 195 218 q 194 215 193 216 q 192 218 190 218 q 190 217 188 215 z m 188 205 q 191 204 191 202 q 191 200 189 199 q 193 199 194 202 q 195 204 197 206 q 195 208 192 208 q 189 207 188 205 z m 184 189 q 183 191 184 192 q 185 192 185 193 l 184 193 q 182 194 182 192 q 182 189 184 189 z m 175 191 q 175 187 177 187 q 178 188 179 190 q 180 191 178 192 q 177 191 175 191 z m 197 187 q 199 186 199 188 q 199 191 202 190 q 202 192 200 192 q 198 193 197 192 q 199 190 197 190 q 195 189 197 187 z m 150 189 q 151 190 154 189 q 156 188 158 189 q 156 189 156 190 q 156 192 154 192 q 154 190 152 191 q 149 192 150 189 z m 200 170 q 199 172 199 174 q 199 176 198 178 q 196 177 196 178 q 195 180 193 180 q 192 178 190 178 q 189 179 189 177 q 191 177 191 175 q 186 172 184 173 q 181 165 183 160 q 181 161 180 162 q 180 163 178 164 q 177 162 178 162 q 179 162 179 160 q 171 162 170 157 q 174 155 174 153 q 173 151 174 149 q 177 147 182 147 q 188 147 192 145 q 191 147 188 149 q 186 151 189 154 q 188 156 187 154 q 186 152 185 155 q 188 155 188 160 q 188 160 191 160 q 194 159 195 155 q 198 157 200 160 q 198 160 197 161 q 196 162 194 160 q 195 164 194 170 q 196 172 198 170 q 199 169 200 170 z m 207 175 q 209 173 208 172 q 208 171 209 169 l 212 175 q 209 177 207 175 z m 563 174 q 564 174 566 176 q 563 176 563 174 z m 150 169 q 155 168 156 164 q 157 159 162 161 q 160 163 164 164 q 168 165 166 169 q 164 169 164 168 q 163 168 162 168 q 162 164 160 164 l 157 164 q 156 166 158 167 q 159 168 157 172 q 154 174 153 172 q 152 171 150 169 z m 202 170 q 203 168 203 170 q 203 172 202 170 z m 198 164 l 197 164 z m 154 157 q 151 150 158 145 q 157 149 160 148 q 162 147 163 149 q 162 150 160 150 q 159 151 159 153 q 162 156 163 159 q 160 159 158 157 q 157 155 154 157 z m 202 146 q 204 146 206 148 q 208 149 206 151 q 205 149 204 148 q 203 148 202 146 z m 217 149 q 218 147 218 149 q 219 151 217 149 z m 165 148 l 165 146 q 167 145 168 147 q 168 149 166 149 q 166 148 165 148 z m 193 144 q 195 142 196 144 q 198 145 202 144 q 200 146 198 146 q 195 146 193 144 z m 209 143 q 209 139 211 140 q 209 142 211 143 q 213 144 211 146 q 209 144 210 144 q 211 143 209 143 z m 575 140 q 577 139 578 142 q 578 144 576 144 q 576 142 576 142 q 575 142 575 140 z m 205 134 q 212 134 212 137 q 207 137 208 141 l 205 141 q 203 136 205 134 z m 222 133 q 224 131 226 134 q 227 138 226 139 q 224 135 222 133 z m 152 137 q 154 135 154 137 q 154 139 152 137 z m 552 123 q 552 126 550 126 q 550 123 552 123 z m 179 113 q 185 113 184 115 q 180 117 179 113 z m 568 111 q 571 111 571 113 l 569 113 q 569 112 568 112 q 568 112 568 111 z m 565 103 q 568 102 568 104 q 569 107 565 103 z m 238 55 q 240 57 243 58 q 246 60 246 65 q 244 65 243 67 q 242 69 240 65 q 243 65 243 64 q 242 63 238 63 q 237 67 236 74 q 236 81 235 88 q 230 80 233 70 q 236 61 238 55 z m 274 55 q 277 52 281 54 q 281 57 278 58 q 276 60 274 59 q 275 59 275 57 q 275 56 274 55 z m 243 55 q 246 55 247 54 l 247 56 q 245 57 243 55 z m 249 52 q 250 49 250 46 q 249 43 251 42 q 252 43 254 43 q 256 43 256 46 q 251 45 252 48 q 254 52 258 53 q 255 52 256 54 q 256 57 253 56 q 253 54 249 52 z m 319 59 q 321 56 320 58 q 320 61 319 59 z m 334 59 l 333 59 z m 244 45 q 242 43 241 45 q 242 43 242 40 q 241 38 243 37 q 246 42 244 46 q 243 51 238 53 q 238 50 240 49 q 243 48 244 45 z m 316 53 q 317 55 318 54 q 319 52 320 53 q 322 57 318 56 q 314 55 316 53 z m 311 54 q 310 54 310 54 q 310 55 308 55 q 307 53 309 52 q 311 52 311 54 z m 272 47 q 272 49 273 48 q 274 48 275 49 q 273 50 272 49 q 270 48 272 47 z m 256 33 q 257 33 258 32 q 258 32 259 32 q 259 35 262 34 q 264 34 266 33 q 266 35 265 36 q 264 36 266 38 q 268 39 268 37 q 267 35 269 36 q 268 38 270 38 q 271 39 270 42 q 267 41 268 44 q 268 47 266 47 q 263 37 256 33 z m 298 47 q 299 49 300 48 q 301 48 302 50 q 299 49 298 50 q 298 52 296 51 q 295 50 298 47 z m 38 30 q 34 29 33 30 q 32 32 29 32 q 31 35 33 38 q 35 42 35 47 q 32 45 30 42 q 28 39 23 38 q 29 37 27 29 q 29 29 29 28 q 29 28 31 28 q 32 30 34 29 q 36 28 38 30 z m 460 40 q 465 38 464 42 q 464 45 462 47 q 462 43 460 40 z m 310 44 q 313 44 313 46 q 310 46 310 44 z m 245 33 l 247 33 q 248 35 246 35 q 244 35 244 33 z m 23 30 q 21 27 23 30 q 25 34 23 30 z m 23 26 q 27 26 26 28 l 23 28 z m 35 9 q 37 10 37 8 q 37 7 39 7 q 41 8 41 8 q 41 9 43 9 q 44 8 44 6 q 43 5 45 6 q 44 8 45 11 q 43 11 41 10 q 39 10 38 12 q 38 14 40 14 q 41 14 40 16 q 39 15 38 16 q 38 17 37 16 q 36 14 36 12 q 37 11 35 9 z"},"3":{"x_min":0,"x_max":637,"ha":637,"o":"m 506 328 q 506 326 504 326 q 503 325 502 326 q 502 328 506 328 z m 165 78 q 165 75 168 75 q 171 75 169 71 q 171 76 175 78 q 179 80 178 85 q 186 80 192 78 q 197 75 197 69 q 199 69 199 71 q 199 73 202 72 q 204 67 210 66 q 216 65 218 59 q 219 55 216 54 q 214 54 215 51 q 221 53 221 61 q 226 61 228 57 l 231 57 l 235 57 q 236 57 238 56 q 239 56 241 56 q 255 51 272 49 q 288 47 305 47 q 322 47 344 50 q 367 52 375 54 q 407 62 431 80 q 455 98 463 108 q 474 119 486 141 q 498 163 501 195 q 503 219 500 240 q 498 260 496 264 q 495 264 495 265 l 495 266 q 497 268 499 270 q 501 271 502 274 q 500 279 491 278 q 490 278 490 279 q 489 280 489 281 q 484 294 476 304 q 467 313 459 319 q 463 320 466 323 q 464 326 460 324 q 457 323 455 321 l 453 321 q 452 321 451 322 q 443 327 434 331 q 426 335 417 339 q 415 340 415 340 q 411 342 410 343 q 409 343 408 344 q 407 344 406 344 q 397 343 390 346 q 382 348 372 346 l 370 346 q 366 346 358 346 q 349 346 339 346 q 329 345 319 344 q 309 343 301 342 q 288 340 276 338 q 263 335 254 335 q 250 336 246 336 q 243 337 242 341 q 244 343 245 342 q 246 340 248 340 q 247 343 249 345 q 251 347 249 349 q 246 351 244 349 q 242 347 239 349 q 238 350 240 351 q 243 352 244 353 q 242 354 239 354 q 236 353 238 356 q 238 358 237 356 q 236 354 236 353 q 234 352 233 355 q 232 358 232 361 q 231 363 232 368 q 234 373 237 377 q 245 387 252 394 q 260 402 268 409 q 273 414 288 428 q 302 442 320 460 q 339 479 360 500 q 382 521 401 540 q 420 558 434 572 q 449 586 454 592 q 456 594 453 594 l 429 594 l 310 594 q 294 594 277 594 q 260 594 245 596 q 244 596 244 596 q 244 595 243 595 l 242 595 q 241 594 238 594 l 234 594 q 229 594 227 596 l 224 596 q 220 592 214 594 q 209 597 206 600 q 204 599 204 598 q 205 596 205 594 q 202 596 198 596 q 194 595 190 594 q 186 592 182 592 q 178 592 175 595 q 173 595 174 593 q 175 591 174 590 q 169 592 166 592 q 163 592 158 592 q 157 589 160 590 q 163 590 162 587 q 160 583 158 581 q 155 579 153 576 q 148 577 145 581 q 143 579 144 578 q 144 576 140 575 q 145 572 145 569 q 147 570 147 572 q 147 574 152 574 q 150 569 148 564 q 147 560 146 555 q 142 556 139 560 q 137 559 137 557 q 137 555 135 555 q 133 555 132 554 q 130 553 130 556 q 128 555 129 554 q 130 554 129 552 q 125 554 123 552 q 121 549 119 552 q 117 556 120 555 q 124 554 125 556 q 124 558 121 558 q 118 557 118 559 q 116 559 116 556 q 117 553 114 553 q 106 555 105 561 q 103 560 102 559 q 101 558 98 559 q 96 557 96 555 q 97 553 96 551 q 99 549 102 550 q 106 551 107 554 q 110 552 112 550 q 115 548 118 546 q 123 546 124 548 q 126 551 130 548 q 133 549 134 550 q 134 552 136 554 q 138 553 141 552 q 144 552 146 551 q 145 533 148 510 q 152 488 148 471 q 145 456 138 448 q 132 440 118 440 q 115 439 104 440 q 92 442 86 456 q 89 461 90 469 q 90 477 84 480 q 85 478 86 474 q 87 471 82 467 q 80 478 80 490 q 81 501 82 503 q 83 515 83 527 q 83 539 84 551 l 84 635 q 85 659 95 663 q 105 667 129 669 l 243 669 q 304 669 368 670 q 432 670 492 672 q 499 672 512 672 q 526 672 531 671 q 541 670 556 664 q 570 658 572 641 q 574 632 570 622 q 567 613 564 610 q 559 599 552 593 q 545 587 540 582 q 533 575 517 560 q 501 545 489 533 q 487 532 478 522 q 468 513 456 502 q 444 490 432 479 q 421 468 417 464 q 407 455 399 447 q 391 439 379 427 q 376 425 372 421 q 368 417 365 414 q 363 412 365 412 l 391 412 l 395 412 q 401 413 420 411 q 439 409 454 404 q 454 404 461 402 q 468 400 476 396 q 485 392 493 388 q 501 383 505 378 q 505 376 508 376 q 515 376 518 370 q 522 364 528 362 q 528 359 526 360 q 524 360 523 358 q 527 359 528 360 q 530 360 532 358 q 533 358 539 351 q 545 344 552 334 q 559 324 566 312 q 572 300 574 290 q 575 287 575 286 q 574 285 576 284 l 578 282 q 578 281 579 280 l 579 278 q 579 277 580 277 q 582 264 585 248 q 588 231 586 205 q 584 160 568 124 q 553 89 529 64 q 527 61 522 56 q 516 50 509 44 q 502 38 494 32 q 487 26 481 23 q 479 22 477 24 q 475 26 472 26 q 470 24 472 22 q 473 19 471 17 q 456 7 432 -2 q 409 -11 381 -16 q 364 -20 344 -22 q 323 -23 302 -22 q 281 -22 261 -20 q 241 -18 226 -14 q 213 -12 198 -7 q 183 -2 168 4 q 154 11 141 18 q 128 26 118 34 q 117 35 112 39 q 107 43 101 48 q 95 54 89 60 q 83 66 80 71 q 80 71 78 73 q 77 74 77 75 q 76 78 74 82 q 71 85 72 87 q 71 89 70 87 q 70 85 69 87 q 58 104 54 120 q 49 136 48 145 q 46 156 46 163 q 45 170 46 184 q 50 219 68 242 q 86 266 105 274 q 122 282 142 282 q 162 281 177 270 l 177 268 q 179 267 180 266 q 180 266 182 265 l 183 265 l 184 264 q 196 254 199 232 q 201 213 194 198 q 187 183 168 178 q 156 174 148 174 q 140 175 129 175 q 128 166 130 157 q 131 148 133 144 q 132 140 128 140 q 124 140 128 135 q 133 135 134 138 q 139 124 152 110 q 164 95 177 87 q 174 82 170 84 q 165 86 165 78 z m 331 665 q 330 663 334 663 q 337 663 337 665 q 335 664 334 666 q 332 667 331 665 z m 305 658 q 311 660 315 662 q 319 665 326 666 q 320 668 314 664 q 309 661 305 658 z m 448 654 q 453 654 452 652 q 450 650 450 648 q 450 647 453 644 q 452 649 454 650 q 456 651 457 654 q 454 652 452 656 q 450 659 448 654 z m 270 652 q 274 651 276 650 q 277 650 280 652 q 280 655 276 654 q 272 653 270 652 z m 211 642 q 213 640 213 638 q 211 638 211 636 q 211 635 209 636 q 206 635 206 638 q 206 642 204 640 q 203 638 204 636 q 205 633 203 631 q 207 628 213 628 q 221 635 234 637 q 247 639 256 646 q 249 646 242 646 q 236 645 230 647 q 231 645 233 644 q 235 643 233 639 q 227 636 223 644 q 224 646 226 646 q 227 646 227 648 q 222 651 218 648 q 213 645 211 642 z m 337 644 q 340 641 340 638 q 339 636 332 636 q 332 638 332 638 q 331 639 332 641 q 328 640 325 642 q 322 643 319 641 l 319 638 q 324 637 328 638 q 332 638 331 633 q 333 633 336 634 q 339 635 342 633 q 340 635 341 636 q 342 638 343 640 q 346 640 347 638 q 343 636 344 633 q 346 630 348 628 q 353 628 352 632 q 350 636 355 636 q 351 638 346 644 q 341 649 337 644 z m 571 644 q 570 645 567 646 q 564 646 563 644 q 569 642 571 644 z m 423 639 q 425 641 429 640 q 433 640 433 644 q 429 645 427 643 q 425 641 423 639 z m 553 638 l 553 642 q 552 641 550 642 q 548 643 549 641 q 550 641 550 640 q 551 639 553 638 z m 128 637 q 132 637 132 634 q 132 632 131 632 q 130 631 130 629 q 134 627 138 628 q 137 632 134 637 q 131 642 128 637 z m 424 632 l 424 636 l 420 636 q 419 632 424 632 z m 182 627 q 179 626 177 628 q 177 625 174 623 q 170 621 171 618 q 174 620 178 624 q 181 619 186 622 q 192 625 194 628 q 195 629 194 630 q 192 631 194 632 q 196 632 196 630 q 195 629 197 629 q 198 631 200 632 q 201 632 199 634 q 189 634 182 627 z m 487 629 q 488 631 486 632 q 485 633 484 631 q 486 631 486 630 q 485 629 487 629 z m 267 625 q 269 621 272 623 q 276 625 278 627 q 276 627 278 628 q 279 629 278 630 q 270 630 267 625 z m 320 623 q 322 622 322 620 q 321 618 323 618 q 322 624 326 628 q 322 628 320 623 z m 91 625 q 91 626 92 626 q 92 628 90 628 q 90 625 91 625 z m 344 625 q 344 626 345 626 q 346 626 346 628 q 344 628 343 626 q 342 625 344 625 z m 279 623 q 280 622 280 621 q 281 620 284 621 q 285 623 285 624 q 285 624 286 626 q 284 624 282 624 q 280 625 279 623 z m 92 619 q 92 620 94 622 q 92 622 92 623 q 91 624 89 624 q 87 622 92 619 z m 339 622 q 339 624 337 622 q 339 622 339 622 z m 329 618 q 329 622 327 622 q 325 618 329 618 z m 239 617 q 241 615 242 613 q 243 611 245 611 q 247 612 247 614 q 247 615 248 617 q 246 617 243 618 q 240 619 239 617 z m 414 618 q 409 617 403 616 q 397 614 390 614 q 395 612 400 610 q 404 607 408 603 q 407 609 412 610 q 416 610 419 607 q 420 610 420 613 q 418 614 417 613 q 416 612 414 613 z m 135 615 q 138 615 139 617 q 135 617 135 615 z m 128 613 q 129 612 130 612 q 132 612 132 614 q 131 615 130 615 q 128 615 128 613 z m 327 611 q 329 612 328 614 q 326 616 324 614 q 325 613 325 612 q 325 611 327 611 z m 140 605 q 142 605 142 606 q 143 608 145 607 q 145 609 144 610 q 144 612 145 614 l 142 614 q 140 610 140 605 z m 89 599 q 87 594 89 589 q 91 584 86 580 q 88 580 88 578 q 89 576 91 576 q 103 583 117 587 q 131 591 139 602 q 133 600 130 603 q 128 606 126 610 q 125 608 127 601 q 126 600 123 598 q 121 600 120 602 q 118 603 116 603 q 114 601 112 598 q 111 595 108 593 q 104 599 103 593 q 107 593 107 592 q 104 590 102 586 q 101 583 96 583 q 96 585 94 586 q 92 587 92 590 q 93 592 94 593 q 95 594 96 596 q 94 598 92 596 q 91 594 89 596 q 89 597 90 597 q 91 597 89 599 z m 92 597 q 94 599 92 600 q 90 602 89 602 q 90 601 90 600 q 90 598 92 597 z m 102 602 q 101 606 98 606 q 95 606 92 607 q 94 605 96 604 q 98 604 102 602 z m 305 597 q 304 599 306 598 q 308 597 308 599 q 306 600 304 599 q 303 598 305 597 z m 155 590 l 153 590 q 152 590 152 589 q 150 587 153 588 q 156 589 155 590 z m 151 585 q 149 585 149 586 q 149 587 147 588 q 145 586 147 584 q 149 583 151 585 z m 127 568 q 127 572 125 571 q 125 568 127 568 z m 135 563 q 135 565 137 564 q 139 563 140 565 q 140 566 135 568 q 133 564 135 563 z m 378 483 q 375 486 377 493 l 374 493 q 375 490 373 486 q 376 487 376 484 q 376 482 378 483 z m 419 483 q 420 486 418 488 q 417 490 415 488 q 417 488 417 486 q 417 484 419 483 z m 378 481 l 378 478 l 386 478 q 386 480 386 480 q 387 481 385 482 q 383 478 378 481 z m 480 372 q 481 371 484 370 q 486 370 487 372 q 485 373 482 374 q 480 375 480 372 z m 370 361 q 368 364 369 367 q 370 370 368 371 q 367 369 367 365 q 367 361 370 361 z m 336 362 l 339 362 q 340 363 340 366 q 335 366 336 362 z m 332 356 q 328 356 327 357 q 329 352 332 351 q 334 353 334 355 q 335 357 337 359 q 335 360 334 362 q 334 363 332 363 z m 497 358 q 499 358 502 358 q 504 357 508 356 q 507 361 503 360 q 499 360 497 358 z m 247 355 q 246 356 247 358 q 248 359 246 359 q 245 358 245 356 q 245 355 247 355 z m 321 357 l 321 355 l 322 355 q 324 357 321 358 z m 245 351 q 247 349 247 352 q 247 354 246 354 q 245 353 245 351 z m 308 352 l 310 352 q 311 354 309 354 q 307 354 307 353 q 308 353 308 352 z m 518 340 q 520 340 522 342 q 523 343 521 344 q 521 342 520 342 q 519 342 518 340 z m 496 329 q 495 327 496 326 q 498 325 496 324 q 494 323 494 325 q 495 327 493 327 q 493 322 489 320 q 485 319 482 317 q 484 316 484 314 q 484 313 486 313 q 486 318 492 317 q 497 316 500 316 q 500 311 499 309 q 502 308 502 310 q 503 311 505 311 q 505 313 503 314 q 501 314 502 317 q 503 321 508 322 q 514 322 516 318 q 518 319 518 324 q 516 324 514 324 q 513 323 513 325 q 512 330 515 331 q 518 332 517 337 q 511 341 507 336 q 503 330 496 329 z m 435 335 q 438 335 438 338 l 435 338 z m 440 335 l 443 335 q 443 337 440 337 z m 496 333 q 496 334 496 334 q 497 334 497 336 l 494 336 q 494 333 496 333 z m 518 326 q 520 326 522 328 q 520 328 520 330 q 520 331 518 330 q 517 328 518 328 q 518 327 518 326 z m 524 328 q 524 325 526 323 q 528 327 528 328 q 528 328 524 328 z m 539 316 q 540 316 540 316 q 540 315 542 315 q 541 317 542 318 q 542 320 540 319 q 541 317 540 318 q 539 318 539 316 z m 506 311 q 505 309 506 309 q 507 309 507 307 q 513 307 514 309 q 513 315 506 311 z m 546 311 q 546 313 544 313 q 542 311 546 311 z m 484 303 q 486 303 486 306 q 486 308 488 307 q 493 302 496 294 q 499 299 497 306 q 495 313 487 312 q 487 308 486 307 q 484 306 484 303 z m 529 307 q 534 309 535 312 l 528 312 q 527 310 528 310 q 530 309 529 307 z m 520 304 q 522 304 522 305 q 522 306 524 305 q 523 307 524 308 q 524 309 522 309 q 522 307 521 306 q 520 306 520 304 z m 549 297 q 549 300 550 302 q 552 303 551 306 q 546 306 546 302 q 547 299 549 297 z m 525 292 q 529 294 534 291 q 532 298 539 296 q 537 302 532 298 q 526 294 525 292 z m 552 290 q 555 286 554 290 q 554 294 552 290 z m 544 284 q 546 285 545 286 q 544 287 543 287 q 541 286 542 285 q 542 284 544 284 z m 554 284 q 554 281 556 282 q 558 283 559 283 q 559 286 559 286 q 557 283 554 284 z m 540 282 q 538 280 540 280 q 540 281 541 281 q 542 281 542 282 q 540 282 540 282 q 541 283 541 285 q 538 285 538 284 q 540 284 540 282 z m 552 279 q 551 277 554 276 q 557 276 557 278 q 556 278 556 280 q 554 280 554 279 q 554 278 552 279 z m 540 276 q 542 275 544 276 q 545 278 543 279 q 543 277 541 278 q 539 278 540 276 z m 559 266 q 562 266 563 267 q 561 268 560 268 q 558 268 557 270 q 556 268 559 266 z m 549 265 q 549 266 547 268 q 547 264 549 265 z m 564 262 l 559 262 q 559 260 562 260 q 564 260 564 262 z m 548 254 q 549 255 548 258 q 548 260 546 260 q 544 258 544 256 q 545 254 548 254 z m 559 249 q 559 252 556 252 q 553 253 553 256 q 553 257 554 256 q 556 256 556 258 q 555 258 553 258 q 551 259 551 257 q 554 250 559 249 z m 535 250 q 537 248 538 252 q 538 255 536 255 q 534 251 535 250 z m 531 250 q 532 248 532 250 q 533 253 531 250 z m 539 249 q 543 247 540 244 q 538 241 539 237 q 543 235 544 238 q 541 239 542 244 q 542 248 546 248 q 547 251 544 250 q 541 250 539 249 z m 562 244 q 562 245 559 248 q 559 243 562 244 z m 132 233 q 134 231 136 233 q 138 235 140 235 q 139 238 140 242 q 142 246 139 247 q 137 244 134 240 q 130 237 132 233 z m 526 245 q 525 244 525 242 q 525 241 523 240 q 526 239 526 238 q 527 236 531 237 q 532 239 532 242 q 533 245 530 246 q 530 244 528 244 q 527 244 526 245 z m 544 239 q 546 238 546 240 q 546 243 544 241 z m 563 238 q 564 237 565 237 q 566 237 566 235 q 564 234 564 233 q 563 232 561 231 q 563 229 566 230 q 568 232 570 232 q 570 235 568 238 q 565 241 563 238 z m 512 230 q 515 228 518 229 q 520 230 523 231 l 523 233 q 522 233 522 234 q 522 234 521 234 q 520 231 516 232 q 513 232 512 230 z m 123 226 q 125 226 126 227 q 126 228 128 229 q 127 230 127 231 q 127 232 126 233 q 125 231 123 230 q 121 229 123 226 z m 539 228 l 542 228 q 543 229 542 231 q 541 233 539 233 q 534 230 539 228 z m 570 228 q 572 226 572 227 q 572 228 574 228 q 574 231 572 231 q 572 230 571 230 q 570 230 570 228 z m 107 227 q 108 230 104 230 q 103 227 107 227 z m 531 222 q 536 220 538 227 q 535 227 534 225 q 533 223 531 222 z m 558 222 q 560 221 560 224 q 560 226 559 225 q 557 223 558 222 z m 541 220 q 543 217 543 220 q 543 222 541 220 z m 547 217 q 548 219 546 219 q 543 219 544 218 q 545 218 545 218 q 545 217 547 217 z m 517 213 q 524 213 524 218 l 522 218 q 523 215 520 215 q 517 215 517 213 z m 563 216 q 565 216 565 218 q 562 218 563 216 z m 574 216 q 576 216 579 216 q 582 215 582 218 q 579 217 577 218 q 575 218 574 216 z m 569 212 q 569 214 567 214 q 565 213 564 214 q 563 212 569 212 z m 88 209 q 92 211 93 213 q 90 213 88 209 z m 111 209 q 115 209 115 210 q 113 210 114 212 q 115 214 113 213 q 113 211 112 210 q 111 210 111 209 z m 104 207 q 108 207 108 208 q 106 208 106 209 q 106 210 104 209 z m 574 198 q 578 198 578 202 q 576 202 576 201 q 576 200 574 199 q 574 204 572 200 q 574 200 574 198 z m 520 192 q 522 191 522 190 q 522 188 524 190 q 525 192 523 193 q 521 194 520 192 z m 130 183 q 131 184 135 186 q 135 189 134 189 q 134 187 132 186 q 130 186 130 183 z m 565 183 l 570 183 q 570 184 570 185 q 571 186 571 188 q 569 190 568 189 q 567 187 567 186 q 567 184 565 183 z m 517 183 q 517 185 518 185 q 518 185 518 186 q 517 186 516 187 q 516 184 517 183 z m 535 183 l 537 183 q 537 184 538 184 q 538 184 538 185 q 537 185 537 186 q 537 186 535 186 z m 90 181 q 90 185 87 185 q 87 181 90 181 z m 564 182 q 564 183 560 185 q 560 182 564 182 z m 105 178 q 106 181 104 181 q 103 181 104 183 q 102 182 96 183 q 91 184 93 183 q 95 179 99 180 q 103 180 105 178 z m 506 175 q 508 175 508 174 q 508 172 510 172 q 512 174 514 174 q 516 174 519 175 q 516 177 516 179 q 516 181 515 183 q 513 181 510 180 q 506 179 506 175 z m 522 177 q 523 178 522 179 q 521 180 519 180 q 520 179 520 178 q 520 177 522 177 z m 552 178 q 551 175 554 174 q 556 174 555 170 q 557 171 558 171 q 560 171 561 173 q 561 175 560 175 q 558 175 559 178 q 556 176 555 178 q 554 180 552 178 z m 107 177 q 108 175 110 176 q 111 176 110 178 q 107 179 107 177 z m 530 172 l 534 172 q 533 174 532 174 q 530 174 532 178 q 530 177 530 178 q 529 179 527 178 q 528 176 529 175 q 530 174 530 172 z m 98 166 q 98 171 94 173 q 95 168 98 166 z m 99 160 q 103 162 105 166 q 107 169 109 171 q 107 171 106 170 q 105 170 101 171 q 103 168 101 166 q 99 163 97 164 q 98 163 99 162 q 100 162 99 160 z m 79 168 q 80 170 79 170 q 78 170 77 171 q 77 168 79 168 z m 518 165 l 518 168 q 516 170 514 168 q 513 167 511 169 q 510 166 513 166 q 516 166 518 165 z m 115 165 q 116 167 114 168 q 113 169 112 167 q 114 165 115 165 z m 76 148 q 80 148 80 152 q 76 151 76 154 q 76 156 72 156 q 72 153 75 153 q 78 153 76 148 z m 79 154 q 80 151 82 154 q 83 158 80 155 q 79 155 79 154 z m 533 149 q 535 149 536 150 q 538 151 536 152 q 536 150 534 150 q 533 151 533 149 z m 538 148 q 539 146 542 146 q 545 146 548 146 q 547 148 548 148 q 549 147 549 149 q 546 147 543 148 q 540 150 538 148 z m 564 147 q 566 149 563 149 q 563 146 564 147 z m 109 141 q 111 139 112 142 q 112 144 114 143 q 116 141 118 141 q 117 144 123 144 q 121 146 115 145 q 109 144 109 141 z m 86 142 q 87 142 87 142 q 87 141 88 141 q 88 144 86 143 z m 89 138 l 90 138 q 91 140 89 140 q 87 141 88 139 q 89 139 89 138 z m 539 139 q 539 137 540 136 q 541 135 542 133 q 544 134 545 136 q 546 138 544 140 q 544 138 542 139 q 541 140 539 139 z m 58 134 q 58 132 61 129 q 62 134 68 136 q 69 138 68 138 q 66 138 65 139 q 65 134 58 134 z m 549 136 l 549 139 q 547 139 547 138 q 549 139 548 136 q 547 134 549 136 z m 525 133 q 526 137 520 137 q 521 133 525 133 z m 88 125 q 88 123 90 124 q 93 125 94 123 q 94 126 94 126 q 97 125 98 126 q 99 127 101 125 q 102 128 104 130 q 105 131 105 134 q 101 134 95 136 q 97 129 94 128 q 90 127 88 125 z m 531 128 q 535 128 533 135 l 530 135 q 530 130 531 128 z m 515 127 q 518 125 517 121 q 519 124 524 123 q 528 122 531 120 q 531 124 532 126 q 530 126 526 125 q 521 124 519 127 q 520 128 520 128 q 520 129 521 130 q 519 132 517 131 q 515 130 515 127 z m 129 126 q 129 128 128 128 q 127 128 126 129 q 126 126 129 126 z m 86 116 q 88 115 88 118 q 88 121 87 121 q 87 119 86 118 q 85 118 86 116 z m 527 116 q 529 113 528 110 q 526 106 524 104 q 527 104 528 105 q 528 106 530 104 q 532 108 534 110 q 537 113 536 117 q 534 118 534 116 q 534 114 532 115 q 529 115 529 118 q 530 118 530 118 q 530 119 529 119 q 530 117 528 118 q 527 118 527 116 z m 78 116 q 81 117 81 118 l 79 118 q 79 117 78 116 z m 547 113 q 549 114 550 114 q 552 114 553 116 q 552 118 550 118 q 548 117 546 117 q 545 115 546 115 q 547 115 547 113 z m 87 107 q 89 109 90 112 q 91 115 89 116 q 88 114 86 112 q 85 109 87 107 z m 492 112 q 491 114 492 114 q 493 114 492 116 q 490 116 490 114 q 490 113 492 112 z m 483 110 l 487 110 q 486 112 487 114 q 488 115 487 115 q 486 113 485 112 q 484 112 483 110 z m 138 109 q 142 108 140 112 q 139 115 137 113 q 139 113 139 112 q 139 110 138 109 z m 109 111 q 114 109 114 112 q 112 114 110 114 q 109 113 109 111 z m 116 110 q 117 112 118 112 q 120 111 120 113 q 119 112 116 112 q 114 111 116 110 z m 109 111 q 108 111 108 112 q 107 112 106 112 q 105 110 107 110 q 109 110 109 111 z m 102 103 q 101 102 100 102 q 99 103 99 101 q 101 101 99 100 q 97 98 99 97 q 107 103 102 111 q 100 110 99 110 q 98 110 97 109 q 98 109 98 108 q 99 107 99 107 q 99 109 102 109 q 103 107 102 106 q 102 105 102 103 z m 62 118 l 65 118 l 65 120 l 64 120 q 62 118 62 118 z m 94 106 q 93 106 92 104 q 92 102 94 102 l 94 104 q 96 104 96 104 q 96 103 98 103 q 98 104 100 105 q 101 106 99 106 q 98 104 97 106 q 96 107 94 106 z m 69 107 q 70 107 70 106 q 70 106 71 106 q 70 108 70 108 q 71 109 69 109 z m 118 103 q 118 106 118 106 q 118 105 117 104 q 116 104 118 103 z m 113 102 q 115 102 114 103 q 114 104 115 105 q 113 105 113 102 z m 115 98 q 120 98 120 99 q 117 98 117 100 q 117 102 115 102 z m 62 112 q 64 112 66 114 q 67 115 65 115 q 65 114 64 114 q 62 114 62 112 z m 521 98 q 521 100 524 100 q 526 99 525 101 q 523 103 521 102 q 519 100 521 98 z m 528 90 q 530 89 530 90 q 531 92 533 91 q 535 98 529 99 q 529 97 530 94 q 531 92 528 90 z m 65 98 q 68 98 68 99 q 67 100 69 101 q 67 101 67 100 q 67 100 65 98 z m 125 92 q 123 92 123 92 q 123 91 122 91 q 120 91 120 92 q 121 94 120 94 q 119 93 119 92 q 119 91 118 90 q 122 87 124 90 q 125 92 126 96 q 124 96 124 98 q 124 99 122 98 q 121 95 123 94 q 125 94 125 92 z m 487 95 q 490 94 491 97 q 487 97 487 95 z m 470 90 q 469 88 470 86 q 472 85 468 84 q 465 86 468 89 q 462 91 461 87 q 466 84 466 82 q 466 80 463 80 q 464 77 470 75 q 470 81 476 80 q 478 82 478 90 q 476 91 474 90 q 472 90 470 90 z m 520 87 q 520 90 518 90 q 515 89 513 89 q 517 87 520 87 z m 505 88 q 504 89 502 90 q 500 90 499 88 q 503 86 505 88 z m 522 83 q 523 85 525 86 q 527 88 529 86 q 528 87 528 89 q 522 89 522 83 z m 461 82 q 462 84 460 84 q 459 85 460 87 q 457 87 457 86 q 459 86 459 84 q 459 82 461 82 z m 94 81 q 96 77 99 76 q 99 79 102 79 q 102 80 100 84 q 98 84 97 83 q 96 82 94 81 z m 135 70 q 137 70 138 71 q 138 72 140 72 q 138 80 133 80 q 134 78 135 76 q 136 75 135 70 z m 508 79 q 507 79 506 80 q 506 80 505 80 q 504 78 506 78 q 509 77 508 79 z m 509 77 q 510 77 512 79 q 511 79 509 77 z m 104 75 q 103 76 103 76 q 103 77 102 78 q 102 74 104 75 z m 492 66 q 496 70 495 72 q 491 73 490 70 q 490 66 492 66 z m 483 66 q 486 64 490 66 q 488 66 486 68 q 483 69 483 66 z m 445 55 q 448 59 445 62 q 442 66 437 66 q 434 62 438 60 q 442 57 445 55 z m 478 62 q 479 64 478 65 q 476 66 475 64 q 476 64 476 63 q 476 62 478 62 z m 205 64 q 203 64 204 66 q 204 68 202 67 q 200 67 202 64 q 204 62 205 64 z m 181 54 q 187 54 187 59 q 185 61 182 60 q 180 58 181 54 z m 203 61 q 205 60 205 60 q 206 62 204 62 q 203 63 203 61 z m 209 61 q 211 61 212 60 q 212 58 214 57 q 213 59 212 62 q 210 64 209 61 z m 178 47 q 178 48 180 48 q 180 53 177 54 q 174 54 171 56 q 174 53 178 47 z m 361 43 q 363 42 364 41 q 364 40 366 38 l 366 46 q 364 45 362 45 q 361 45 361 43 z m 443 41 q 444 46 440 46 q 435 45 431 45 q 433 41 443 41 z m 206 41 q 210 41 209 43 l 206 43 z m 448 37 q 451 36 452 36 q 454 37 457 36 q 456 38 454 40 q 453 41 451 43 q 451 41 450 40 q 448 39 448 37 z m 399 30 q 399 28 401 26 q 403 23 405 26 q 402 26 404 28 q 405 29 407 28 l 407 33 q 405 32 403 32 q 401 31 399 30 z m 394 29 q 398 29 397 31 l 394 31 z m 418 25 q 420 27 424 26 q 427 25 428 28 q 426 26 422 28 q 418 30 418 25 z m 430 26 q 433 26 433 28 q 432 29 430 28 q 429 28 430 26 z m 406 27 q 406 25 408 24 q 410 23 410 25 q 409 26 408 28 q 408 29 406 27 z m 362 16 q 364 14 364 14 q 367 14 368 17 q 370 20 368 23 q 363 24 363 21 q 363 18 362 16 z m 406 16 q 408 16 408 16 q 408 17 410 17 q 411 19 408 19 q 405 19 406 16 z m 374 0 q 378 0 378 6 q 373 9 371 6 q 369 2 374 0 z m 367 -11 q 369 -11 370 -10 q 370 -8 372 -8 q 370 -6 370 -4 q 370 -1 368 0 q 369 -3 367 -5 q 365 -7 367 -11 z m 234 348 q 238 351 238 347 q 239 343 242 342 q 240 341 237 343 q 234 345 234 348 z"},";":{"x_min":0,"x_max":273,"ha":273,"o":"m 73 364 q 73 366 70 365 q 67 364 65 367 q 60 385 64 398 q 68 410 75 421 q 83 432 96 439 q 109 446 125 446 q 142 445 148 442 q 155 438 163 433 q 178 421 184 404 q 191 387 186 368 q 182 352 174 343 q 167 334 156 328 q 146 322 139 321 q 132 320 120 320 q 109 321 102 324 q 94 327 86 333 q 79 339 76 346 q 74 353 69 360 q 69 362 70 362 q 72 362 73 364 z m 86 350 q 86 351 86 351 q 85 351 85 350 q 86 350 86 350 z m 85 346 q 85 343 86 342 q 88 342 90 341 q 90 343 91 344 q 92 345 92 347 q 90 346 89 345 q 88 344 85 346 z m 85 341 q 83 341 83 340 q 85 340 85 341 z m 103 330 q 104 328 104 330 q 105 332 103 330 z m 183 12 q 183 10 179 10 q 179 12 180 13 q 182 14 183 12 z m 75 4 q 78 4 78 2 q 79 0 82 1 q 82 -1 83 -2 q 84 -3 83 -5 l 78 -5 q 75 -2 75 4 z m 105 -186 q 95 -186 90 -182 q 87 -179 85 -176 q 83 -172 84 -165 q 85 -159 91 -150 q 97 -140 105 -129 q 113 -119 121 -106 q 129 -92 136 -78 q 144 -64 146 -50 q 149 -35 146 -27 q 143 -20 135 -19 l 134 -19 q 132 -19 132 -18 q 128 -16 125 -18 q 122 -21 117 -19 l 116 -18 l 115 -18 q 108 -20 106 -19 q 97 -19 92 -14 q 88 -12 88 -10 q 87 -8 86 -5 q 90 -6 94 -6 q 99 -7 104 -5 q 104 -2 100 -3 q 96 -4 97 1 q 95 0 96 -2 q 96 -3 94 -5 q 91 -3 88 0 q 86 4 84 7 q 86 10 89 9 q 86 11 84 10 q 81 9 76 10 q 75 13 74 15 q 74 17 72 20 q 74 23 77 26 q 80 29 83 26 q 88 31 91 33 q 89 33 86 34 q 83 36 80 38 q 77 33 72 29 q 67 25 62 22 q 61 17 63 17 q 65 17 67 16 q 64 13 65 11 q 66 9 67 5 q 62 10 60 17 q 59 24 58 30 q 56 47 60 60 q 64 72 69 79 q 91 107 122 107 q 136 108 148 106 q 159 103 171 93 q 183 85 188 76 q 194 66 200 52 q 203 43 205 33 q 207 23 207 10 q 206 -13 205 -24 q 204 -34 199 -51 q 195 -66 189 -80 q 183 -93 179 -101 q 161 -133 148 -152 q 134 -170 123 -178 q 118 -181 114 -183 q 111 -185 105 -186 z m 194 32 q 195 32 197 32 q 199 31 199 32 q 196 34 199 36 q 202 37 202 40 q 199 43 196 40 q 193 37 194 32 z m 182 14 q 180 14 180 16 q 179 18 177 16 q 179 14 176 12 q 173 9 175 6 q 176 8 178 8 q 181 8 181 5 q 187 7 188 14 q 188 21 195 22 q 193 24 195 26 q 197 27 195 29 l 191 29 q 189 26 188 20 q 187 15 182 14 z m 111 18 q 111 19 109 21 q 109 18 111 18 z m 107 7 q 105 2 108 0 q 110 -1 107 -5 l 113 -5 q 113 -2 114 0 q 116 1 115 4 q 113 4 111 6 q 112 8 114 8 q 115 9 117 11 q 116 12 116 14 q 116 15 114 15 q 114 11 112 10 q 109 9 107 7 z m 165 -1 q 167 -1 169 -2 q 171 -3 172 -1 q 170 0 172 2 q 169 2 168 1 q 167 0 165 -1 z m 171 -8 q 172 -9 174 -8 q 176 -7 176 -5 q 171 -5 171 -8 z m 195 -7 q 196 -5 192 -5 q 192 -9 195 -7 z m 179 -12 l 177 -12 z m 180 -15 q 181 -17 182 -15 q 182 -13 180 -15 z m 149 -13 l 152 -13 q 152 -9 151 -9 q 151 -11 150 -11 q 149 -11 149 -13 z m 188 -24 q 191 -24 191 -23 q 188 -23 188 -24 z m 147 -17 q 146 -17 146 -18 q 147 -18 147 -17 z m 176 -87 q 177 -89 178 -87 q 178 -85 176 -87 z m 143 -87 q 144 -89 144 -86 q 144 -84 143 -87 z m 146 -101 q 142 -101 142 -98 q 141 -98 139 -98 q 137 -97 138 -99 q 138 -101 140 -100 q 141 -98 142 -100 q 141 -103 140 -102 q 138 -100 137 -102 q 142 -103 142 -106 q 141 -108 145 -109 q 148 -105 148 -97 q 147 -97 145 -96 q 143 -96 143 -98 q 144 -98 146 -98 q 148 -99 146 -101 z m 144 -114 q 145 -117 145 -114 q 145 -112 144 -114 z m 124 -132 q 125 -133 127 -131 q 124 -131 124 -132 z m 107 -140 q 109 -141 111 -142 q 113 -143 114 -140 q 112 -140 112 -138 q 112 -137 110 -137 q 109 -138 108 -138 q 107 -138 107 -140 z m 101 -148 q 105 -148 105 -146 q 104 -146 104 -145 q 103 -144 101 -144 z m 128 -143 q 128 -145 130 -146 q 132 -148 134 -146 q 132 -145 134 -144 q 135 -143 133 -142 q 131 -142 130 -142 q 130 -143 128 -143 z m 94 -155 q 96 -155 100 -154 q 103 -153 105 -151 q 100 -152 98 -150 q 98 -152 96 -152 q 94 -153 94 -155 z m 111 -155 q 110 -154 105 -154 q 104 -157 108 -157 q 111 -157 111 -155 z m 112 -157 q 114 -157 114 -160 q 119 -157 121 -162 q 121 -161 122 -161 q 124 -159 121 -157 q 118 -155 116 -153 q 112 -155 112 -157 z m 97 -161 q 95 -163 95 -162 q 97 -162 97 -161 z m 106 -171 q 108 -169 112 -169 q 115 -169 117 -167 q 113 -166 111 -166 q 109 -167 105 -165 q 103 -167 104 -168 q 106 -168 106 -171 z"},"J":{"x_min":0,"x_max":619,"ha":619,"o":"m 211 7 q 213 7 213 5 l 211 5 z m 439 524 q 437 526 434 528 q 430 529 427 531 q 426 540 426 548 q 425 557 423 567 q 416 594 402 601 q 389 608 368 608 q 368 608 364 608 q 359 607 354 606 q 349 605 344 604 q 340 604 339 604 q 330 602 321 604 q 311 606 304 614 q 296 622 296 636 q 296 638 300 638 q 304 639 304 641 q 304 646 302 648 q 299 651 301 657 q 314 675 354 670 q 359 670 361 667 q 363 667 364 668 q 364 670 366 670 q 380 667 397 666 q 414 664 428 661 q 461 657 498 660 q 536 664 565 668 q 586 671 594 672 q 601 672 612 668 q 613 667 617 667 l 622 667 q 624 667 624 664 q 625 661 630 663 q 632 663 632 660 q 633 656 637 654 q 641 647 641 642 q 641 637 641 630 q 640 621 637 616 q 634 611 630 609 q 610 599 600 609 q 599 608 600 606 q 600 605 598 604 q 594 604 592 604 q 591 605 587 605 q 584 607 582 610 q 580 613 575 614 q 573 610 576 610 q 580 611 580 607 q 563 609 554 608 q 544 607 535 602 q 527 597 524 592 q 520 586 518 581 q 517 579 516 574 q 514 570 513 568 q 509 551 510 542 q 510 533 509 520 l 509 514 q 509 507 510 486 q 510 466 510 441 q 510 416 510 390 q 510 365 510 349 q 510 332 509 316 q 508 301 509 284 q 509 282 508 281 q 507 280 506 278 q 509 273 508 263 q 508 253 506 246 q 505 245 505 241 q 506 239 506 238 q 507 238 508 236 q 507 217 505 196 q 503 176 501 161 q 497 131 486 107 q 474 83 460 66 q 452 57 440 44 q 428 32 412 21 q 389 5 361 -6 q 333 -17 303 -20 q 260 -26 222 -24 q 184 -21 139 -3 q 126 3 113 10 q 100 18 90 26 q 72 40 58 56 q 43 72 32 96 q 34 102 30 106 q 25 111 27 120 q 21 128 20 140 q 18 153 18 167 q 18 178 20 200 q 22 221 33 243 q 43 263 56 278 q 69 292 84 301 q 98 310 111 315 q 124 320 134 321 q 152 326 170 324 q 188 321 201 316 q 222 308 235 296 q 248 284 255 262 l 255 253 q 255 248 255 242 q 255 237 256 232 q 257 232 257 230 q 257 227 256 226 q 254 214 248 204 q 241 195 233 188 q 221 179 208 179 q 196 179 185 183 q 171 188 164 194 q 156 199 153 214 q 152 224 154 230 q 155 237 158 244 q 160 247 164 248 q 167 249 164 251 q 162 253 154 254 q 146 254 142 253 q 134 250 130 246 q 125 243 116 233 q 108 222 104 212 q 100 203 98 188 q 96 177 97 170 q 98 162 100 151 q 98 149 94 150 q 91 152 89 151 q 89 147 93 148 q 97 149 99 148 q 101 144 102 140 q 104 136 106 131 q 111 120 116 113 q 120 106 128 96 q 152 70 181 60 q 210 51 226 50 q 234 49 243 48 q 252 48 260 48 q 258 44 256 45 q 254 46 250 44 q 252 41 254 42 q 257 43 258 38 q 260 38 260 40 q 261 41 263 39 q 260 41 262 43 q 264 45 263 48 q 266 49 269 48 q 272 47 274 49 q 324 52 360 77 q 374 87 388 102 q 401 116 410 143 q 418 162 420 186 q 422 211 424 236 q 425 251 426 280 q 426 309 426 342 q 427 374 427 404 q 427 433 427 450 q 426 470 426 480 q 427 489 427 503 q 427 506 430 507 q 432 508 434 510 q 436 513 436 518 q 435 522 439 524 z m 264 43 q 268 41 270 42 q 273 43 275 41 q 274 43 275 43 q 276 43 276 45 q 273 45 270 45 q 266 45 264 43 z m 533 641 q 535 639 538 637 q 541 635 543 633 q 549 636 552 632 q 556 628 559 629 q 555 631 552 637 q 550 643 544 641 q 542 645 534 651 q 532 649 532 646 q 533 643 533 641 z m 444 646 q 447 646 446 643 q 446 640 446 638 q 448 637 450 639 q 452 641 454 642 q 451 647 446 650 q 446 648 444 648 q 443 648 444 646 z m 633 635 q 631 635 631 637 q 631 639 630 640 q 628 638 630 636 q 631 633 633 635 z m 529 615 q 530 616 530 619 q 526 617 526 619 q 525 621 523 622 q 524 619 526 618 q 527 617 529 615 z m 536 614 q 537 615 536 616 q 536 618 534 618 q 534 614 536 614 z m 392 615 q 391 615 391 616 q 391 616 390 616 q 388 615 390 614 q 392 613 392 615 z m 448 607 q 450 606 450 608 q 450 611 448 610 z m 503 573 q 505 574 504 576 q 502 577 500 575 q 502 575 502 574 q 501 573 503 573 z m 475 560 q 477 560 476 558 q 475 556 477 556 q 476 561 480 562 q 483 562 486 563 q 486 564 481 567 q 477 561 475 560 z m 452 555 q 453 555 455 557 q 453 557 454 558 q 454 560 453 560 q 453 558 452 558 q 451 557 452 555 z m 470 556 q 468 555 468 555 q 467 553 469 554 q 471 555 470 556 z m 500 551 q 499 555 501 554 q 503 553 504 552 q 504 558 497 556 q 497 554 500 551 z m 455 546 q 454 549 456 548 q 458 548 459 550 q 457 550 456 550 q 455 551 453 551 q 453 546 455 546 z m 466 546 q 468 546 468 546 q 468 550 468 550 q 468 548 466 548 q 465 548 466 546 z m 479 546 q 479 542 480 546 q 481 549 479 546 z m 451 525 l 455 525 q 455 528 453 528 q 451 527 451 525 z m 488 521 q 490 524 487 525 q 484 526 482 528 q 486 523 488 521 z m 474 514 q 477 515 477 516 q 474 516 474 514 z m 496 492 q 498 495 496 496 q 497 494 496 494 q 494 493 496 492 z m 495 485 q 495 487 496 488 q 496 490 495 491 l 495 484 q 496 483 495 485 z m 466 465 q 468 470 464 471 q 461 472 459 474 q 459 470 462 468 q 464 467 466 465 z m 499 451 q 500 448 500 450 q 500 453 499 451 z m 454 447 q 457 445 456 444 q 454 443 453 441 q 455 441 456 440 q 457 440 459 440 q 463 446 457 450 q 457 448 456 448 q 454 449 454 447 z m 486 423 q 488 425 486 426 q 484 426 484 428 q 484 423 486 423 z m 486 410 l 486 409 q 487 409 487 408 q 487 408 488 408 q 488 410 490 410 q 491 409 490 411 q 488 410 488 410 q 488 411 486 410 z m 498 407 q 499 405 499 407 q 499 409 498 407 z m 207 300 q 213 302 213 306 l 211 306 q 210 304 209 303 q 208 302 207 300 z m 474 302 q 475 300 476 302 q 476 304 474 302 z m 483 263 q 485 265 486 266 q 488 268 489 270 q 488 271 488 272 q 488 272 487 273 q 482 275 482 270 q 481 265 483 263 z m 247 262 q 249 261 249 263 q 249 265 248 265 q 247 264 247 262 z m 472 228 q 475 228 473 226 q 471 223 474 223 q 476 225 474 226 q 472 228 473 231 q 475 232 476 232 q 477 231 479 231 q 481 237 488 238 q 494 239 499 241 q 497 241 497 244 q 495 244 494 243 q 494 242 492 243 q 490 247 489 250 q 476 249 472 241 q 467 233 458 229 q 459 227 461 227 q 463 227 463 225 q 466 225 467 227 q 468 229 472 228 z m 195 229 q 197 227 196 229 q 196 231 195 229 z m 440 227 q 440 223 442 222 q 441 225 444 224 q 446 224 446 226 q 443 229 440 227 z m 245 213 q 245 215 243 217 q 243 212 245 213 z m 476 206 l 478 206 q 478 208 476 208 z m 466 204 q 469 207 469 206 q 465 206 466 204 z m 433 198 q 435 195 435 194 q 435 192 438 190 q 442 190 444 196 l 437 196 q 437 198 436 199 q 436 200 436 202 q 438 204 441 202 q 444 200 445 204 q 442 205 438 204 q 434 203 433 198 z m 213 197 q 214 200 212 202 q 210 204 208 202 q 210 202 210 199 q 210 196 213 197 z m 484 198 q 483 199 484 201 q 485 203 483 203 q 481 201 480 200 q 480 198 484 198 z m 222 194 q 220 195 222 196 q 223 196 225 195 l 225 192 q 227 192 227 197 q 225 197 224 198 q 224 200 221 200 q 220 198 220 195 q 220 192 222 194 z m 483 190 q 484 192 484 194 q 483 196 481 196 q 477 192 483 190 z m 490 194 q 490 196 486 196 q 486 190 490 194 z m 429 192 q 429 194 427 192 q 429 192 429 192 z m 472 181 q 473 181 474 182 q 474 182 475 182 q 475 184 474 184 q 473 184 474 186 l 478 186 q 478 188 478 188 q 479 188 479 189 q 477 188 476 188 q 475 188 473 187 q 475 185 472 183 q 470 181 472 181 z m 462 177 q 464 176 464 174 q 465 173 467 174 q 466 176 467 176 q 468 176 468 178 q 466 177 464 178 q 463 178 462 177 z m 454 171 q 455 171 455 170 q 455 170 457 170 q 458 170 458 171 q 458 173 457 173 q 457 172 456 172 q 454 173 454 171 z m 428 162 q 431 162 431 164 q 431 166 429 167 q 427 165 428 164 q 430 163 428 162 z m 450 159 q 450 161 449 162 q 449 159 450 159 z m 62 154 l 61 154 q 59 153 60 152 q 62 152 62 154 z m 55 147 q 55 149 57 151 q 59 153 57 154 q 57 151 54 150 q 52 149 55 147 z m 49 144 q 51 144 52 145 q 50 145 49 144 z m 59 133 q 55 133 55 132 q 56 133 58 132 q 59 131 59 133 z m 59 128 q 60 126 60 128 q 61 130 59 128 z m 101 101 q 101 102 100 102 q 99 102 99 101 q 101 101 101 101 z m 402 93 q 405 93 405 95 q 402 98 402 93 z m 70 90 q 70 86 71 86 q 75 85 75 87 q 75 89 77 91 q 77 93 76 92 q 74 92 74 93 q 74 90 73 90 q 72 90 70 90 z m 61 80 q 63 82 60 85 q 59 82 61 80 z m 402 80 q 402 82 399 82 q 398 80 402 80 z m 377 69 q 378 72 380 70 q 383 69 383 72 q 380 74 381 78 q 379 78 378 77 q 378 76 376 75 q 380 74 378 72 q 376 69 377 69 z m 413 66 l 417 66 q 417 67 418 67 q 418 67 418 68 q 418 69 418 70 q 417 70 417 71 q 413 71 413 66 z m 436 65 q 437 64 438 64 q 440 65 440 67 q 436 67 436 65 z m 366 65 q 366 65 364 67 q 363 65 364 64 q 365 63 366 65 z m 359 63 q 362 63 362 65 l 360 65 q 360 64 360 64 q 359 64 359 63 z m 369 62 q 370 62 370 62 q 371 61 372 61 l 372 63 l 370 63 z m 128 53 q 128 55 132 55 q 135 55 134 58 q 131 63 127 60 q 123 57 128 53 z m 363 54 q 366 54 366 56 q 365 57 364 58 q 362 56 363 54 z m 399 52 q 398 50 400 48 q 401 47 399 45 q 402 46 404 44 q 406 43 408 44 q 409 43 408 42 q 408 40 409 39 q 412 38 412 41 q 411 44 412 46 q 410 48 410 46 q 409 44 407 45 q 407 48 406 50 q 404 51 404 54 q 406 55 406 53 q 406 51 408 52 q 410 56 404 56 q 404 54 399 52 z m 377 52 q 379 54 381 52 q 383 51 382 55 q 381 54 378 54 q 376 53 377 52 z m 390 54 q 389 54 389 55 q 389 56 387 55 q 387 53 388 52 q 390 52 390 54 z m 364 51 q 365 51 365 50 q 365 49 366 49 q 366 51 368 51 q 371 51 371 53 q 368 54 367 54 q 366 53 364 51 z m 246 43 q 245 45 247 44 q 249 44 248 46 q 244 47 242 46 q 244 46 244 44 q 244 43 246 43 z m 281 44 q 283 45 283 44 q 283 42 285 43 q 285 46 284 47 q 284 45 282 46 q 281 46 281 44 z m 355 48 q 352 50 352 48 q 353 46 355 48 z m 385 48 q 384 48 384 48 q 384 47 383 47 l 382 47 q 381 45 384 46 q 386 46 385 48 z m 125 35 q 125 37 126 38 q 127 38 125 40 q 123 42 120 41 q 121 39 122 36 q 122 34 125 35 z m 266 34 q 269 34 271 37 q 269 37 268 36 q 266 35 265 37 q 265 34 266 34 z m 387 35 q 387 33 388 33 q 388 33 388 31 q 390 31 392 33 q 393 35 391 36 q 391 35 387 35 z m 400 32 q 401 32 403 34 q 400 34 400 32 z m 205 -5 q 208 -4 210 -1 q 212 2 216 1 q 217 4 219 5 q 221 6 223 8 q 222 10 223 13 q 221 12 220 12 q 219 11 217 10 q 216 11 214 12 q 213 12 212 14 q 213 16 214 16 q 215 16 216 17 q 212 21 212 28 q 207 27 208 26 q 208 26 205 27 q 197 25 195 21 q 193 17 191 12 q 193 12 193 10 q 188 9 188 6 q 188 3 190 2 q 192 4 193 4 q 194 4 196 5 q 198 3 202 1 q 206 -1 205 -5 z m 241 23 q 239 23 239 22 q 241 22 241 23 z m 226 15 q 229 15 231 16 q 233 18 235 16 q 235 20 236 21 q 232 21 230 19 q 229 17 226 15 z"},"V":{"x_min":0,"x_max":728,"ha":728,"o":"m 331 618 q 332 616 334 618 q 337 620 340 618 q 342 623 343 627 q 344 631 346 634 q 348 634 348 634 q 348 631 348 628 q 347 625 348 623 l 348 621 q 345 619 344 616 q 344 612 342 610 l 341 609 q 340 609 339 608 l 338 607 q 335 606 332 606 q 330 605 327 605 q 312 602 302 602 q 293 603 276 603 l 258 603 q 250 601 244 599 q 237 597 230 588 q 226 581 227 570 q 228 558 230 551 q 233 541 240 520 q 247 498 254 474 q 262 451 268 430 q 275 410 278 402 q 280 397 280 392 q 281 388 282 383 l 282 381 q 282 380 283 380 q 285 378 285 377 q 285 376 286 374 q 287 374 287 372 q 287 371 288 371 q 290 357 295 344 q 300 330 306 319 l 306 317 q 306 316 307 315 l 307 311 l 307 307 q 323 269 334 230 q 345 190 362 152 q 363 150 362 150 q 361 149 361 147 q 367 140 368 124 q 370 108 375 100 q 375 98 373 98 q 371 98 371 96 q 373 94 376 95 q 379 96 377 91 l 384 91 q 384 91 387 91 q 392 96 393 106 q 394 116 399 125 q 403 141 406 150 q 409 158 412 169 q 415 179 422 199 q 428 219 436 244 q 444 269 453 296 q 462 323 470 346 q 477 370 482 386 q 487 403 489 407 q 491 415 495 421 l 496 424 q 498 438 506 448 q 506 449 507 450 q 508 451 508 452 q 513 468 516 484 q 519 499 525 513 l 525 515 q 525 516 526 516 l 526 521 q 526 522 526 524 q 527 526 527 527 q 533 539 534 548 q 535 556 534 572 q 533 586 528 594 q 524 601 519 603 q 513 605 508 606 q 502 608 490 608 q 485 608 481 607 q 472 607 460 604 q 447 602 435 604 q 430 605 421 610 q 412 616 411 638 q 411 658 422 666 q 434 673 452 672 q 463 672 474 672 q 485 671 496 668 q 499 666 502 664 q 505 662 509 661 q 518 659 528 659 q 537 659 548 659 q 559 660 570 660 q 581 660 593 661 q 612 661 626 663 q 640 665 652 667 q 664 669 676 670 q 688 672 704 672 q 720 672 728 662 q 735 653 735 642 q 735 626 730 616 q 724 605 706 603 q 695 603 687 604 q 679 606 668 606 q 657 607 650 602 q 642 596 638 589 q 637 587 634 582 q 632 577 630 571 q 627 565 624 560 q 622 555 621 552 q 613 529 602 498 q 592 468 580 435 q 569 402 558 370 q 547 337 538 310 q 529 284 522 266 q 516 248 515 244 q 510 230 506 220 q 502 209 499 197 q 499 196 498 195 q 498 194 498 193 q 496 191 496 189 q 496 188 496 188 q 495 187 495 186 q 490 171 486 158 q 482 146 474 133 l 474 129 q 474 126 472 124 q 470 121 470 118 l 470 110 q 462 81 450 56 q 438 32 426 7 l 424 5 q 423 4 423 3 q 417 -2 414 -4 q 412 -7 404 -10 q 390 -15 379 -14 q 368 -13 360 -11 q 334 -1 321 24 q 321 25 320 26 q 320 28 320 29 q 318 39 314 45 q 314 48 311 51 q 301 74 294 98 q 286 122 276 146 q 266 176 256 204 q 247 232 236 263 q 236 265 235 266 q 234 266 233 267 q 231 278 228 286 q 225 294 221 302 q 220 302 220 304 q 220 305 219 306 q 219 308 218 308 q 218 309 218 311 q 197 371 180 420 q 162 469 150 503 q 144 521 138 536 q 133 550 127 565 q 121 579 113 585 q 100 595 82 600 q 63 604 43 604 q 41 604 39 604 q 37 605 36 605 q 29 607 28 604 q 26 602 18 605 q 9 608 2 614 q -6 621 -6 635 q -5 653 1 660 q 7 667 19 671 q 29 673 39 673 q 49 673 60 670 q 71 666 82 666 q 92 665 103 663 q 120 661 138 660 q 157 659 172 659 q 192 660 214 663 q 235 666 256 668 q 272 670 288 672 q 304 673 321 671 q 327 670 332 669 q 337 668 340 663 q 344 657 345 653 q 346 649 347 644 q 347 641 347 641 q 345 633 341 628 q 337 623 332 618 z m 301 664 q 299 661 301 660 q 303 659 303 657 q 306 656 306 658 q 307 660 310 659 q 309 664 306 664 q 304 663 301 664 z m 320 664 q 322 662 324 663 q 325 664 325 666 q 324 666 320 664 z m 272 657 q 271 659 272 661 q 274 663 272 665 q 272 663 271 661 q 270 659 272 657 z m 464 667 q 462 667 462 668 q 463 669 461 669 q 461 667 462 666 q 463 665 464 667 z m 452 666 l 453 666 q 454 668 452 668 q 450 668 451 666 z m 334 660 q 336 658 336 660 q 336 662 334 660 z m 325 659 l 325 657 l 326 657 q 327 659 325 660 z m 331 658 q 329 658 330 660 q 330 661 328 660 q 327 658 329 657 q 331 656 331 658 z m 274 647 q 273 649 272 652 q 272 655 271 655 q 271 653 270 650 q 270 646 274 647 z m 336 651 q 338 651 338 650 q 339 649 341 649 l 341 654 q 337 653 339 657 l 335 657 q 336 655 337 654 q 338 653 336 651 z m 334 653 q 333 654 331 656 q 329 657 327 655 q 329 655 330 653 q 332 651 334 653 z m 285 637 q 286 639 284 639 q 281 639 281 637 q 283 637 283 636 q 283 636 285 637 z m 310 633 q 312 628 314 628 q 316 628 316 632 q 315 635 313 634 q 313 633 310 633 z m 285 625 l 290 625 q 289 627 290 627 q 291 627 291 628 q 290 629 290 630 q 290 631 288 632 q 287 630 286 629 q 284 628 285 625 z m 294 626 q 293 624 296 625 q 298 626 297 624 q 297 619 294 618 q 292 617 292 618 q 292 619 290 619 q 290 617 288 616 q 287 616 286 614 q 291 614 294 616 q 297 618 299 620 q 300 619 301 618 q 302 618 301 615 q 306 617 306 616 q 304 620 300 626 q 296 631 294 626 z m 327 611 q 328 611 328 612 q 328 612 329 612 q 329 615 328 615 q 328 614 326 612 q 325 611 327 611 z m 220 607 q 221 608 222 610 q 222 611 220 612 q 218 609 220 607 z m 198 537 q 198 538 199 538 q 200 539 198 539 q 198 537 198 537 z m 183 510 q 185 515 181 515 q 179 514 180 512 q 181 511 183 510 z m 200 471 q 198 470 198 472 q 197 473 196 471 q 199 469 200 471 z m 531 461 q 531 463 529 461 q 530 462 530 461 q 531 460 531 461 z m 531 457 q 534 457 534 458 q 532 458 531 459 z m 537 453 q 537 449 539 444 q 541 439 545 436 q 549 433 553 433 q 557 433 561 438 q 558 440 556 442 q 553 444 549 446 q 549 448 551 449 q 553 450 551 452 q 549 454 544 454 q 539 454 537 453 z m 564 423 q 563 425 563 426 q 563 428 562 429 q 561 428 561 426 q 561 423 564 423 z m 522 420 q 520 421 520 422 q 519 422 517 422 q 516 419 519 418 q 522 418 522 420 z m 522 401 q 524 399 526 402 q 527 405 525 405 q 525 403 523 403 q 521 403 522 401 z m 224 394 q 223 396 222 396 q 221 397 220 399 q 218 393 224 394 z m 532 393 q 536 391 536 395 q 534 397 532 393 z m 490 356 q 493 358 490 358 q 488 359 490 356 z m 260 348 q 258 348 258 350 q 259 353 257 353 q 257 351 256 350 q 255 350 255 348 q 257 349 258 348 q 260 346 260 348 z m 251 325 q 253 323 257 324 q 257 327 255 327 q 255 325 253 326 q 251 327 251 325 z m 499 297 q 497 297 497 296 q 499 296 499 297 z m 514 286 q 516 288 515 290 q 514 292 513 290 q 515 290 514 288 q 512 286 514 286 z m 301 233 q 304 233 304 234 l 301 234 z m 431 104 q 433 103 433 105 q 433 107 435 108 q 433 108 431 104 z m 412 95 q 415 96 416 94 q 416 92 418 91 q 418 94 420 94 q 422 95 422 98 q 420 100 419 100 q 419 97 416 97 q 413 97 412 95 z m 421 79 q 426 79 426 81 q 423 81 421 79 z m 401 74 q 403 74 403 75 q 400 75 401 74 z m 427 69 q 427 71 425 69 q 427 69 427 69 z m 402 41 q 401 41 401 42 q 401 42 400 42 q 398 40 400 40 q 403 39 402 41 z m 370 -6 l 372 -6 q 372 -4 373 -3 l 369 -3 q 369 -4 370 -4 q 370 -5 370 -6 z"},"7":{"x_min":0,"x_max":637,"ha":637,"o":"m 511 543 q 505 538 492 530 q 479 522 459 518 q 439 513 420 515 q 401 517 381 519 q 371 521 359 526 q 347 530 339 534 q 330 538 324 542 q 319 547 311 552 q 312 554 314 556 q 316 557 316 559 q 311 561 310 559 q 309 557 307 555 q 299 560 296 563 q 292 566 285 571 q 274 578 264 586 q 254 594 242 600 q 230 606 215 607 q 200 608 180 602 q 160 594 154 578 q 149 562 146 554 q 144 544 144 533 q 144 522 144 515 q 144 506 147 490 q 150 474 154 457 q 161 421 151 406 q 145 395 134 390 q 123 386 113 387 q 93 387 83 403 q 80 408 78 418 q 76 427 77 438 q 77 441 78 448 q 79 456 80 464 q 80 473 81 480 q 82 488 82 490 q 86 511 86 538 q 86 565 84 588 q 82 608 81 626 q 80 644 80 660 q 83 692 116 694 q 122 693 132 689 q 142 685 144 663 q 145 656 142 643 q 140 630 138 619 q 141 624 148 634 q 155 643 157 645 q 169 662 178 668 q 193 682 220 686 q 248 689 274 680 q 278 678 283 676 q 288 675 293 672 q 296 672 296 671 q 309 665 320 658 q 331 651 342 643 q 344 642 342 640 q 341 638 340 636 q 343 639 346 638 q 348 637 351 636 q 352 636 353 635 q 354 634 355 634 q 370 622 396 604 q 423 587 450 580 q 470 576 484 580 q 497 583 502 586 q 508 591 512 594 q 516 598 519 608 q 511 607 505 608 q 490 611 480 626 q 478 628 478 630 q 478 632 477 634 q 475 640 476 646 q 478 652 476 658 q 476 659 476 661 q 476 663 477 663 q 479 666 481 666 q 483 665 483 668 q 483 673 486 678 q 490 682 494 685 q 499 688 504 690 q 509 692 511 692 q 525 695 536 693 q 546 691 549 689 q 569 681 578 663 q 586 645 588 621 q 589 607 588 586 q 587 566 582 550 q 582 550 581 545 q 580 540 578 533 q 575 526 572 519 q 569 512 566 506 q 550 477 532 456 q 514 436 491 415 q 466 393 446 375 q 427 357 405 331 q 402 328 398 322 q 393 315 388 308 q 384 301 380 295 q 376 289 374 286 q 371 280 365 266 q 359 251 354 231 q 348 211 344 186 q 339 161 338 133 q 336 105 338 82 q 340 60 340 45 q 340 25 336 13 q 331 1 324 -6 q 318 -12 311 -14 q 304 -17 298 -18 q 291 -19 280 -18 q 268 -16 257 -5 q 249 4 245 16 q 241 28 239 44 q 238 55 238 68 q 238 82 238 84 q 239 107 242 140 q 246 172 253 199 q 258 218 268 249 q 279 280 295 306 q 300 313 308 325 q 316 337 321 343 q 327 352 336 362 q 345 372 349 376 q 355 382 360 387 q 364 392 370 398 q 374 399 375 399 l 376 399 q 377 399 377 400 q 379 406 380 408 q 383 410 385 412 q 387 414 389 416 q 393 416 393 419 q 395 423 398 424 q 402 425 404 430 l 406 431 q 408 431 408 432 q 409 432 410 432 q 412 435 412 435 q 412 435 413 438 q 435 458 454 473 q 474 488 494 513 q 498 516 504 526 q 510 535 511 543 z m 268 651 q 273 651 270 649 q 268 647 270 645 q 272 644 274 642 q 276 640 278 642 q 273 645 274 652 q 276 659 276 666 q 273 663 272 658 q 271 654 268 651 z m 256 660 q 257 654 262 651 q 261 655 262 656 q 264 658 265 660 q 262 662 260 662 q 259 661 256 660 z m 300 658 q 300 656 301 656 q 302 656 301 654 q 305 656 306 658 q 304 660 303 659 q 302 658 300 658 z m 297 637 q 297 640 298 638 q 300 637 301 639 q 301 642 299 642 q 297 643 295 645 q 295 638 297 637 z m 304 635 q 306 635 306 634 q 307 634 309 634 q 310 636 307 638 q 304 640 303 638 q 304 637 304 635 z m 309 629 q 310 631 308 631 q 306 631 305 633 q 305 629 309 629 z m 323 608 q 322 610 323 610 q 324 611 324 613 l 321 613 q 321 608 323 608 z m 275 600 q 273 600 273 601 q 273 602 271 601 q 270 599 272 598 q 275 598 275 600 z m 328 596 q 328 594 332 594 q 335 593 334 595 q 332 595 331 596 q 330 598 328 596 z m 334 587 q 334 590 336 592 q 334 592 332 590 q 331 588 334 587 z m 289 589 q 292 587 292 589 q 291 591 289 589 z m 307 581 q 307 583 304 583 q 304 581 303 580 q 302 578 302 575 q 304 574 304 576 q 305 578 305 576 q 306 574 305 574 q 304 574 304 572 q 308 572 308 570 q 308 567 306 565 l 310 565 q 308 570 312 570 q 317 570 319 574 q 311 574 313 579 q 315 584 313 589 q 311 587 310 584 q 309 582 307 581 z m 296 580 q 298 582 296 582 q 293 582 293 581 z m 369 567 q 368 563 372 564 q 376 566 374 568 q 373 566 372 567 q 371 568 369 567 z m 360 530 q 362 531 363 530 q 364 529 365 531 q 363 532 361 532 q 359 533 360 530 z m 370 528 q 368 528 368 529 q 368 530 366 530 q 366 528 368 527 q 369 526 370 528 z m 480 461 l 484 461 q 486 465 486 466 q 482 467 480 461 z m 434 446 q 436 446 438 448 q 439 450 437 451 q 436 449 435 448 q 434 448 434 446 z m 417 432 q 419 431 419 433 q 419 435 421 436 q 419 436 418 434 q 416 433 417 432 z m 447 420 q 447 422 448 423 q 446 423 444 424 q 443 424 441 424 q 441 422 447 420 z m 320 183 q 320 183 318 185 q 318 183 319 182 q 320 181 320 183 z m 331 162 q 330 166 329 166 q 328 167 331 170 q 329 170 328 168 q 328 167 325 168 q 326 173 324 174 q 321 175 320 180 q 318 174 317 170 q 319 169 320 170 q 321 172 322 170 q 320 169 322 164 q 324 164 324 165 q 324 166 326 166 q 328 166 328 164 q 329 162 331 162 z m 302 172 q 303 171 303 171 q 303 174 302 174 z m 314 156 q 316 157 316 158 q 316 159 318 159 q 320 155 318 155 q 315 155 315 153 q 318 151 317 150 q 316 149 316 146 q 318 147 321 146 q 324 146 326 147 q 325 149 328 150 q 330 152 328 157 q 324 157 324 159 q 325 161 323 162 q 323 159 322 159 q 318 159 318 160 q 317 162 318 162 q 319 163 318 165 q 316 164 316 160 q 315 157 314 156 z m 329 146 q 331 146 331 148 q 331 149 333 150 q 329 150 329 146 z m 308 148 q 308 144 308 144 q 309 147 311 146 q 313 146 315 145 q 314 147 309 149 q 309 148 308 148 z m 252 140 l 254 140 q 255 142 253 142 q 251 143 251 141 q 252 141 252 140 z m 247 136 l 247 134 q 249 133 250 135 q 250 137 248 137 q 248 136 247 136 z m 287 122 q 290 122 290 120 q 289 118 292 118 q 290 122 292 122 q 295 123 293 127 q 299 127 299 130 q 297 129 293 130 q 292 128 290 126 q 289 124 287 122 z m 307 122 q 306 123 306 125 q 304 128 303 128 q 303 123 307 122 z m 323 123 q 322 125 323 126 q 324 126 324 128 q 320 126 320 127 q 322 127 322 126 q 321 124 323 123 z m 308 122 q 310 118 310 121 q 310 124 308 122 z m 301 119 q 300 119 300 120 q 300 121 298 121 q 298 119 300 118 q 301 117 301 119 z m 294 116 q 299 114 300 110 q 300 105 303 103 q 304 105 303 106 q 302 108 305 110 q 307 110 308 108 q 308 106 309 108 q 307 108 308 110 q 308 112 307 113 q 304 114 301 114 q 298 114 298 117 q 295 117 294 116 z m 325 116 q 323 118 323 116 q 323 114 325 116 z m 318 114 l 321 114 q 321 116 318 116 z m 321 108 q 319 110 316 110 q 313 111 311 109 q 315 107 312 106 q 308 104 308 102 q 313 105 320 106 q 327 107 333 109 q 331 111 330 110 q 329 109 327 109 q 325 111 326 112 q 328 113 324 113 q 324 108 321 108 z m 288 103 q 290 103 290 105 q 291 107 289 108 q 288 107 288 103 z m 324 101 q 325 103 321 103 q 321 101 324 101 z m 301 94 q 300 93 299 92 q 298 90 296 91 q 296 93 297 94 q 298 94 296 95 q 295 91 292 92 q 290 94 288 92 q 290 90 292 91 q 294 92 293 87 q 296 88 298 89 q 299 90 302 90 q 302 92 302 93 q 303 94 303 96 q 302 96 300 97 q 299 98 301 100 l 298 100 q 298 97 300 96 q 301 96 301 94 z m 308 86 q 309 86 309 86 q 309 87 310 87 l 310 91 q 308 91 307 92 q 306 94 305 92 q 307 91 306 88 q 306 86 308 86 z m 280 63 q 281 64 283 63 q 285 62 285 64 q 283 64 282 64 q 281 65 280 63 z m 304 577 q 305 580 305 578 q 305 575 304 577 z m 322 156 q 324 157 324 156 q 324 155 326 154 q 323 153 322 152 q 322 150 319 148 q 317 151 320 152 q 322 153 322 156 z m 314 108 q 316 110 316 108 q 316 106 314 108 z"},"S":{"x_min":0,"x_max":619,"ha":619,"o":"m 111 202 l 113 202 l 113 200 l 112 200 q 111 201 111 202 z m 499 316 q 503 314 503 316 q 503 319 506 318 q 508 319 508 318 q 509 316 511 317 q 531 297 544 276 q 556 254 561 214 q 563 195 563 180 q 563 164 558 142 q 556 136 555 132 q 554 128 552 120 q 546 99 525 70 q 504 41 472 18 q 457 9 442 2 q 427 -6 410 -11 q 389 -17 367 -20 q 345 -22 319 -22 q 263 -23 222 -7 q 181 9 158 27 q 157 28 156 29 q 156 30 155 31 q 152 37 146 40 q 140 42 138 50 q 136 50 134 48 q 133 46 132 48 q 130 48 130 46 q 131 45 129 44 q 131 30 134 18 q 137 7 131 -6 q 123 -22 102 -23 q 96 -23 88 -22 q 79 -21 74 -17 q 74 -15 75 -14 q 76 -12 74 -11 q 72 -11 68 -9 q 66 -9 63 -6 q 61 0 59 7 q 57 14 59 27 q 60 33 62 49 q 65 65 66 84 q 68 103 68 124 q 69 144 67 159 q 69 160 70 159 q 70 158 71 157 q 75 164 82 169 q 81 171 79 171 q 77 171 75 173 q 73 170 72 166 q 72 161 67 162 q 66 162 66 170 q 65 179 64 185 q 62 202 61 210 q 60 219 59 233 q 58 243 58 254 q 58 265 62 274 q 65 283 72 290 q 79 296 93 296 q 116 296 124 284 q 132 272 134 261 q 136 251 136 242 q 135 234 135 223 q 135 220 134 220 q 133 219 133 217 q 135 203 136 190 q 137 176 139 161 q 139 159 138 159 q 137 159 136 157 l 136 155 q 144 149 144 142 q 144 138 146 136 q 149 134 151 130 q 153 126 150 122 q 150 120 152 120 q 155 120 154 117 q 151 119 152 117 q 152 115 148 115 q 149 113 150 114 q 152 116 154 116 q 162 113 167 105 q 172 97 179 92 q 181 84 186 85 q 188 84 188 84 q 190 80 194 79 q 197 78 199 73 l 200 72 q 202 72 203 71 q 204 70 206 71 q 222 59 244 54 q 265 48 286 46 q 306 43 324 44 q 342 44 351 46 q 370 49 390 56 q 410 62 428 74 q 446 86 459 106 q 472 125 477 153 q 485 199 466 232 q 455 251 441 262 q 427 273 410 281 q 397 286 380 290 q 364 294 346 298 q 329 301 312 304 q 295 306 282 309 q 261 313 242 318 q 224 322 203 328 q 176 336 152 349 q 128 362 108 388 q 93 409 85 434 q 77 458 75 482 q 75 498 78 522 q 80 546 90 569 q 105 605 136 632 q 168 660 200 672 q 209 676 220 679 q 230 682 237 684 q 265 689 296 690 q 328 692 356 686 q 357 686 358 685 q 359 684 360 684 q 364 681 373 681 q 377 681 378 680 q 397 674 414 664 q 431 654 446 645 q 449 643 454 638 q 459 634 464 630 q 465 629 466 630 q 467 630 466 631 q 466 639 467 648 q 468 657 470 663 q 475 676 483 678 q 491 681 498 681 q 503 681 510 680 q 518 678 525 667 q 531 657 532 652 q 532 647 531 634 q 528 606 526 580 q 524 554 525 523 q 525 521 525 519 q 525 517 526 516 q 527 511 528 506 q 528 501 527 496 q 527 495 527 492 q 527 490 528 488 q 530 477 529 466 q 528 454 530 443 q 531 443 531 440 q 531 438 531 436 q 529 425 525 418 q 516 401 497 401 q 477 399 466 410 q 465 412 467 412 q 469 413 468 415 q 466 417 465 415 q 464 413 462 414 q 461 416 461 422 q 463 423 462 422 q 462 421 464 421 q 461 425 460 428 q 459 431 457 435 q 455 437 455 440 q 455 452 456 466 q 458 481 458 493 q 458 521 451 541 q 444 561 430 576 q 428 578 428 581 q 421 584 418 592 q 417 594 420 594 q 423 594 423 596 q 419 598 414 598 q 412 597 416 595 q 419 593 415 593 q 407 600 392 606 q 377 611 366 614 q 347 620 328 622 q 309 623 286 622 q 266 620 254 617 q 243 614 231 609 q 220 604 205 593 q 190 582 179 564 q 174 556 170 547 q 167 538 165 526 q 163 508 164 496 q 165 483 167 474 q 169 466 172 460 q 175 454 179 447 q 189 430 208 418 q 228 406 242 402 q 244 398 244 396 q 246 396 247 398 q 248 400 250 398 q 256 393 266 394 q 277 395 284 390 l 286 389 q 298 387 311 385 q 324 383 338 381 q 341 380 344 380 q 348 379 350 377 l 351 376 q 376 374 404 367 q 433 360 458 350 q 460 348 464 347 q 467 346 469 344 l 470 344 q 477 343 480 340 q 484 337 489 335 q 489 334 490 334 l 491 333 q 495 329 495 328 l 495 326 q 502 326 504 322 q 505 318 499 316 z m 269 634 q 269 636 271 635 q 273 634 274 636 q 272 638 270 636 q 268 635 269 634 z m 253 626 q 253 628 252 628 q 252 628 252 629 l 249 629 q 248 626 253 626 z m 150 575 q 150 577 151 577 q 152 577 153 579 q 151 579 151 580 q 151 580 149 579 q 150 578 149 576 q 148 575 150 575 z m 141 551 q 141 553 140 554 q 140 554 140 556 q 136 554 136 558 q 138 559 140 558 q 141 556 141 559 q 139 560 138 560 q 136 560 135 562 q 133 559 134 555 q 136 551 141 551 z m 469 555 q 467 557 467 555 q 467 553 469 555 z m 474 550 q 473 545 474 548 q 475 552 474 550 z m 131 536 q 131 538 130 538 q 128 539 128 541 q 127 540 126 541 q 124 542 124 540 q 127 540 128 537 q 128 534 131 536 z m 474 538 q 475 536 476 534 q 476 532 477 530 q 480 531 478 537 q 476 536 476 538 q 475 539 474 538 z m 143 533 q 141 532 140 533 q 138 534 138 532 q 140 533 141 532 q 142 531 143 533 z m 151 532 q 153 530 153 532 q 153 534 151 532 z m 140 528 l 143 528 q 143 530 141 530 q 141 528 140 528 z m 117 524 q 120 522 121 524 q 118 526 117 524 z m 125 523 l 129 523 q 129 525 128 524 q 127 524 126 525 q 126 523 125 523 z m 139 522 l 142 522 q 142 525 139 524 z m 109 507 q 111 509 110 510 q 110 512 112 514 q 109 514 108 514 q 106 513 104 516 q 105 513 106 511 q 108 509 109 507 z m 492 513 q 493 513 495 513 q 497 513 496 515 l 492 515 z m 117 510 q 117 507 120 507 q 122 507 124 508 q 124 511 121 511 q 121 510 117 510 z m 132 507 q 130 509 130 507 q 130 505 132 507 z m 484 503 q 485 506 482 506 q 482 505 484 503 z m 106 497 q 109 497 109 500 q 108 500 108 500 q 108 501 107 501 q 107 499 106 498 q 106 498 106 497 z m 499 488 q 501 489 502 486 q 502 483 500 483 q 501 482 500 480 q 500 479 501 478 q 501 482 504 485 q 504 487 502 488 q 501 488 501 490 q 503 492 504 492 q 506 491 508 493 q 506 500 502 501 q 502 494 499 488 z m 120 497 q 122 494 122 496 q 121 499 120 497 z m 138 495 q 138 497 136 497 q 135 496 136 495 q 136 494 138 495 z m 110 492 q 109 490 108 492 q 108 494 106 493 q 105 489 108 490 q 112 490 110 492 z m 124 488 q 126 488 126 490 q 127 491 125 491 q 125 489 124 490 q 123 490 124 488 z m 135 484 q 136 484 138 486 q 135 486 135 484 z m 149 483 q 150 485 147 485 q 144 485 144 483 q 146 484 146 484 q 147 483 149 483 z m 128 483 q 125 483 125 483 q 128 483 128 483 z m 116 472 q 116 474 114 474 q 114 472 116 472 z m 135 471 q 137 471 136 472 q 136 473 137 474 l 135 474 z m 117 465 l 116 465 z m 122 465 q 120 463 120 464 q 122 464 122 465 z m 144 459 q 142 459 142 460 q 142 460 141 460 q 140 458 142 458 q 144 457 144 459 z m 131 424 q 129 426 132 430 q 135 435 130 435 q 134 433 130 430 q 127 426 131 424 z m 164 436 q 162 436 162 435 q 164 435 164 436 z m 167 421 q 167 422 168 422 q 169 422 169 424 q 167 423 167 424 q 167 426 165 427 q 165 422 167 421 z m 160 424 l 158 424 z m 154 423 q 156 421 156 423 q 155 425 154 423 z m 160 415 q 160 417 160 417 q 161 417 161 419 q 159 421 156 419 q 156 417 160 415 z m 130 407 q 132 408 133 407 q 134 406 136 405 q 137 408 135 408 q 133 408 134 411 l 131 411 q 131 409 130 409 q 130 409 130 407 z m 177 405 q 177 404 176 404 q 176 405 176 404 q 177 404 177 405 z m 181 403 q 183 403 184 402 q 184 402 185 404 q 183 405 181 403 z m 139 396 q 141 396 142 396 q 144 395 146 395 q 146 397 145 398 q 144 399 144 402 q 142 400 141 402 q 140 404 137 403 q 137 402 139 396 z m 187 397 q 188 395 188 398 q 188 400 187 397 z m 152 394 q 150 394 149 395 q 148 396 148 394 q 151 391 152 394 z m 158 386 q 159 384 159 386 q 159 388 158 386 z m 177 383 q 179 383 180 384 q 180 385 182 384 q 185 383 184 380 q 182 378 184 376 q 184 378 185 379 q 186 380 186 382 q 185 384 182 386 q 178 387 177 383 z m 217 379 l 221 379 q 220 383 224 382 q 229 380 230 384 q 220 385 217 379 z m 237 380 q 236 380 236 383 q 234 384 233 384 q 232 384 230 385 q 231 383 233 381 q 235 379 237 380 z m 160 382 q 161 380 162 382 q 163 383 164 383 l 160 383 z m 210 379 q 208 379 208 378 q 210 380 210 379 z m 237 371 q 238 370 241 373 q 240 375 240 376 q 240 378 238 378 q 238 375 239 374 q 240 373 237 371 z m 225 373 q 227 373 227 374 q 224 374 225 373 z m 258 370 q 258 373 255 373 q 255 371 256 371 q 257 371 258 370 z m 184 365 q 187 362 189 367 q 187 366 186 366 q 185 367 184 365 z m 227 363 q 227 364 228 364 l 229 364 q 227 364 228 366 q 228 367 226 366 q 226 363 227 363 z m 230 354 q 235 354 237 360 q 234 359 230 361 q 231 357 230 354 z m 257 361 q 256 361 254 362 q 252 362 253 360 q 254 361 256 360 q 257 359 257 361 z m 249 360 q 247 362 247 360 q 247 358 249 360 z m 274 357 q 271 355 270 358 q 268 360 266 358 q 266 356 270 356 q 275 356 274 357 z m 280 355 q 277 353 272 352 q 268 352 266 351 q 269 351 267 346 q 265 344 264 346 q 265 342 263 340 q 261 338 263 335 q 258 334 254 328 q 260 328 264 332 q 267 335 270 340 q 273 344 276 348 q 280 353 286 355 q 284 357 283 357 q 282 357 280 358 q 280 359 279 359 q 278 357 279 357 q 280 357 280 355 z m 219 354 q 219 350 220 353 q 221 356 219 354 z m 239 347 q 241 344 244 342 q 247 339 249 336 q 249 339 249 342 q 249 345 247 348 q 248 350 250 350 q 251 349 251 351 q 246 351 245 348 q 244 345 239 347 z m 322 351 q 317 351 318 350 q 320 349 322 351 z m 255 347 q 254 348 253 348 q 252 348 252 347 q 252 346 253 346 q 255 346 255 347 z m 189 345 q 191 343 191 345 q 191 347 189 345 z m 204 340 l 210 337 q 209 339 212 342 q 214 345 212 345 q 211 342 208 342 q 206 341 204 340 z m 322 343 q 322 344 322 344 q 321 344 321 343 q 322 343 322 343 z m 294 336 l 295 336 q 296 337 296 337 q 294 338 294 338 z m 245 334 q 246 337 241 337 q 241 334 245 334 z m 237 333 q 235 331 237 331 q 239 331 237 333 z m 253 333 q 249 333 249 332 q 251 330 253 333 z m 243 328 q 243 325 246 325 q 248 325 249 328 q 247 328 246 330 q 246 331 244 331 q 244 328 243 328 z m 286 328 q 287 327 290 325 q 290 329 287 329 q 287 328 286 328 z m 323 327 q 324 329 322 330 q 320 330 320 328 q 321 328 322 328 q 322 327 323 327 z m 270 327 q 270 328 271 328 q 272 327 272 328 q 271 329 270 328 q 268 327 270 327 z m 436 292 q 435 294 437 294 q 439 294 438 296 q 438 297 436 297 q 435 297 434 295 q 434 293 436 292 z m 99 281 q 99 284 97 284 q 97 281 99 281 z m 410 291 q 405 288 409 289 q 413 290 410 291 z m 109 273 q 110 270 113 270 q 116 270 117 268 q 119 265 118 262 q 116 260 116 256 q 121 258 122 262 q 122 267 121 272 q 117 271 114 273 q 111 275 109 273 z m 109 255 q 111 253 112 254 q 114 255 114 257 q 111 257 109 255 z m 81 251 q 80 251 80 252 l 80 253 q 79 251 80 250 q 81 249 81 251 z m 106 237 q 102 239 102 236 q 102 233 107 233 q 107 238 110 242 q 114 246 109 250 q 108 247 108 244 q 107 240 106 237 z m 123 235 q 124 233 124 231 q 123 229 125 228 q 127 230 126 234 q 126 237 123 235 z m 88 226 q 89 220 94 222 q 100 224 100 228 q 96 228 93 227 q 90 226 88 226 z m 121 215 q 123 214 124 213 q 125 212 128 213 q 130 216 128 218 q 126 221 124 223 q 124 220 122 219 q 120 218 121 215 z m 84 209 q 83 207 84 207 q 86 207 85 205 q 83 205 84 204 q 84 202 83 200 q 81 197 78 195 q 75 193 73 191 q 72 189 72 186 q 72 184 72 182 q 72 183 73 183 q 74 183 74 182 q 72 179 70 179 q 69 177 71 177 q 73 177 74 176 q 73 181 79 181 l 79 186 q 81 188 83 188 q 85 189 87 191 q 86 194 88 195 q 89 196 89 199 q 88 200 87 203 q 86 206 88 208 l 93 208 q 95 212 95 217 q 93 216 92 218 q 91 219 87 219 q 86 215 86 213 q 86 211 84 209 z m 105 201 q 107 200 107 196 q 109 197 110 196 q 111 194 112 193 q 114 206 120 211 q 116 213 116 214 q 117 209 112 208 q 107 206 105 201 z m 108 187 q 109 187 111 189 q 108 189 108 187 z m 116 185 q 119 186 119 184 q 119 183 121 182 q 123 184 122 186 q 120 188 117 188 q 117 186 116 185 z m 125 184 q 125 182 126 181 q 128 180 130 182 q 130 184 129 184 q 128 185 128 187 q 125 187 125 184 z m 121 180 q 119 180 121 178 q 123 176 121 176 q 117 178 112 178 q 110 173 115 171 q 114 169 114 169 q 113 169 114 166 q 112 167 112 166 q 111 165 110 164 q 110 162 108 158 q 106 153 107 148 q 102 148 99 143 q 97 143 98 144 q 98 145 97 145 q 95 140 97 138 q 99 136 101 132 q 99 130 96 132 q 96 130 93 126 q 90 123 94 121 q 96 122 96 126 q 97 131 102 128 q 100 136 102 138 q 105 139 107 143 q 109 146 109 149 q 109 152 112 152 q 112 158 118 160 q 117 162 118 164 q 118 165 117 168 q 119 169 121 170 q 123 171 125 173 q 130 167 126 164 q 122 161 120 157 q 121 157 124 154 q 127 155 128 158 q 128 160 132 159 q 131 164 132 164 q 133 165 133 170 q 131 171 131 170 q 131 168 129 168 q 129 169 128 169 q 128 169 128 170 q 128 172 129 172 q 130 171 130 173 q 125 172 122 177 q 127 175 129 179 q 127 180 125 181 q 123 182 121 180 z m 134 173 q 133 175 134 176 q 136 177 134 179 q 130 179 130 176 q 131 172 134 173 z m 84 172 q 89 172 89 177 q 87 179 84 178 q 83 177 84 176 q 84 174 84 172 z m 110 176 q 110 178 108 178 q 108 175 110 176 z m 114 139 q 114 136 116 136 q 116 138 115 138 q 114 139 115 141 q 117 141 118 140 q 118 140 119 140 q 119 142 118 142 q 116 143 117 145 q 119 146 120 144 q 121 143 121 145 q 119 150 115 153 q 118 149 117 146 q 116 143 114 139 z m 102 151 q 102 152 101 152 q 100 152 100 151 q 102 151 102 151 z m 80 136 q 82 131 85 136 l 85 140 q 84 140 84 140 q 83 141 81 141 q 80 140 80 136 z m 76 138 q 76 139 77 139 q 78 139 78 141 l 75 141 q 76 140 76 139 q 75 138 76 138 z m 120 138 q 118 138 118 137 q 120 137 120 138 z m 77 137 q 75 137 75 136 q 77 138 77 137 z m 110 123 q 108 125 107 125 q 105 123 104 122 q 103 120 100 122 q 101 115 110 115 q 110 120 115 120 q 114 124 115 126 q 116 129 116 132 l 115 132 l 112 132 q 115 129 114 127 q 112 125 110 123 z m 107 129 q 107 130 106 130 q 106 130 106 129 q 107 129 107 129 z m 143 118 q 142 118 142 118 q 142 119 140 119 q 139 117 141 117 q 143 117 143 118 z m 520 114 q 523 114 526 114 q 529 115 530 117 q 524 117 520 114 z m 146 113 q 146 115 146 115 q 146 113 146 113 z m 126 110 q 129 111 132 110 q 134 109 136 111 q 133 111 132 114 q 130 116 125 114 q 124 112 126 112 q 127 112 126 110 z m 137 111 q 138 109 138 111 q 139 113 137 111 z m 98 100 q 96 101 98 102 q 100 102 100 104 l 96 104 q 96 102 96 100 q 97 98 98 100 z m 139 98 q 141 99 142 98 q 142 97 144 97 q 143 100 144 99 q 146 98 148 100 q 148 105 143 104 q 138 102 139 98 z m 104 99 q 104 100 104 100 q 103 100 103 99 q 104 98 104 99 z m 101 89 q 102 89 102 90 q 103 90 104 90 q 104 94 100 95 q 99 94 101 89 z m 65 10 q 66 9 68 9 q 69 9 68 11 q 66 11 65 10 z"},"}":{"x_min":0,"x_max":500,"ha":500,"o":"m 266 312 q 263 315 261 312 q 259 309 257 311 q 258 315 256 314 q 254 312 254 314 q 255 316 256 315 q 258 314 260 315 q 260 317 257 320 q 254 323 256 325 q 254 327 253 324 q 252 322 252 319 q 252 317 254 319 q 255 321 256 319 q 254 316 252 314 q 249 311 245 313 q 243 311 246 308 q 248 306 247 303 q 244 304 244 308 q 244 312 241 314 q 241 316 243 316 q 245 315 245 317 q 245 319 243 318 q 241 317 240 319 q 238 329 238 334 q 237 340 239 347 q 241 347 241 344 q 241 342 242 341 q 246 342 244 348 q 243 353 245 357 q 250 358 256 354 q 254 356 252 361 q 249 366 249 371 q 245 369 245 364 q 245 359 241 357 q 245 353 242 349 q 237 348 236 352 q 235 355 236 360 q 236 386 236 406 q 235 426 236 446 l 236 468 q 236 475 236 494 q 236 512 234 534 q 233 555 228 574 q 224 593 215 601 q 211 604 204 608 q 198 611 190 613 q 189 613 189 614 q 189 614 188 614 l 187 614 l 181 614 q 170 616 163 616 q 156 616 143 617 q 141 618 141 618 q 141 620 140 621 l 140 622 q 140 635 140 652 q 139 668 139 680 q 162 681 186 679 q 210 677 223 674 q 223 673 224 673 l 226 673 q 230 671 234 670 q 239 668 242 665 q 245 662 247 662 q 286 648 299 607 q 304 591 306 571 q 308 551 308 530 q 309 508 309 486 q 309 463 309 441 q 310 424 310 406 q 309 389 309 372 q 309 355 311 340 q 313 324 319 311 q 330 299 340 288 q 349 278 366 274 l 366 214 q 350 209 340 202 q 329 195 321 181 q 316 170 313 159 q 310 148 309 133 q 309 121 309 98 q 309 75 309 50 q 309 24 309 1 q 309 -22 309 -33 q 310 -72 306 -92 q 302 -113 295 -130 q 290 -138 286 -144 q 282 -151 276 -156 q 268 -164 262 -165 q 262 -166 260 -166 q 259 -166 259 -167 q 250 -175 236 -179 q 222 -183 215 -185 q 205 -187 182 -188 q 160 -190 140 -189 q 140 -174 140 -158 q 139 -141 139 -126 q 144 -126 148 -126 q 152 -125 154 -125 q 158 -125 162 -126 l 163 -126 q 164 -126 164 -125 q 169 -122 177 -124 q 185 -125 190 -121 q 191 -120 194 -122 q 195 -121 195 -120 q 195 -120 196 -119 q 198 -119 198 -121 q 199 -123 201 -124 q 203 -123 201 -121 q 199 -119 200 -117 q 202 -116 204 -115 q 207 -114 208 -114 q 223 -106 229 -88 q 235 -71 236 -39 l 236 31 q 236 52 236 74 q 236 97 236 118 q 236 138 237 154 q 238 170 240 178 q 245 195 252 206 q 258 218 270 228 q 275 232 282 237 q 289 242 294 245 q 296 246 294 248 q 290 250 284 254 q 279 257 277 259 q 277 263 278 264 q 279 266 276 268 q 275 267 275 265 q 275 263 273 262 q 263 270 257 278 q 251 287 246 298 q 248 306 255 306 q 262 307 266 312 z m 190 653 q 194 653 194 656 q 194 660 196 662 q 194 660 192 659 q 190 658 190 653 z m 199 657 q 200 659 202 658 q 203 658 203 660 l 199 660 q 199 657 199 657 z m 202 655 q 204 655 204 654 q 203 652 205 653 q 205 655 206 656 q 207 658 205 658 q 205 656 204 656 q 202 657 202 655 z m 172 633 q 173 632 176 632 q 178 631 179 633 q 177 633 175 635 q 174 634 173 634 q 172 635 172 633 z m 210 628 q 211 626 211 628 q 211 631 210 628 z m 286 342 q 284 341 285 344 q 286 346 284 345 q 284 344 284 342 q 285 340 286 342 z m 253 340 l 255 340 q 255 341 256 342 q 254 342 254 342 q 254 343 253 343 z m 267 312 q 269 310 268 312 q 268 314 267 312 z m 272 312 q 271 309 274 310 q 276 311 276 313 q 274 313 274 312 q 274 312 272 312 z m 269 303 l 273 303 q 273 304 272 304 q 272 305 272 306 q 270 306 269 303 z m 272 298 q 274 298 274 300 q 273 301 271 300 q 271 298 272 299 q 272 300 272 298 z m 267 285 q 269 285 270 284 q 271 283 273 284 q 274 286 272 286 q 269 285 270 287 q 271 289 272 290 q 273 290 274 292 q 273 292 272 292 q 272 293 270 292 q 268 288 267 285 z m 277 269 q 280 270 282 268 q 283 270 284 272 q 286 273 284 275 q 282 273 280 272 q 277 272 277 269 z m 252 192 q 254 193 254 192 q 255 191 257 191 q 256 194 258 194 q 260 194 261 195 q 259 196 256 196 q 254 195 253 196 q 254 194 253 194 q 252 194 252 192 z m 253 187 q 251 187 251 186 q 253 186 253 187 z m 193 -133 q 192 -138 194 -135 q 197 -132 195 -133 q 195 -135 194 -133 q 193 -131 193 -133 z m 209 -143 q 211 -142 214 -142 q 216 -143 216 -140 q 216 -138 214 -138 q 212 -139 213 -137 q 213 -133 214 -134 q 216 -136 218 -136 q 218 -130 217 -128 q 210 -129 207 -134 q 204 -138 209 -143 z m 175 -134 q 178 -135 180 -138 q 183 -140 186 -138 q 186 -136 184 -135 q 183 -134 183 -132 q 177 -132 175 -134 z m 172 -135 q 174 -135 174 -134 q 173 -132 171 -132 q 171 -134 172 -134 q 172 -134 172 -135 z m 196 -143 q 198 -143 198 -142 q 199 -140 201 -138 q 198 -139 196 -143 z"},"Z":{"x_min":0,"x_max":619,"ha":619,"o":"m 568 13 q 567 10 568 12 q 570 13 572 11 q 569 4 561 0 q 553 -4 548 -6 q 529 -11 494 -9 q 460 -7 427 -5 q 413 -5 386 -4 q 360 -4 330 -4 q 299 -4 267 -4 q 235 -4 210 -5 q 190 -5 176 -6 q 163 -7 160 -7 q 152 -7 139 -8 q 126 -9 111 -9 q 96 -9 81 -6 q 66 -3 54 4 q 41 14 39 28 q 37 43 38 56 q 39 64 44 80 q 50 95 58 103 q 63 109 88 138 q 112 166 148 209 q 184 252 228 304 q 272 357 317 410 q 362 463 404 512 q 446 562 477 599 q 477 600 478 600 q 482 602 483 602 q 484 603 484 603 q 485 605 484 606 q 483 606 484 608 q 471 610 456 610 q 442 609 429 611 q 429 610 428 610 l 426 610 q 422 608 418 608 q 413 609 408 609 q 406 609 405 610 q 404 612 402 612 q 400 611 399 610 q 398 609 396 609 q 341 607 286 609 q 231 611 177 600 q 172 599 162 594 q 153 588 148 578 q 137 559 136 545 q 135 531 134 527 q 133 509 133 493 q 133 477 133 460 q 133 443 132 432 q 132 420 127 408 q 118 391 99 391 q 85 391 72 396 q 60 402 58 426 q 58 429 58 438 q 58 447 59 460 q 60 472 62 485 q 63 498 66 508 q 71 549 65 589 q 60 613 62 633 q 65 653 78 664 q 92 673 108 674 q 124 674 151 672 q 159 671 168 670 q 177 670 185 672 q 187 673 192 673 q 198 673 203 673 q 204 670 202 670 q 200 670 201 668 q 204 668 206 670 q 207 671 209 673 q 239 674 266 674 q 292 675 319 675 q 346 675 375 674 q 404 674 438 674 q 476 673 508 674 q 539 674 556 666 q 560 664 565 661 q 570 658 575 652 q 577 650 580 646 q 583 642 581 636 q 579 631 574 636 q 570 642 565 643 q 563 638 571 633 q 579 628 575 623 q 577 621 580 623 q 582 625 584 623 q 586 618 582 617 q 578 616 578 611 q 578 606 578 600 q 577 594 573 591 l 572 589 q 572 584 566 582 q 561 579 557 576 q 556 576 556 575 l 556 573 q 555 568 552 566 q 549 564 550 560 q 549 558 549 558 q 547 557 546 556 q 546 556 544 555 q 542 548 537 544 q 532 541 530 536 l 528 534 q 527 533 527 532 q 519 526 514 518 q 508 511 500 505 q 499 505 499 504 q 498 502 498 502 q 498 500 496 498 q 495 497 495 495 q 495 494 494 493 q 493 492 493 491 q 477 474 466 460 q 454 445 437 426 q 426 413 401 384 q 376 354 344 316 q 311 278 276 237 q 240 196 208 160 q 177 123 154 96 q 130 69 123 60 q 121 57 124 57 l 241 57 q 243 57 242 54 q 242 52 244 53 q 247 53 248 54 q 250 56 252 57 q 286 57 328 56 q 369 56 404 57 q 406 57 408 56 q 410 56 412 56 q 437 60 458 62 q 480 65 495 80 q 500 85 504 92 q 507 99 510 107 q 511 107 511 111 q 511 121 514 130 q 517 139 514 147 q 512 149 512 152 q 511 163 510 174 q 510 185 508 197 q 508 200 510 204 q 512 206 510 208 q 506 216 506 223 q 506 240 513 253 q 520 266 543 268 q 566 268 572 257 q 579 246 581 229 q 581 224 580 212 q 579 200 578 185 q 577 170 576 156 q 574 141 574 132 q 574 101 577 71 q 579 61 580 52 q 580 42 581 33 q 579 30 578 29 q 577 29 577 28 l 577 25 q 578 22 576 20 q 575 17 572 19 q 573 17 574 16 q 576 15 574 12 q 571 11 570 13 q 570 15 568 13 z m 453 664 q 452 663 456 663 l 456 665 q 454 665 454 664 q 454 664 453 664 z m 189 651 q 192 651 192 656 q 194 659 196 660 q 199 662 200 665 q 198 666 197 664 q 196 663 194 665 q 195 663 193 663 q 191 663 193 661 q 192 663 194 663 q 196 663 195 661 q 193 659 192 656 q 190 654 189 651 z m 491 663 l 492 662 q 492 665 491 665 z m 374 658 q 377 656 382 658 q 381 662 378 661 q 376 660 374 658 z m 298 656 q 300 654 302 652 q 303 651 305 650 q 306 652 308 654 q 311 656 309 658 q 306 656 303 658 q 300 660 298 656 z m 363 659 q 360 659 359 658 q 361 656 363 659 z m 225 651 q 224 651 224 652 q 223 652 222 652 q 222 651 224 650 q 225 649 225 651 z m 208 645 q 208 647 209 648 q 210 649 209 651 q 207 652 206 648 q 205 645 208 645 z m 286 650 q 285 647 287 645 q 290 644 290 646 q 291 648 294 647 q 294 646 295 645 q 293 640 289 641 l 289 636 q 285 634 283 636 l 283 632 q 290 632 292 638 q 293 643 301 642 q 301 644 302 645 q 303 646 303 648 q 299 647 296 646 q 292 646 291 651 q 289 652 288 651 q 287 650 286 650 z m 192 648 q 190 650 190 648 q 190 646 192 648 z m 179 645 l 181 645 q 181 647 181 647 q 180 646 179 646 q 178 647 179 645 z m 167 638 q 167 639 168 640 q 168 640 168 641 q 166 640 166 642 q 167 643 165 642 q 163 641 164 639 q 165 637 167 638 z m 266 642 q 265 640 266 640 q 267 639 266 638 q 270 636 272 639 q 270 639 270 641 q 270 643 267 642 q 267 641 266 642 z m 413 638 q 416 636 418 635 q 420 634 423 634 q 423 638 420 639 q 418 640 416 642 q 416 640 414 640 q 413 640 413 638 z m 547 636 q 549 632 546 632 q 544 631 542 630 q 547 628 549 630 q 551 633 555 633 q 557 633 558 631 q 559 629 561 631 q 558 633 556 636 q 554 638 551 640 q 553 635 547 636 z m 502 638 q 501 637 500 638 q 500 640 499 638 q 500 638 500 637 q 501 636 502 638 z m 502 633 q 503 633 503 634 q 503 636 502 636 q 503 634 502 634 q 500 633 502 633 z m 210 628 q 212 626 212 630 q 213 634 211 633 q 210 632 210 628 z m 529 633 q 530 631 534 630 q 538 630 540 632 q 538 634 536 633 q 533 632 529 633 z m 251 624 q 258 622 262 624 q 262 627 260 628 q 257 628 254 629 q 255 627 254 626 q 252 626 251 624 z m 185 622 q 185 623 184 624 q 182 626 181 624 q 183 624 184 622 q 185 621 185 622 z m 521 622 q 519 620 520 616 q 520 612 521 608 q 518 606 517 607 q 518 605 517 604 q 516 603 518 602 q 523 605 524 610 q 526 616 532 618 q 532 620 533 620 q 534 621 533 623 q 531 625 528 623 q 525 621 521 622 z m 268 622 q 270 620 270 622 q 270 624 268 622 z m 86 611 q 86 608 89 608 q 92 607 95 607 l 95 610 q 93 610 90 612 q 88 613 86 611 z m 140 604 l 143 604 q 144 606 142 606 q 141 606 140 607 z m 514 598 q 516 600 515 601 q 513 601 513 602 q 513 603 511 602 q 511 598 514 598 z m 498 600 q 491 594 484 589 q 478 584 477 573 q 481 573 483 574 q 485 576 487 578 q 485 581 486 586 q 487 590 491 592 q 496 593 496 591 q 497 589 500 589 q 500 592 500 596 q 501 599 498 600 z m 537 592 q 539 593 539 592 q 539 591 541 592 l 541 594 q 538 594 537 592 z m 540 586 q 548 586 556 592 q 555 594 552 592 q 550 591 548 593 q 547 589 545 588 q 543 588 540 586 z m 506 584 q 504 584 503 585 q 502 583 504 583 q 506 583 506 584 z m 504 574 q 508 569 517 572 q 516 574 514 576 q 513 578 514 582 q 512 582 510 583 q 509 584 507 583 q 508 580 506 578 q 505 577 504 574 z m 464 568 q 464 570 466 570 q 468 569 468 571 q 466 571 464 570 q 462 569 464 568 z m 464 517 q 464 518 462 518 q 460 519 459 517 q 460 516 462 516 q 464 515 464 517 z m 473 512 q 473 507 477 508 q 477 513 476 513 q 476 512 473 512 z m 480 491 q 482 495 485 498 q 483 497 483 498 q 483 500 481 500 q 481 497 476 497 q 474 501 475 501 q 473 498 476 496 q 478 493 480 491 z m 417 490 q 418 491 420 490 q 422 490 423 492 q 421 493 419 492 q 417 492 417 490 z m 425 434 l 429 434 l 429 438 q 429 443 427 443 q 425 441 426 439 q 427 437 425 434 z m 318 337 q 317 337 317 338 q 317 338 316 338 q 315 336 317 336 q 319 336 318 337 z m 313 309 q 315 308 315 309 q 315 310 316 311 q 313 311 313 309 z m 513 67 q 516 67 516 69 q 515 69 514 70 q 514 70 513 70 z m 520 62 q 523 61 523 66 l 521 66 q 522 64 521 64 q 520 64 520 62 z m 405 44 q 404 42 406 41 q 407 40 406 38 l 411 38 q 410 43 412 44 q 415 46 415 50 q 411 50 410 48 q 408 45 405 44 z m 276 52 q 280 52 280 54 q 276 56 276 52 z m 566 41 q 567 39 568 38 q 569 37 571 35 q 571 37 572 38 q 572 38 572 39 q 570 40 569 42 q 568 43 566 41 z m 555 39 q 557 37 558 37 q 558 39 556 40 q 555 41 555 39 z m 419 43 l 417 43 z m 382 34 q 384 32 382 31 q 380 30 382 28 q 388 30 388 34 q 387 34 386 35 q 384 36 382 34 z m 570 25 q 572 25 573 26 q 571 26 570 25 z m 351 45 q 351 47 350 48 q 350 45 351 45 z m 397 24 q 394 24 394 23 q 396 23 397 24 z m 410 15 q 412 15 414 17 q 410 17 410 15 z m 413 6 q 413 5 415 3 q 416 5 418 6 q 419 7 417 8 q 417 6 415 7 q 413 8 413 6 z"},"x":{"x_min":0,"x_max":637,"ha":637,"o":"m 278 21 q 280 22 280 20 q 281 18 279 17 q 277 17 276 18 q 276 20 278 21 z m 397 217 q 403 211 412 200 q 420 190 429 179 q 438 168 446 158 q 454 149 458 145 q 459 144 461 140 q 463 135 465 133 q 466 132 466 131 q 466 129 468 128 q 471 128 474 126 l 475 125 q 475 123 476 123 q 477 123 477 121 q 477 120 478 119 q 487 111 496 101 q 504 91 512 81 q 521 71 529 65 q 537 59 550 58 q 549 53 552 50 q 554 52 552 54 q 551 56 553 58 q 569 58 583 60 q 597 63 605 55 q 598 53 594 59 q 592 58 592 56 q 591 54 589 54 q 594 52 600 51 q 606 50 607 56 q 612 56 610 54 q 609 52 611 50 q 613 49 612 51 q 612 53 613 53 q 616 54 620 48 q 625 41 625 31 q 625 -2 593 -5 q 585 -6 573 -6 q 561 -5 554 -3 q 540 -1 524 0 q 507 2 502 2 q 488 2 476 2 q 463 2 451 0 q 436 -1 421 -3 q 406 -5 389 -5 q 377 -5 366 -4 q 355 -2 347 5 q 342 10 340 18 q 338 27 341 40 q 342 41 342 41 q 348 41 349 42 q 346 43 348 46 q 350 49 349 51 q 349 53 350 53 q 355 58 364 60 q 374 61 382 61 q 395 60 406 58 q 416 56 426 58 q 429 59 430 62 q 431 65 429 68 q 422 78 418 82 q 414 86 409 93 q 403 100 394 110 q 386 120 377 130 q 368 141 360 150 q 352 160 348 165 q 340 173 332 182 q 325 192 315 203 q 312 206 312 203 q 306 197 300 190 q 293 183 288 176 q 283 171 271 157 q 259 143 249 132 q 244 126 238 119 q 232 112 222 101 q 215 93 206 82 q 197 71 194 66 q 192 61 194 60 q 196 59 198 58 q 200 57 203 58 q 206 58 211 58 q 218 59 224 60 q 229 60 237 60 q 243 62 254 60 q 261 59 270 56 q 280 53 285 42 q 288 35 288 24 q 288 14 281 6 q 274 -2 264 -4 q 255 -5 242 -5 q 228 -6 216 -4 q 205 -3 188 -1 q 176 0 162 1 q 148 2 134 2 q 129 1 127 2 q 125 2 121 4 q 119 4 120 4 q 122 3 121 1 q 108 0 95 -2 q 82 -3 66 -4 q 52 -5 40 -5 q 28 -5 17 1 q 11 5 7 10 q 3 15 3 26 q 3 43 10 50 q 16 58 30 60 q 38 62 54 60 q 69 59 73 59 q 81 59 87 62 q 93 65 101 71 q 117 84 134 104 q 150 124 164 140 q 173 151 186 166 q 199 180 211 194 q 213 196 213 194 q 213 193 215 194 q 217 194 216 196 q 216 198 219 197 q 220 199 218 199 q 216 199 217 201 q 223 207 230 216 q 238 225 246 234 q 253 242 259 249 q 265 256 267 258 l 267 261 q 264 264 261 268 q 249 282 237 296 q 225 311 214 324 q 209 329 213 329 q 217 327 222 323 q 227 319 233 317 q 230 321 225 326 q 220 330 222 332 q 225 337 228 337 q 232 337 237 339 q 237 341 234 342 q 232 342 233 344 q 232 339 230 338 q 229 338 227 339 q 225 340 223 340 q 221 340 220 337 q 218 334 218 338 q 217 341 216 341 q 214 341 214 339 q 213 337 211 336 q 207 334 206 335 q 204 336 202 338 q 197 345 192 350 q 187 355 181 363 q 168 378 156 392 q 144 407 130 423 q 120 435 111 438 q 107 440 100 440 q 94 441 88 441 q 79 440 70 436 q 62 433 55 434 q 50 434 47 436 l 44 436 q 43 436 42 436 q 42 435 40 435 q 39 435 38 437 q 38 439 37 440 q 35 441 36 440 q 36 438 34 437 q 26 441 24 446 q 22 450 20 454 q 26 456 26 457 q 24 459 24 458 q 23 458 20 459 q 17 466 20 478 q 21 480 21 480 q 23 482 25 481 q 29 492 34 496 q 40 499 48 499 q 59 501 74 500 q 90 498 109 496 q 125 494 140 493 q 155 492 171 494 q 189 496 206 497 q 224 498 240 500 q 250 500 259 500 q 268 500 277 495 q 290 489 293 471 q 293 466 293 464 q 293 461 291 454 q 289 449 284 442 q 278 436 259 434 q 259 436 262 436 q 262 438 260 438 q 259 438 258 439 q 256 439 256 437 q 257 435 257 434 q 249 433 240 436 q 231 439 222 441 q 217 442 215 440 q 214 439 218 434 q 221 428 226 422 q 228 420 233 414 q 238 407 244 399 q 251 391 258 383 q 265 375 270 369 q 281 355 292 342 q 303 328 314 314 q 314 313 315 313 l 316 313 q 320 319 323 321 q 325 321 326 319 q 326 317 328 319 q 329 320 328 322 q 326 323 327 327 q 329 329 330 328 q 331 327 333 328 q 335 328 335 331 q 335 336 337 338 q 346 349 356 360 q 366 372 375 383 q 379 388 386 396 q 392 403 398 411 q 405 419 410 426 q 416 432 418 435 q 420 438 418 440 q 416 442 411 441 q 406 440 393 436 q 385 434 376 434 q 368 435 363 437 q 355 441 352 444 q 346 452 346 462 q 345 473 347 480 q 350 490 360 495 q 371 500 385 500 q 389 500 394 500 q 400 499 411 498 q 424 496 438 495 q 451 494 463 494 q 472 493 488 493 q 503 493 515 494 q 523 495 529 496 q 535 496 541 497 q 546 497 556 498 q 566 499 573 500 q 581 500 587 500 q 593 500 599 498 q 607 496 615 490 q 623 485 624 470 q 626 454 620 447 q 615 440 608 437 q 603 435 594 434 q 585 434 574 436 q 566 438 560 440 q 553 441 545 441 q 531 440 521 432 q 519 432 512 426 q 506 421 500 416 q 492 408 480 395 q 469 382 456 368 q 434 342 408 313 q 382 284 362 260 q 361 260 361 260 q 361 259 362 259 q 364 257 366 254 q 369 250 369 246 q 370 245 370 245 q 373 246 373 245 q 373 244 376 242 q 378 241 376 240 q 375 238 375 236 q 376 235 376 235 q 378 235 378 236 q 379 238 381 237 l 381 236 q 382 234 382 234 q 384 231 384 231 l 381 231 l 381 230 q 386 228 390 224 q 395 220 397 217 z m 252 480 q 253 480 256 483 q 255 483 252 480 z m 512 478 q 514 475 514 478 q 513 480 512 478 z m 518 474 q 519 476 522 476 q 524 475 523 472 q 524 470 521 470 q 518 470 520 468 q 521 470 522 468 q 524 466 526 467 q 524 472 526 474 q 524 475 522 476 q 521 478 517 478 q 517 474 518 474 z m 265 475 q 264 473 262 471 q 261 469 261 466 q 266 467 268 468 q 270 469 274 466 q 274 471 272 474 q 270 477 265 475 z m 242 466 q 247 469 249 474 q 240 474 242 466 z m 401 468 q 402 470 405 468 q 406 472 402 471 q 398 470 401 468 z m 591 466 q 591 468 590 468 q 588 468 586 469 q 585 467 587 466 q 589 464 591 466 z m 115 451 q 119 452 118 450 q 118 448 123 450 l 123 456 q 128 457 130 458 q 132 459 137 457 q 135 462 140 464 q 146 466 147 463 q 146 462 145 462 q 144 463 144 462 q 148 461 148 459 q 147 457 145 455 q 147 454 148 455 q 150 456 151 454 q 152 451 150 450 q 149 450 148 448 q 150 447 150 448 q 151 449 153 449 q 154 456 152 460 q 150 463 149 468 q 129 463 115 451 z m 202 465 q 198 457 192 455 q 193 453 193 452 q 193 451 194 450 q 196 450 200 451 q 205 452 204 447 q 202 446 200 448 q 198 449 194 448 q 194 446 192 446 q 191 445 191 443 q 196 444 202 444 q 207 444 211 446 q 211 448 210 448 q 209 449 209 452 q 208 452 206 452 q 204 451 205 453 q 206 456 207 454 q 208 453 210 455 q 210 457 209 458 q 208 460 207 462 q 212 462 213 460 q 214 457 212 456 q 211 455 213 453 q 215 452 215 454 q 215 456 217 456 q 217 458 215 458 q 213 459 214 462 q 224 461 229 467 q 223 466 216 466 q 209 466 202 465 z m 53 463 l 55 463 q 56 465 54 465 q 52 465 52 463 z m 55 462 q 59 461 59 464 q 55 464 55 462 z m 24 460 q 23 463 23 466 q 23 470 20 471 q 22 469 21 465 q 20 461 24 460 z m 352 458 q 352 461 350 462 q 350 460 352 458 z m 265 457 q 266 456 269 451 q 268 449 267 448 q 266 447 267 445 q 272 445 270 450 q 269 456 273 454 q 274 460 270 460 q 267 461 265 457 z m 401 460 q 402 458 402 460 q 402 462 401 460 z m 555 459 q 553 459 553 458 q 555 458 555 459 z m 31 447 l 33 447 q 34 449 32 450 q 30 450 30 448 q 31 448 31 447 z m 37 443 q 39 441 39 444 q 38 444 37 445 z m 256 441 q 256 443 255 443 q 255 441 256 441 z m 554 443 q 549 444 550 442 q 552 441 554 443 z m 430 395 q 429 395 430 396 q 430 398 428 397 q 428 396 429 394 q 430 393 430 395 z m 202 396 q 204 394 206 393 q 207 392 210 390 q 210 393 211 393 q 212 391 213 391 q 214 391 216 389 q 216 394 220 392 q 224 390 225 395 q 220 397 213 396 q 206 395 202 396 z m 196 386 q 200 386 200 388 q 200 390 198 392 q 196 390 196 386 z m 193 384 q 195 383 196 383 q 196 383 198 382 q 198 384 198 384 q 197 384 197 386 q 193 386 193 384 z m 409 381 q 411 380 412 382 q 411 382 410 382 q 410 383 409 383 z m 262 366 q 261 366 261 365 q 261 366 262 366 q 262 365 262 366 z m 370 356 q 372 357 372 358 q 371 359 372 362 q 370 362 370 363 q 370 364 368 363 q 367 360 368 360 q 370 359 370 356 z m 218 351 q 219 347 220 350 q 220 353 218 351 z m 209 346 q 213 346 213 348 q 212 348 212 348 q 211 349 209 349 z m 278 344 q 277 346 278 346 q 280 347 278 348 q 277 348 276 346 q 276 345 278 344 z m 266 348 q 264 346 264 347 q 266 347 266 348 z m 384 329 q 384 332 382 332 q 383 331 382 330 q 382 328 384 329 z m 262 301 q 262 299 260 294 q 259 289 263 288 q 262 297 268 298 q 275 300 280 301 q 280 305 277 306 q 274 306 272 308 q 270 306 268 304 q 266 302 262 301 z m 368 305 q 368 306 370 306 q 371 307 369 308 q 369 307 368 306 q 366 306 368 305 z m 381 303 q 382 305 380 306 q 379 306 380 308 q 377 307 375 308 q 371 305 375 302 q 379 299 381 303 z m 342 298 q 340 298 338 298 q 336 298 338 300 l 335 300 q 335 297 338 296 q 340 295 342 298 z m 387 222 q 389 223 389 221 q 389 219 391 219 q 392 221 390 221 q 388 221 390 223 q 388 223 388 224 q 388 224 387 222 z m 269 227 q 269 225 270 225 q 272 225 273 224 q 274 226 273 226 q 272 226 273 228 q 271 228 271 228 q 271 227 269 227 z m 283 219 q 283 221 282 222 q 280 222 278 223 q 278 221 283 219 z m 261 208 q 263 208 262 206 q 262 203 263 202 q 265 203 266 202 q 267 202 269 202 q 271 207 274 208 q 278 209 282 210 q 280 215 278 216 q 276 211 272 210 q 267 208 261 208 z m 238 212 q 236 209 239 210 q 242 211 238 212 z m 389 208 q 391 208 392 206 q 393 205 394 207 q 393 207 393 210 q 391 210 391 211 q 391 212 390 212 q 390 209 389 208 z m 246 198 q 246 195 248 195 q 251 195 250 192 q 252 194 254 194 q 257 194 259 196 q 259 196 252 196 q 252 201 251 201 q 249 198 246 198 z m 376 196 l 378 196 q 378 197 376 199 z m 390 194 q 394 194 392 188 q 391 183 393 179 q 394 181 397 181 q 396 184 397 188 q 398 191 396 196 q 391 196 390 194 z m 245 186 q 247 184 247 186 q 247 189 245 186 z m 228 174 q 227 172 225 171 q 223 170 224 166 q 227 165 229 168 q 231 170 233 167 q 232 169 232 170 q 233 170 233 172 q 229 172 230 176 q 232 179 234 179 q 232 181 230 180 q 228 179 226 180 q 226 178 227 177 q 228 176 228 174 z m 242 169 q 243 169 243 170 q 243 171 244 171 q 247 170 248 170 q 250 171 253 172 q 255 170 257 168 q 259 167 262 166 q 260 171 256 172 q 253 173 255 178 q 249 179 246 177 q 243 175 237 175 q 239 169 238 164 q 237 160 236 155 q 238 158 243 160 q 248 162 247 166 q 246 164 244 166 q 242 167 242 169 z m 403 171 q 403 172 400 169 q 404 164 400 158 q 401 157 401 156 q 405 156 406 157 q 404 161 407 163 q 403 164 404 166 q 404 169 405 171 q 405 173 403 175 q 401 177 399 175 q 404 173 403 171 z m 395 175 q 393 175 393 174 q 395 176 395 175 z m 218 170 q 219 170 219 169 q 219 172 218 172 z m 353 168 q 351 168 350 168 q 350 169 349 169 q 348 167 350 166 q 353 166 353 168 z m 177 149 q 178 149 179 148 q 180 146 181 148 q 180 148 180 150 q 177 150 177 149 z m 183 145 q 183 145 185 143 q 187 144 188 145 q 188 146 190 148 q 187 146 185 149 q 185 147 184 147 q 182 147 183 145 z m 187 137 q 190 134 192 135 q 193 136 193 138 q 193 139 192 140 q 190 140 187 137 z m 214 141 q 214 142 214 144 q 215 146 213 147 q 213 145 212 143 q 211 141 214 141 z m 388 141 q 387 142 387 143 q 387 144 385 143 q 384 141 386 140 q 388 139 388 141 z m 376 138 q 379 138 379 140 q 378 140 376 138 z m 389 138 q 390 136 390 138 q 390 140 389 138 z m 192 130 q 192 128 191 127 q 193 127 193 126 q 193 126 195 126 q 194 127 196 128 q 197 130 195 131 q 195 130 192 130 z m 211 134 q 210 135 212 136 q 213 137 211 137 q 210 136 210 135 q 210 134 211 134 z m 166 127 q 166 125 168 124 q 170 122 168 120 q 170 120 170 122 q 171 123 174 122 q 177 121 179 116 q 185 117 185 124 q 178 124 175 127 q 172 130 166 127 z m 386 129 q 384 132 380 132 q 380 129 386 129 z m 405 129 q 405 127 403 128 q 401 128 400 129 q 399 125 404 126 q 408 127 405 129 z m 393 125 q 393 124 394 124 q 394 125 395 125 q 396 125 396 126 l 393 126 z m 194 110 q 192 112 194 112 q 195 113 195 116 q 193 116 192 116 q 191 117 189 117 q 187 110 194 110 z m 436 105 q 440 103 442 107 q 443 111 445 113 q 440 113 439 110 q 438 107 436 105 z m 189 100 q 189 101 190 101 q 190 103 188 103 q 188 101 189 100 z m 483 60 q 480 65 482 69 q 480 69 480 70 q 481 71 479 71 q 477 69 478 66 q 478 64 476 63 q 478 62 480 60 q 482 59 483 60 z m 126 66 q 128 64 128 66 q 128 69 126 66 z m 120 65 q 121 62 121 64 q 121 67 120 65 z m 228 46 q 233 46 233 50 q 232 50 232 50 q 232 51 231 51 q 231 49 230 48 q 228 48 228 46 z m 158 57 q 159 57 161 55 q 161 56 162 56 q 162 57 162 59 q 160 59 158 57 z m 168 57 q 166 57 166 56 q 168 56 168 57 z m 181 49 q 183 50 184 50 q 184 49 185 50 q 183 51 183 52 q 183 53 181 54 z m 263 51 q 264 51 264 50 q 265 50 267 50 q 266 51 266 52 q 267 53 266 54 q 266 52 264 52 q 263 53 263 51 z m 74 50 q 72 50 72 49 q 74 51 74 50 z m 556 45 q 561 45 561 49 q 559 48 558 48 q 557 49 555 49 q 554 47 556 45 z m 589 58 q 585 59 586 58 q 588 56 589 58 z m 202 37 q 204 46 193 48 q 196 44 196 42 q 197 39 202 37 z m 35 52 q 34 52 34 51 q 35 51 35 52 z m 93 44 q 92 45 92 46 q 91 48 90 46 q 92 47 92 44 q 92 42 93 44 z m 541 43 q 542 45 544 44 q 546 43 547 45 q 546 45 546 46 q 546 47 545 47 q 543 46 540 46 q 538 45 541 43 z m 583 52 q 584 53 585 54 q 586 54 586 56 q 585 55 584 54 q 582 52 583 52 z m 262 38 q 260 40 260 42 q 259 44 256 44 q 254 37 262 38 z m 555 43 q 556 41 556 44 q 556 46 555 43 z m 132 41 q 134 39 134 41 q 134 43 132 41 z m 274 38 q 276 37 278 39 q 279 41 277 42 q 276 40 275 40 q 274 40 274 38 z m 152 38 q 154 36 156 36 q 158 37 158 39 q 156 39 154 40 q 152 40 152 38 z m 132 37 q 133 37 133 36 q 133 36 134 36 q 134 39 132 38 z m 215 34 q 218 34 218 37 q 217 37 217 38 q 217 38 215 38 z m 353 43 q 354 41 354 44 q 354 46 353 43 z m 396 27 q 394 29 393 30 q 392 31 390 33 q 391 31 392 28 q 394 26 396 27 z m 83 28 q 81 28 81 30 q 81 33 78 32 q 78 30 79 30 q 80 30 79 28 q 81 29 82 28 q 83 26 83 28 z m 153 30 q 151 30 152 31 q 152 32 150 32 q 149 30 151 29 q 153 28 153 30 z m 28 24 q 30 26 32 30 q 30 34 23 36 q 22 32 26 31 q 31 30 28 24 z m 201 29 q 201 27 202 26 q 203 26 204 24 q 205 26 205 26 q 205 27 206 29 q 204 29 203 30 q 202 31 201 29 z m 352 27 q 355 28 357 30 q 359 33 357 36 q 355 36 354 34 q 354 33 352 33 q 350 35 349 36 q 348 36 347 38 q 348 33 352 27 z m 24 27 q 24 30 23 31 q 19 27 24 27 z m 489 22 q 491 21 492 22 q 492 23 494 24 q 491 24 490 25 q 488 23 489 22 z m 62 28 q 62 24 63 28 q 64 31 62 28 z m 496 22 q 497 22 496 21 q 498 20 498 21 q 498 22 500 22 q 501 24 498 24 q 496 24 496 22 z m 131 23 q 130 23 130 22 q 130 23 130 22 q 131 22 131 23 z m 202 18 q 205 18 205 22 q 204 22 202 18 z m 24 17 q 19 15 22 20 q 15 16 20 13 q 26 10 30 12 q 31 9 30 9 q 28 9 28 7 q 30 7 32 8 q 34 9 36 9 q 36 11 34 12 q 33 12 34 15 q 30 14 30 17 q 30 20 26 18 q 25 20 25 22 q 25 24 23 23 q 21 21 24 20 q 27 19 24 17 z m 501 10 q 502 9 504 10 q 505 12 503 13 q 503 11 502 12 q 500 12 501 10 z m 115 11 l 113 11 z m 207 4 q 206 6 209 4 q 212 3 213 5 q 211 5 210 6 q 210 8 208 9 q 208 7 206 6 q 205 5 207 4 z m 161 2 l 164 2 q 165 4 163 6 q 161 7 160 5 q 161 4 161 2 z m 416 -2 q 416 0 418 -1 q 420 -2 420 0 q 418 0 418 1 q 418 2 416 1 q 417 -1 416 -2 q 414 -2 416 -2 z"},")":{"x_min":0,"x_max":455,"ha":455,"o":"m 310 229 q 309 228 305 230 q 306 232 308 232 q 310 232 310 229 z m 276 44 q 275 46 276 46 q 276 47 276 49 q 281 59 284 72 q 288 85 294 98 l 294 100 q 294 101 295 102 q 294 107 297 114 q 300 120 301 126 q 302 129 301 131 q 300 133 300 135 q 302 150 304 170 q 305 189 305 203 q 307 207 308 208 q 310 208 312 212 q 312 216 311 218 q 310 220 311 224 q 313 225 313 223 q 313 221 314 221 q 315 229 318 235 q 322 241 319 248 q 316 247 316 244 q 316 240 314 238 q 312 237 310 237 q 309 237 309 234 q 307 234 306 237 q 306 240 305 242 q 304 250 304 255 q 304 260 303 267 q 301 292 296 322 q 292 351 284 380 q 278 400 272 416 q 265 432 260 452 q 259 454 255 456 q 252 459 252 461 q 250 465 248 468 q 246 471 245 474 q 245 478 243 478 q 240 482 238 486 q 236 489 233 494 q 233 498 232 499 q 231 500 229 503 q 227 506 226 508 q 224 510 222 511 l 219 513 q 215 519 210 524 q 206 528 201 535 q 181 557 160 578 q 140 598 117 618 l 114 619 q 112 620 111 621 q 110 622 108 623 q 106 623 104 625 q 102 627 102 628 q 101 630 99 632 q 96 635 95 635 q 91 635 89 636 q 84 641 78 642 q 73 644 66 648 q 50 656 40 662 q 31 667 26 670 q 18 675 18 684 q 18 693 25 695 q 29 697 37 697 q 44 697 48 696 q 53 696 60 694 q 63 692 64 691 q 65 690 67 689 l 72 689 l 73 689 q 75 688 75 688 q 80 685 86 684 q 92 683 97 681 q 118 672 144 658 q 170 644 194 627 q 220 608 242 588 q 264 568 283 543 q 297 527 317 494 q 337 462 350 429 q 359 407 367 378 q 375 348 379 325 q 385 287 388 236 q 391 186 383 139 q 373 83 356 46 q 340 8 317 -26 q 313 -29 310 -32 q 307 -36 303 -40 q 302 -40 302 -41 l 302 -43 q 302 -44 302 -45 q 303 -46 301 -48 q 283 -71 262 -92 q 242 -112 216 -132 q 195 -149 180 -158 q 165 -167 146 -177 q 127 -187 114 -192 q 102 -198 88 -203 q 74 -208 63 -210 q 52 -212 44 -212 q 39 -212 34 -210 q 28 -209 26 -203 q 23 -195 32 -187 q 42 -179 55 -173 q 69 -166 81 -159 q 93 -152 100 -147 q 106 -148 108 -143 q 111 -138 116 -136 q 121 -132 130 -126 q 140 -119 150 -112 q 160 -104 168 -97 q 177 -90 182 -86 q 183 -85 183 -84 q 183 -83 184 -83 q 184 -81 186 -79 q 188 -77 190 -75 q 191 -75 191 -74 q 191 -73 192 -72 q 210 -55 226 -34 q 243 -12 257 11 q 262 19 264 24 q 266 30 271 38 q 274 41 275 41 q 275 42 276 42 q 276 43 276 44 z m 65 686 q 66 684 66 686 q 66 689 65 686 z m 83 663 q 83 665 82 665 q 82 663 83 663 z m 93 660 q 93 661 92 661 q 91 661 91 660 q 93 660 93 660 z m 120 658 q 121 656 121 658 q 121 661 120 658 z m 169 611 q 172 612 172 617 q 171 622 168 623 q 167 621 168 618 q 170 615 169 611 z m 196 603 q 196 604 195 604 q 194 604 194 603 q 196 603 196 603 z m 275 504 q 278 504 278 506 q 276 506 276 507 q 277 508 275 508 z m 309 433 q 311 434 311 432 q 311 429 313 429 q 312 431 314 433 q 309 435 309 433 z m 318 411 q 317 413 318 413 q 320 413 320 415 q 319 415 319 416 q 319 416 318 416 q 319 414 318 413 q 316 412 318 411 z m 291 404 q 292 405 289 407 q 289 404 291 404 z m 316 405 q 317 405 319 407 q 316 407 316 405 z m 331 383 q 331 387 331 387 q 329 388 329 386 q 329 383 331 383 z m 336 362 q 336 364 337 368 q 338 371 342 369 l 342 372 q 337 373 335 367 q 333 361 336 362 z m 305 355 q 305 362 303 363 q 301 361 302 359 q 303 357 305 355 z m 318 355 q 317 357 317 358 q 317 359 315 359 q 315 355 318 355 z m 326 355 q 330 355 331 357 q 329 357 327 357 q 325 357 326 355 z m 335 353 q 336 353 336 354 q 336 356 335 356 q 336 355 334 354 q 333 353 335 353 z m 307 353 q 306 353 306 354 q 306 354 305 354 q 304 353 305 352 q 306 351 307 353 z m 317 327 q 322 325 324 330 q 319 333 317 327 z m 362 324 q 364 323 364 325 q 364 327 365 328 q 364 329 363 329 q 362 329 362 328 q 364 328 363 326 q 362 325 362 324 z m 348 321 q 347 323 348 324 q 350 324 348 325 q 348 324 347 323 q 346 322 348 321 z m 347 299 q 345 299 344 300 q 344 300 342 299 l 339 293 q 336 293 336 294 q 336 292 335 292 q 334 291 333 289 q 337 287 334 284 q 332 280 334 277 q 340 282 343 290 q 346 297 351 304 q 356 306 358 310 q 360 314 362 319 q 360 319 360 321 q 357 319 356 318 q 354 318 349 320 q 349 316 352 316 q 354 315 354 312 q 354 309 352 309 q 349 309 348 309 q 347 307 348 304 q 349 301 347 299 z m 324 314 q 324 316 324 318 q 325 319 323 320 q 323 318 322 316 q 322 314 324 314 z m 324 264 q 324 264 326 262 q 327 265 329 268 q 331 271 331 273 l 327 273 q 325 271 326 268 q 326 266 324 264 z m 325 261 q 326 258 326 260 q 326 263 325 261 z m 318 256 q 321 252 315 250 q 318 251 318 250 q 319 248 321 249 q 322 252 322 254 q 321 255 324 257 q 322 258 318 256 z m 362 241 q 362 244 366 244 q 369 243 369 247 q 366 247 363 245 q 360 243 362 241 z m 333 242 q 335 241 336 243 q 337 245 335 245 q 335 244 334 244 q 332 244 333 242 z m 326 227 q 326 225 327 225 q 327 226 328 226 q 329 226 329 227 q 326 227 326 227 z m 325 218 q 327 217 327 220 q 327 222 325 221 z m 344 215 q 347 214 347 219 l 344 219 q 344 217 343 216 q 342 216 344 215 z m 375 205 q 375 210 374 211 l 371 211 q 371 209 375 205 z m 320 205 q 320 202 325 200 q 327 202 326 203 q 325 204 325 206 q 323 206 322 205 q 322 204 320 205 z m 350 204 q 348 204 348 203 q 350 203 350 204 z m 375 200 q 375 202 376 202 q 376 201 376 202 q 375 202 375 203 q 375 204 374 204 q 374 200 375 200 z m 309 188 q 311 186 314 189 q 317 192 314 194 q 312 192 311 191 q 310 190 309 188 z m 325 181 l 329 181 q 328 183 328 184 q 328 186 326 187 q 327 185 325 181 z m 380 184 q 381 180 382 184 q 382 187 380 184 z m 320 166 q 321 168 322 166 q 323 165 324 165 q 326 170 322 169 q 317 168 320 166 z m 343 163 q 345 162 346 164 q 347 166 345 167 q 345 165 344 165 q 342 165 343 163 z m 358 140 q 355 144 353 139 q 355 140 358 140 z m 348 123 q 349 120 349 122 q 349 125 348 123 z m 314 120 q 314 120 312 122 q 311 120 312 119 q 314 118 314 120 z m 322 104 q 322 105 324 106 q 325 108 322 108 q 323 107 322 106 q 320 105 322 104 z m 313 96 q 315 97 315 96 q 315 95 317 94 q 319 96 318 96 q 316 97 316 99 q 314 99 312 96 q 311 94 313 96 z m 300 94 q 300 97 298 97 q 298 94 300 94 z m 315 89 q 314 85 316 86 q 318 88 315 89 z m 294 71 q 294 68 295 68 q 296 72 299 70 q 302 68 302 72 q 299 72 298 71 q 296 70 294 71 z m 307 71 q 304 73 304 71 q 305 69 307 71 z m 301 57 q 299 56 299 56 q 301 56 301 57 z m 291 51 q 293 53 291 54 q 289 54 289 52 q 290 52 291 51 z m 279 43 q 282 43 284 46 q 282 46 280 46 q 278 45 279 43 z m 286 22 q 287 25 284 27 q 282 29 281 28 q 282 26 282 24 q 283 21 286 22 z m 278 24 q 278 25 278 27 q 278 29 276 28 q 275 27 276 25 q 276 23 278 24 z m 311 19 q 312 17 312 20 q 312 22 311 19 z m 296 -8 q 296 -6 298 -6 q 299 -6 298 -4 q 297 -5 296 -4 q 296 -3 295 -4 q 295 -8 296 -8 z m 275 -8 q 275 -7 274 -7 q 273 -7 273 -8 q 275 -8 275 -8 z m 251 -43 q 255 -44 256 -42 q 253 -42 253 -41 l 253 -37 q 257 -37 256 -34 l 253 -34 q 251 -38 251 -43 z m 281 -44 l 283 -44 q 283 -43 284 -41 q 284 -39 283 -37 q 282 -39 280 -40 q 279 -42 281 -44 z m 258 -47 q 259 -49 259 -46 q 259 -44 258 -47 z m 259 -56 q 259 -52 257 -52 q 257 -56 259 -56 z m 240 -58 q 238 -58 238 -59 q 240 -57 240 -58 z m 85 -171 q 83 -169 84 -166 q 86 -164 84 -162 q 82 -164 82 -167 q 83 -170 85 -171 z m 91 -165 q 92 -164 90 -162 q 87 -165 91 -165 z m 74 -177 q 75 -180 78 -180 q 81 -180 81 -176 q 79 -175 78 -176 q 77 -178 74 -177 z"},"&":{"x_min":0,"x_max":819,"ha":819,"o":"m 377 231 q 375 229 374 227 q 374 225 370 226 q 365 229 365 232 q 365 235 368 237 q 370 239 374 238 q 377 237 377 231 z m 108 185 q 109 183 106 183 q 104 183 105 186 q 107 187 106 186 q 106 185 108 185 z m 345 406 q 348 402 342 400 q 338 398 338 401 q 339 404 337 402 q 334 400 336 400 q 338 400 338 398 q 333 395 326 391 q 319 387 315 385 q 317 380 319 378 q 321 375 324 370 q 320 368 318 365 q 317 362 315 359 q 317 355 322 358 q 327 360 329 362 q 331 358 332 355 q 334 352 338 347 q 351 327 364 306 q 378 286 392 266 q 393 263 391 262 q 389 262 387 261 q 389 258 391 260 q 393 261 395 263 q 403 251 412 239 q 420 227 430 213 q 432 210 435 213 q 439 226 450 256 q 460 286 474 320 q 488 355 504 388 q 521 420 536 437 q 537 437 537 438 q 537 439 538 439 q 542 443 545 443 l 546 445 q 546 447 547 449 q 548 451 548 453 q 553 456 556 460 q 559 464 564 469 q 576 480 590 488 q 603 497 611 500 q 626 507 647 512 q 660 514 678 514 q 696 515 713 511 q 734 506 756 494 q 777 483 794 457 q 805 440 808 424 q 811 408 812 392 q 814 352 796 323 q 777 294 744 274 q 729 266 700 262 q 670 259 641 273 q 636 276 626 284 q 615 291 610 304 q 600 329 607 352 q 609 359 616 370 q 624 381 647 380 q 670 379 674 370 q 679 361 681 356 q 683 349 681 342 q 679 336 677 331 q 680 330 686 329 q 691 328 693 328 q 708 328 718 336 q 728 345 735 357 q 741 369 740 382 q 740 396 736 410 q 732 422 720 432 q 709 441 701 443 q 678 450 660 447 q 642 444 631 439 q 617 431 611 424 q 605 417 601 414 q 593 406 589 400 q 585 394 583 387 q 583 384 581 384 q 580 383 579 383 q 578 383 577 382 q 576 382 576 380 q 576 378 576 376 q 575 374 574 371 l 574 370 q 573 369 573 369 q 569 361 568 357 q 561 341 554 326 q 547 310 539 288 q 530 263 522 243 q 515 223 508 206 q 502 190 496 176 q 489 161 482 148 q 481 148 481 146 q 481 145 482 145 q 489 136 488 134 l 488 133 q 496 127 503 121 q 510 115 518 107 q 535 91 550 82 q 566 74 586 69 q 598 67 606 66 q 615 65 622 65 q 630 65 638 66 q 647 67 659 69 q 662 68 666 70 q 668 70 669 68 q 670 67 673 67 q 677 67 678 69 q 680 71 683 71 q 689 70 695 69 q 701 68 707 65 q 712 61 717 52 q 722 44 720 31 q 718 8 704 4 q 689 -1 676 -1 q 653 -2 626 -2 q 599 -3 574 -1 q 547 1 527 10 q 507 19 490 32 q 480 37 463 52 q 446 67 432 81 q 430 81 430 80 q 430 80 428 79 l 427 78 q 426 77 426 77 q 424 75 423 72 q 422 68 421 68 q 410 57 402 48 q 393 40 381 32 q 357 15 332 8 q 308 0 279 -4 q 244 -9 201 -3 q 158 3 126 24 q 108 35 90 54 q 71 72 64 86 q 58 94 54 104 q 55 109 54 109 q 53 109 51 111 l 51 114 q 51 119 52 120 l 52 121 q 47 123 47 124 q 50 128 50 130 q 50 131 48 132 q 47 133 45 135 q 43 137 42 142 q 34 175 36 206 q 39 238 46 259 q 51 276 58 288 q 64 301 72 313 q 79 321 96 340 q 112 359 144 377 l 147 377 q 150 377 152 379 q 156 385 164 388 q 166 388 168 390 q 174 395 187 402 q 200 408 208 412 q 202 423 196 435 q 190 447 180 468 q 176 475 170 490 q 165 504 160 522 q 156 539 154 557 q 153 575 156 589 q 158 597 159 602 q 160 608 164 611 l 164 613 q 164 615 165 618 q 166 620 166 623 q 171 635 178 644 q 186 654 197 664 q 226 691 265 697 q 304 703 338 699 q 388 693 420 664 q 453 635 458 593 q 463 545 448 513 q 434 481 414 457 q 400 443 387 432 q 374 420 358 410 q 353 411 351 409 q 349 407 345 406 z m 310 676 q 309 677 310 678 q 312 679 309 679 q 309 676 310 676 z m 309 664 q 306 664 306 666 q 306 669 302 670 q 302 666 303 664 q 304 663 301 661 q 303 659 303 657 q 306 659 309 662 q 312 666 312 668 q 310 667 310 666 q 311 664 309 664 z m 389 663 q 387 661 389 661 q 391 661 389 663 z m 370 643 q 372 641 369 640 q 366 640 366 638 q 368 637 368 636 q 368 636 370 636 q 371 638 373 638 q 375 638 377 639 q 378 642 378 642 q 378 643 378 646 q 379 648 381 648 q 383 647 385 648 q 386 650 385 650 q 384 650 384 652 q 386 654 388 654 q 390 654 391 656 q 389 658 388 657 q 386 656 384 657 q 380 654 378 649 q 376 644 370 643 z m 388 645 q 390 644 390 644 q 390 643 392 643 q 394 645 393 647 q 392 649 390 651 q 391 648 390 648 q 388 647 388 645 z m 411 639 q 415 637 417 629 q 420 630 420 630 q 420 631 423 631 q 423 635 424 638 q 424 642 422 643 q 420 639 416 640 q 413 640 411 639 z m 431 626 q 433 626 434 628 q 436 629 434 630 q 433 629 431 628 q 429 628 431 626 z m 348 623 q 338 630 327 632 q 316 634 300 635 q 286 633 268 625 q 249 617 241 595 q 236 581 236 568 q 237 554 242 535 q 244 527 249 514 q 254 502 260 489 q 266 476 272 464 q 277 452 281 445 q 292 450 296 452 q 301 455 306 458 q 315 464 326 471 q 336 478 344 487 q 357 501 368 518 q 378 536 378 568 q 377 576 376 582 q 376 589 371 599 q 368 606 363 610 q 358 615 357 623 q 355 621 352 622 q 350 623 348 623 z m 358 624 q 361 626 364 627 q 367 628 368 633 q 366 634 364 634 q 363 633 361 635 q 363 631 360 630 q 358 629 358 624 z m 431 622 q 431 623 432 624 q 433 625 431 625 q 430 624 430 623 q 430 622 431 622 z m 374 623 q 373 621 374 620 q 375 620 374 618 q 379 620 379 623 q 379 623 374 623 z m 412 599 q 417 598 414 602 q 412 607 417 606 q 419 608 418 611 q 416 614 414 612 q 416 609 414 606 q 411 604 412 599 z m 168 611 l 166 611 q 168 611 168 611 z m 173 607 q 171 607 171 608 q 171 609 169 609 q 167 607 170 606 q 173 606 173 607 z m 410 594 q 411 594 411 593 l 413 593 q 413 596 412 596 q 412 595 411 595 q 410 595 410 594 z m 197 601 q 199 603 202 604 q 205 604 206 609 q 201 611 198 608 q 196 604 197 601 z m 192 590 q 191 590 191 592 q 191 594 190 592 q 191 592 190 590 q 190 588 192 590 z m 197 588 q 195 590 195 588 q 195 586 197 588 z m 198 581 q 198 584 197 585 q 197 583 196 582 q 196 580 198 581 z m 199 577 q 202 575 202 578 q 200 578 199 577 z m 674 484 q 676 479 677 479 q 684 484 688 492 q 692 499 696 507 q 693 506 691 504 q 689 502 686 501 q 688 498 686 496 q 683 493 681 491 q 681 489 682 489 q 684 489 683 487 q 679 479 674 484 z m 158 561 q 159 559 160 561 q 162 563 164 562 q 164 565 161 564 q 158 563 158 561 z m 621 470 q 623 473 620 476 q 618 478 618 482 q 612 482 610 486 q 608 489 603 486 q 604 483 606 480 q 607 478 604 474 q 608 475 610 478 q 612 480 618 478 q 619 476 621 470 z m 660 475 q 662 474 662 472 q 661 471 663 471 q 665 473 664 474 q 664 474 664 476 q 661 476 660 475 z m 606 468 q 609 468 610 470 q 606 470 606 468 z m 601 450 q 601 451 602 451 q 602 453 600 453 q 600 451 601 450 z m 553 410 q 552 412 550 413 q 548 414 547 416 q 556 427 570 432 q 585 437 596 447 q 593 450 591 448 q 589 445 586 444 q 578 446 575 441 q 572 436 564 437 q 562 439 561 440 q 560 441 558 443 q 558 441 556 442 q 554 442 552 440 q 553 438 556 437 q 559 436 558 433 q 553 431 550 427 q 547 423 540 424 q 541 418 536 416 q 531 415 531 412 q 538 417 542 410 q 546 404 540 399 q 545 398 548 400 q 551 402 555 402 q 557 402 556 400 q 556 399 557 399 q 558 401 560 400 q 563 398 565 400 q 566 404 564 405 q 561 406 561 408 q 566 413 562 410 q 558 408 553 410 z m 204 474 q 204 475 204 475 q 205 475 205 477 l 203 477 q 201 474 204 474 z m 566 425 q 567 423 567 425 q 567 427 566 425 z m 567 415 q 569 414 572 415 q 570 415 570 417 q 571 419 569 420 q 567 416 567 415 z m 521 407 q 523 407 525 405 q 526 407 528 408 q 531 410 529 412 q 528 408 526 408 q 523 409 521 407 z m 554 395 q 556 398 554 398 q 552 397 554 395 z m 533 394 q 532 392 534 391 q 535 390 534 387 q 538 387 539 384 q 540 382 543 381 q 545 383 542 384 q 539 386 542 389 q 537 389 537 391 q 537 393 538 394 q 540 396 538 397 q 536 394 533 394 z m 552 376 q 554 376 554 374 q 559 376 559 377 q 557 380 556 382 q 554 384 557 387 q 555 386 555 387 q 555 388 553 388 q 553 385 554 382 q 554 378 552 376 z m 547 388 q 545 388 545 387 q 547 387 547 388 z m 572 378 q 573 375 573 378 q 573 380 572 378 z m 655 356 q 657 355 661 355 q 663 357 662 360 q 662 363 659 363 q 658 361 656 360 q 654 358 655 356 z m 522 378 q 524 371 533 374 q 529 375 529 382 q 523 382 522 378 z m 551 376 q 549 376 548 376 q 548 377 546 378 q 544 376 548 376 q 551 375 551 376 z m 642 359 q 645 357 645 361 q 644 361 642 359 z m 631 349 q 630 350 629 350 q 628 350 628 349 q 629 349 630 348 q 631 347 631 349 z m 626 357 q 627 354 628 356 q 628 359 626 357 z m 621 354 q 619 354 619 353 q 621 353 621 354 z m 653 348 q 651 343 656 344 q 661 345 661 341 q 661 339 660 339 q 658 339 658 337 q 660 335 664 334 q 668 334 667 329 q 667 326 664 324 q 662 323 664 321 q 671 323 669 333 q 667 343 665 348 q 663 345 659 346 q 655 346 653 348 z m 653 338 q 652 337 652 335 q 654 335 654 336 q 655 337 657 338 q 655 339 655 338 q 655 338 653 338 z m 331 343 q 330 344 328 344 q 327 343 327 342 q 325 340 328 341 q 332 342 331 343 z m 322 339 q 324 337 325 337 q 325 338 323 340 q 322 339 322 339 z m 323 221 q 319 226 309 240 q 299 254 288 271 q 280 282 274 293 q 267 304 263 311 q 256 322 251 330 q 246 338 241 347 q 238 351 236 349 q 224 344 210 336 q 197 327 189 321 q 185 318 180 314 q 176 311 172 307 q 153 290 142 269 q 130 248 126 230 q 123 219 122 204 q 120 190 121 180 q 123 169 124 160 q 126 151 133 134 q 136 129 138 123 q 141 117 143 112 q 143 111 145 109 q 147 107 148 106 q 155 101 161 96 q 167 92 172 86 q 174 82 181 80 q 186 78 189 76 q 192 75 190 70 q 193 69 192 72 q 191 75 193 75 q 197 73 201 72 q 205 71 210 69 q 225 67 237 66 q 249 64 264 65 q 280 66 290 68 q 299 70 306 72 q 314 75 320 78 q 326 82 334 86 q 353 97 368 113 q 382 129 387 135 q 379 145 374 152 q 369 158 361 169 q 368 183 372 204 q 377 224 385 235 q 381 240 383 252 q 379 250 372 248 q 364 246 360 242 q 365 242 365 237 q 364 235 362 235 q 359 235 357 237 q 350 235 350 229 q 353 226 353 227 q 355 227 356 230 q 356 232 359 230 q 361 229 361 225 q 364 223 368 222 q 373 221 372 215 q 371 214 370 214 q 368 214 366 213 q 366 211 366 210 q 365 209 365 208 q 365 206 366 206 q 368 206 369 205 q 366 200 362 193 q 359 186 355 182 q 358 182 358 179 q 359 176 357 175 q 355 176 351 182 q 347 188 342 195 q 336 202 331 209 q 326 216 323 221 z m 342 325 q 346 324 350 322 q 349 320 348 316 q 348 313 346 311 q 351 312 351 318 q 351 323 350 326 q 347 326 346 328 q 345 329 342 330 q 342 328 342 328 q 343 327 342 325 z m 337 325 q 337 326 336 326 q 335 326 335 325 q 337 325 337 325 z m 358 309 q 358 305 359 300 q 360 295 366 293 q 363 306 354 317 q 351 315 353 312 q 355 308 358 309 z m 354 304 q 356 308 351 308 q 351 304 354 304 z m 116 323 q 116 326 115 327 q 114 325 116 323 z m 119 319 q 121 319 122 320 q 119 320 119 319 z m 128 311 q 131 308 133 310 q 135 311 136 313 q 136 315 135 317 q 134 319 132 317 q 137 315 134 314 q 130 313 128 311 z m 120 316 q 121 314 120 313 q 119 312 119 310 q 122 310 128 312 q 125 313 126 315 q 126 317 127 319 q 124 319 123 318 q 125 317 124 316 q 122 315 120 316 z m 334 279 q 337 281 339 284 q 341 288 343 290 q 338 290 337 286 q 336 282 334 279 z m 367 279 q 369 278 371 283 q 370 284 365 284 q 363 281 365 281 q 367 281 367 279 z m 360 275 l 361 276 q 361 278 360 278 q 360 275 360 275 z m 356 261 q 357 264 358 266 q 359 268 361 270 q 360 270 360 270 q 360 271 358 271 q 357 269 356 266 q 354 263 356 261 z m 94 282 q 94 278 90 278 q 86 282 88 284 q 85 286 84 284 q 82 283 79 284 q 81 280 78 277 q 75 274 75 269 q 75 268 76 268 q 76 268 76 267 q 74 261 77 258 q 84 260 86 256 q 88 252 89 249 q 91 251 90 252 q 90 254 90 258 q 81 256 82 264 q 82 272 86 274 q 91 276 94 274 q 98 271 98 266 q 98 267 103 267 q 102 269 100 272 q 99 275 104 274 q 105 276 103 276 q 101 277 102 280 q 108 279 113 286 q 108 285 104 282 q 99 280 94 282 z m 346 255 q 349 253 349 256 q 346 256 346 255 z m 344 250 q 344 249 344 250 q 343 250 343 249 q 344 249 344 250 z m 126 265 q 128 266 130 265 q 132 264 133 265 q 133 268 130 268 q 127 268 126 265 z m 337 234 q 342 233 341 238 q 340 244 339 246 q 337 243 338 240 q 339 237 337 234 z m 108 264 q 106 264 106 264 q 106 265 104 266 q 103 264 105 263 q 107 262 108 264 z m 402 230 q 402 233 400 233 q 398 230 402 230 z m 94 260 q 95 260 96 258 q 97 257 98 259 q 96 260 96 262 q 95 263 94 260 z m 414 227 l 412 227 l 411 227 q 410 226 412 226 q 413 226 414 227 z m 66 243 q 71 243 74 246 q 78 250 74 255 q 72 253 70 250 q 67 248 66 243 z m 400 221 l 400 219 q 402 218 402 220 q 403 222 401 222 q 401 221 400 221 z m 411 215 q 412 218 410 218 q 409 217 411 215 z m 435 199 q 441 200 442 196 q 443 196 443 198 q 443 199 445 200 q 441 204 442 209 q 443 214 450 213 q 443 218 440 211 q 437 204 435 199 z m 400 212 q 399 214 400 215 q 402 216 400 216 q 400 215 399 214 q 398 212 400 212 z m 119 228 q 118 227 116 228 q 115 228 115 226 q 117 225 118 226 q 120 227 122 227 q 121 229 123 230 q 125 232 124 237 q 122 237 120 239 q 119 241 117 239 q 116 236 118 234 q 120 232 119 228 z m 456 204 q 456 206 455 206 q 455 205 456 204 q 456 202 456 204 z m 114 231 q 114 232 116 233 q 117 234 115 235 q 115 234 114 233 q 112 232 114 231 z m 363 204 q 364 202 364 204 q 365 206 363 204 z m 434 194 q 435 194 436 196 q 436 198 434 198 q 435 197 434 196 q 432 195 434 194 z m 112 223 q 112 224 112 225 q 111 226 112 228 q 107 229 108 225 q 110 221 112 223 z m 408 184 q 411 184 411 184 q 409 186 409 186 q 408 184 408 184 z m 422 179 q 424 179 424 174 q 426 174 429 176 q 432 177 431 179 q 429 176 426 178 q 424 181 422 179 z m 104 207 q 102 209 99 208 q 98 206 101 206 q 104 206 104 207 z m 470 149 q 476 154 470 160 q 465 166 457 166 q 458 165 458 164 q 457 164 458 163 q 459 162 460 161 q 462 160 463 159 q 465 156 466 153 q 467 150 470 149 z m 101 181 q 100 179 102 179 q 103 179 103 177 q 105 176 106 177 q 106 178 107 178 q 108 177 108 176 q 108 174 110 173 q 112 175 112 176 q 111 178 111 180 q 113 181 112 180 q 112 180 114 180 q 117 185 116 190 q 116 194 111 196 q 110 195 108 194 q 107 194 106 192 q 111 189 112 188 q 111 186 109 187 q 107 188 107 186 q 110 182 106 179 q 103 176 101 181 z m 93 173 l 99 170 q 101 171 102 172 q 102 173 104 173 q 103 173 103 174 q 103 175 102 175 q 101 173 98 174 q 95 175 93 173 z m 106 171 l 104 171 q 106 171 106 171 z m 127 130 q 127 131 126 131 q 125 131 125 130 q 127 130 127 130 z m 127 119 q 127 121 128 121 q 130 121 129 123 q 127 126 125 127 q 125 120 127 119 z m 140 105 q 141 107 142 107 q 142 107 143 109 q 141 109 140 108 q 138 106 140 105 z m 64 111 q 62 111 62 108 q 65 107 66 110 q 67 114 64 114 q 64 114 64 111 z m 137 103 q 135 103 135 104 q 135 106 133 106 q 132 104 134 103 q 136 102 137 103 z m 67 102 l 68 102 q 70 104 68 104 q 66 105 66 103 q 67 103 67 102 z m 72 99 q 74 98 76 99 q 79 100 76 102 q 76 100 74 100 q 73 100 72 99 z m 159 86 q 162 86 166 82 q 166 82 166 86 q 164 88 163 89 q 162 90 159 90 z m 152 84 q 151 82 153 82 q 155 82 156 80 q 156 82 157 82 q 158 83 159 85 q 158 85 157 86 q 156 88 155 86 q 157 84 155 83 q 153 82 152 84 z m 81 78 q 81 81 78 83 q 78 79 81 78 z m 198 70 q 197 70 197 70 q 197 69 196 69 l 195 69 q 194 68 196 68 q 198 69 198 70 z m 195 57 q 196 59 198 60 q 199 60 200 62 q 198 63 196 64 q 193 66 191 64 q 194 62 194 60 q 194 59 195 57 z m 143 63 q 142 65 143 65 q 144 65 144 67 q 142 68 142 66 q 141 63 143 63 z m 153 58 q 155 58 155 57 q 155 56 157 56 q 157 61 155 61 q 154 60 154 60 q 154 59 153 58 z m 179 53 q 180 51 178 52 q 177 52 177 50 q 181 50 182 48 q 182 47 184 45 q 182 43 178 39 q 174 35 177 31 q 177 36 183 39 q 182 43 184 44 q 187 44 184 49 q 186 50 188 50 q 191 51 190 53 q 187 51 185 52 q 183 54 179 53 z"},"_":{"x_min":0,"x_max":500,"ha":500,"o":"m 500 -133 q 494 -133 456 -133 q 418 -133 365 -133 q 312 -133 250 -133 q 189 -133 136 -133 q 82 -133 44 -133 q 6 -133 0 -133 l 0 -67 l 164 -67 q 166 -67 168 -68 q 169 -69 171 -70 q 172 -71 174 -70 q 175 -70 176 -70 q 178 -69 184 -67 l 189 -67 q 205 -70 224 -68 q 243 -67 258 -67 l 500 -67 z m 161 -129 q 161 -130 163 -130 q 163 -129 161 -129 z m 380 -117 q 382 -119 382 -117 q 382 -117 380 -117 z m 132 -114 q 134 -114 134 -112 q 134 -110 135 -108 q 132 -108 130 -108 q 128 -107 126 -107 q 127 -112 132 -114 z m 159 -103 q 157 -105 154 -106 q 151 -106 149 -108 q 149 -113 155 -112 q 161 -110 159 -103 z m 159 -101 q 160 -103 160 -101 q 161 -99 159 -101 z m 161 -100 q 163 -100 163 -100 q 163 -99 165 -99 q 165 -97 163 -98 q 161 -98 160 -96 q 158 -97 160 -98 q 162 -98 161 -100 z m 247 -97 q 248 -99 248 -96 q 249 -94 247 -97 z m 187 -96 q 188 -98 188 -96 q 188 -94 187 -96 z m 192 -95 q 197 -93 196 -88 q 194 -86 193 -88 q 192 -90 190 -88 q 189 -89 190 -92 q 190 -94 192 -95 z m 248 -92 q 247 -88 243 -88 q 243 -90 248 -92 z m 121 -78 q 124 -80 129 -79 q 134 -78 136 -76 q 128 -78 123 -75 q 122 -76 122 -76 q 122 -77 121 -78 z"},"v":{"x_min":0,"x_max":601,"ha":601,"o":"m 268 450 q 263 444 258 441 q 254 438 245 436 q 239 435 233 434 q 227 434 217 436 q 208 438 204 438 q 200 438 193 440 l 188 440 q 175 436 176 425 q 177 420 178 416 q 179 411 180 407 q 181 400 188 380 q 196 359 205 335 q 214 311 222 288 q 231 266 235 255 q 239 243 249 217 q 259 191 270 162 q 280 134 290 109 q 299 84 303 73 q 305 69 307 73 q 309 78 311 84 q 313 91 315 96 q 315 98 317 100 q 322 108 324 118 q 327 127 331 135 l 331 137 q 331 138 332 138 q 332 138 332 139 q 332 144 333 146 q 336 154 343 174 q 350 193 358 215 q 366 237 373 257 q 380 277 385 286 l 385 288 q 390 309 397 327 q 404 345 412 364 q 417 378 420 387 q 423 396 427 408 q 430 418 429 423 q 428 428 427 430 q 424 438 416 440 q 408 442 400 440 q 390 439 379 436 q 368 434 355 435 q 344 437 335 444 q 326 450 327 469 q 329 484 336 490 q 344 496 355 499 q 372 503 388 500 q 405 497 420 495 q 421 495 426 494 q 431 494 433 494 q 448 492 463 492 q 478 492 493 494 q 507 495 522 496 q 536 498 549 500 q 554 501 560 501 q 566 501 571 501 q 597 499 605 490 q 613 480 612 465 q 609 441 592 437 q 587 436 582 435 q 576 434 569 436 q 563 437 560 437 q 557 437 556 438 q 554 438 551 438 q 548 439 542 440 q 529 442 522 428 q 516 420 514 418 q 507 407 501 390 q 495 374 489 361 q 489 360 488 358 q 488 357 488 356 q 486 345 482 339 q 480 337 480 335 q 474 315 468 301 q 462 287 452 262 q 440 231 428 202 q 417 173 404 139 q 395 116 387 96 q 379 75 371 54 q 367 45 362 37 q 358 29 355 18 q 354 17 354 16 q 347 10 344 4 l 344 3 q 341 1 338 -2 q 335 -5 333 -7 l 332 -8 q 327 -10 324 -11 q 321 -12 316 -14 l 314 -14 q 313 -14 309 -16 q 301 -18 290 -16 q 279 -14 271 -9 q 262 -3 256 4 q 250 11 245 22 q 230 57 220 84 q 209 112 195 149 q 195 151 194 154 q 194 157 194 159 q 191 166 185 173 q 179 193 172 210 q 165 227 156 249 q 139 290 124 332 q 109 373 92 413 q 86 428 78 434 q 70 440 66 440 l 54 440 q 43 439 32 436 q 20 432 4 438 q 2 442 -4 446 q -10 450 -12 457 q -12 458 -12 459 q -11 460 -11 461 q -10 463 -10 464 q -11 466 -9 467 q -7 469 -9 471 q -11 473 -10 477 q -7 488 0 492 q 6 497 15 499 q 26 501 40 500 q 54 500 63 498 q 78 496 98 494 q 117 491 140 492 q 151 494 167 494 q 183 495 192 497 q 200 499 207 500 q 214 502 222 502 q 228 502 235 501 q 242 500 248 499 q 259 496 262 491 q 265 486 270 478 l 270 476 q 271 474 271 474 q 271 468 269 464 q 267 459 269 454 q 269 453 268 453 q 268 453 268 452 z m 233 492 q 232 491 236 489 q 236 491 237 492 q 235 493 235 492 q 235 492 233 492 z m 160 486 q 165 483 168 478 q 171 474 179 473 q 179 478 174 478 q 170 478 173 483 q 170 484 166 488 q 162 492 160 486 z m 555 482 q 556 484 556 486 q 557 487 559 489 l 554 489 q 555 487 554 484 q 553 482 555 482 z m 544 488 q 545 486 546 488 q 546 490 544 488 z m 550 478 q 550 480 551 480 q 552 480 552 482 l 550 482 q 550 480 549 480 q 548 479 550 478 z m 185 468 q 184 468 184 470 q 185 471 183 470 q 182 469 184 468 q 185 466 185 468 z m 238 481 q 239 478 239 480 q 239 483 238 481 z m 194 448 q 194 453 196 453 q 199 451 201 448 q 203 445 206 447 q 204 449 203 452 q 202 454 199 455 q 197 455 196 454 q 194 452 192 454 q 193 457 196 457 q 195 462 188 464 q 189 459 188 454 q 188 449 194 448 z m 448 478 q 450 476 450 478 q 449 480 448 478 z m 220 472 q 221 473 222 475 q 223 477 221 478 q 221 477 220 476 q 218 474 220 472 z m 146 466 q 144 467 146 468 q 147 470 145 471 q 144 469 144 466 q 144 464 146 466 z m 149 465 q 147 466 147 466 q 146 464 148 464 q 150 464 149 465 z m 156 444 q 155 439 160 437 q 160 439 160 442 q 161 445 158 445 q 158 442 156 444 z m 536 451 l 537 451 q 538 453 536 454 z m 159 393 q 157 393 157 392 q 159 392 159 393 z m 153 387 q 154 385 154 387 q 154 389 153 387 z m 161 352 q 161 355 156 355 q 156 353 158 353 q 159 353 161 352 z m 149 348 q 150 346 150 348 q 150 350 149 348 z m 151 340 q 151 342 149 340 q 150 341 150 340 q 151 339 151 340 z m 400 270 q 403 270 404 272 q 406 274 406 276 q 407 279 408 280 q 409 282 412 281 q 412 286 405 286 q 405 281 404 278 q 402 275 400 270 z m 262 125 q 261 125 260 126 q 260 126 258 126 q 258 124 260 124 q 262 123 262 125 z m 255 111 q 257 111 258 114 q 259 116 256 117 q 257 115 255 114 q 253 112 255 111 z m 256 104 q 256 107 253 110 q 252 108 253 106 q 254 104 256 104 z m 238 107 q 239 105 240 108 q 240 110 238 107 z m 249 87 q 247 89 247 87 q 247 85 249 87 z m 320 82 q 318 77 320 75 q 320 78 320 80 q 321 82 322 84 q 321 84 321 84 q 321 85 319 84 q 319 83 320 83 q 320 83 320 82 z m 267 75 q 269 77 268 78 q 266 78 265 76 q 266 76 266 76 q 266 75 267 75 z m 284 73 q 286 71 286 71 q 288 73 287 74 q 284 74 284 73 z m 290 69 q 287 64 290 66 q 292 67 290 69 z m 296 68 q 296 69 296 69 q 295 69 295 68 q 296 68 296 68 z m 329 69 q 327 69 327 68 q 329 70 329 69 z m 304 24 q 307 26 308 24 q 310 21 312 19 q 314 21 313 22 q 312 24 313 25 q 315 25 315 24 q 315 22 317 21 q 321 24 326 28 q 330 33 332 37 q 331 35 330 36 q 328 36 326 35 q 325 36 325 36 q 325 37 323 38 q 323 33 321 33 q 320 35 318 36 q 317 37 315 39 q 314 37 316 36 q 317 36 318 35 q 316 34 317 32 q 318 31 316 30 q 311 31 307 37 q 309 38 310 39 q 312 40 314 41 q 312 42 314 44 q 315 45 313 46 q 309 47 307 46 q 305 44 301 44 q 299 44 300 46 q 301 47 299 47 q 299 46 296 46 q 294 45 296 43 q 297 46 300 44 q 302 43 303 41 q 302 39 300 40 q 299 42 298 40 q 302 38 300 34 q 299 29 300 26 q 302 26 302 28 q 302 30 305 30 q 307 28 305 26 q 303 24 304 24 z m 285 36 q 287 37 287 36 q 287 35 289 35 q 290 38 288 38 q 285 38 285 36 z m 292 35 q 292 34 292 34 q 291 35 291 34 q 292 34 292 35 z m 291 29 q 292 28 294 27 q 296 26 296 28 q 294 28 294 30 q 293 31 291 33 z m 277 3 l 277 5 q 278 5 278 6 q 277 7 274 8 q 270 8 272 7 q 274 6 274 5 q 275 4 277 3 z m 280 6 q 282 4 284 4 q 286 5 288 5 q 286 5 286 6 q 286 8 284 8 q 283 6 282 6 q 281 7 280 6 z"},"O":{"x_min":0,"x_max":655,"ha":655,"o":"m 327 692 q 351 692 366 691 q 381 690 401 685 q 405 685 405 683 q 410 681 416 680 q 421 678 427 676 q 430 676 431 675 q 445 669 458 662 q 470 655 483 648 q 484 648 485 647 q 486 646 487 646 q 489 644 490 642 q 492 641 494 639 q 495 639 498 636 q 519 626 533 609 q 547 592 560 574 q 561 571 560 570 l 560 568 q 566 564 568 557 q 569 550 574 545 q 574 544 575 543 l 575 541 q 575 540 576 540 q 584 518 594 497 q 604 476 605 448 q 605 447 606 444 q 606 442 606 441 q 608 433 609 426 q 610 418 612 411 q 612 410 612 408 q 613 407 613 406 q 615 386 618 366 q 620 345 618 322 q 616 303 614 283 q 611 263 609 243 q 609 242 608 240 q 608 237 608 236 q 600 199 590 170 q 581 142 565 119 q 563 117 563 115 q 562 113 561 110 q 560 108 559 106 q 559 105 558 105 q 558 105 558 104 q 557 103 557 102 q 553 97 550 92 q 546 88 542 83 q 542 83 540 81 q 539 80 539 79 q 531 72 524 63 q 517 54 508 49 q 505 46 505 46 q 491 31 471 20 q 451 10 434 -1 q 434 -4 430 -4 q 410 -12 384 -16 q 359 -20 334 -20 q 310 -21 290 -19 q 269 -17 257 -14 q 234 -7 216 0 q 197 8 179 19 q 159 31 144 46 q 128 62 110 83 q 99 97 92 112 q 84 126 76 141 q 65 162 59 185 q 53 208 50 226 q 47 240 44 254 q 42 267 41 286 q 40 311 38 337 q 37 363 43 383 l 43 387 q 42 389 43 392 q 44 395 43 400 q 43 401 44 402 q 44 403 44 404 q 45 409 46 414 q 47 419 47 425 l 47 430 q 50 444 52 458 q 55 471 58 483 q 58 486 60 488 q 61 491 64 492 q 62 494 63 496 q 64 497 64 499 l 64 501 q 69 509 72 518 q 75 528 79 538 q 91 560 100 574 q 110 588 118 598 q 126 608 133 615 q 140 622 148 629 q 165 643 184 654 q 203 666 225 674 q 238 679 251 682 q 264 686 278 688 l 282 688 q 291 689 302 690 q 314 692 327 692 z m 269 665 q 272 665 272 667 q 269 667 269 665 z m 285 659 q 287 661 284 661 q 282 661 282 660 z m 272 647 q 271 647 270 648 q 270 648 269 648 q 268 646 270 646 q 272 645 272 647 z m 228 644 q 228 647 227 647 q 224 644 228 644 z m 368 640 q 366 640 365 639 q 368 639 368 640 z m 228 640 q 229 642 226 642 q 226 640 228 640 z m 264 638 q 266 637 266 638 q 265 639 266 640 q 263 640 264 638 z m 435 627 q 435 629 433 629 q 433 627 435 627 z m 267 626 q 267 631 267 631 q 265 630 265 628 q 265 626 267 626 z m 242 624 q 244 624 244 622 q 244 620 247 621 q 249 623 251 624 q 253 624 255 626 q 253 628 253 630 q 249 630 248 627 q 246 624 242 624 z m 192 629 q 190 626 193 627 q 196 628 192 629 z m 261 621 l 259 620 q 258 618 260 619 q 262 620 261 621 z m 397 64 q 407 72 418 75 q 421 75 423 77 q 438 86 450 98 q 463 110 474 124 q 484 138 492 152 q 499 167 504 180 q 509 195 514 209 q 518 223 522 240 q 525 256 528 275 q 530 294 531 319 l 531 324 q 527 332 528 341 q 528 350 527 359 q 527 364 526 370 q 524 375 524 380 q 524 384 525 388 q 526 392 525 396 q 525 399 524 402 q 523 405 523 408 q 522 413 522 416 q 522 420 522 425 q 521 428 522 431 q 522 434 522 436 q 521 440 519 443 q 517 446 517 451 q 516 455 514 457 q 512 459 511 463 q 509 469 508 474 q 506 478 504 482 q 503 483 503 485 q 503 487 503 488 q 501 492 501 495 q 500 497 499 498 q 498 499 497 501 q 495 503 495 507 q 494 514 492 520 q 490 526 488 532 q 488 533 487 535 q 486 537 486 538 q 471 562 452 578 q 433 594 414 603 q 394 612 376 616 q 358 619 345 620 q 335 620 318 620 q 301 619 280 614 q 260 610 239 600 q 218 589 199 569 q 174 543 159 510 q 144 476 139 450 q 134 427 131 408 q 128 389 126 373 q 126 373 126 369 l 126 367 q 127 365 127 360 l 127 354 q 122 334 126 312 q 130 289 132 267 l 132 263 q 132 262 133 261 q 135 255 136 250 q 136 246 136 241 q 137 231 141 223 q 145 215 146 205 q 147 201 146 200 q 145 200 145 197 q 147 190 150 184 q 152 179 152 171 q 154 169 156 168 q 157 167 159 165 q 163 152 170 144 q 177 135 181 123 q 181 122 182 121 q 183 120 183 119 q 192 113 197 103 q 201 101 202 100 q 203 100 205 98 q 205 97 206 96 q 208 95 209 94 q 215 92 222 86 q 228 79 234 76 q 236 76 239 73 q 240 71 244 68 q 249 66 250 67 q 254 67 256 65 q 267 58 282 54 q 296 49 311 48 q 326 46 340 48 q 355 49 366 54 l 371 54 q 373 53 376 53 q 376 54 377 54 q 378 54 378 55 q 381 58 384 60 q 388 63 394 62 q 397 62 397 64 z m 491 598 q 491 599 493 601 q 492 601 492 602 l 490 602 q 490 599 491 598 z m 226 610 q 228 608 228 610 q 228 612 226 610 z m 455 599 q 457 598 456 596 q 455 595 457 595 q 457 597 459 596 q 461 596 461 598 q 460 599 458 600 q 456 601 455 599 z m 462 596 q 464 596 464 594 q 464 592 466 592 q 466 595 468 596 q 469 596 470 598 q 468 600 466 598 q 464 596 462 596 z m 484 597 q 482 597 480 598 q 478 600 476 598 q 478 598 480 596 q 482 595 484 597 z m 490 590 q 493 591 493 593 q 491 593 491 595 q 491 597 489 597 q 487 595 488 594 q 490 592 490 590 z m 524 588 q 525 586 525 588 q 525 590 524 588 z m 504 580 q 506 580 507 579 q 508 578 510 579 q 511 582 509 582 q 507 582 505 584 q 504 583 504 580 z m 488 582 q 490 580 492 579 q 493 578 495 576 q 495 579 492 580 q 490 582 488 582 z m 528 580 q 528 581 528 581 q 527 581 527 580 q 528 579 528 580 z m 531 579 q 531 577 534 578 q 537 578 536 580 q 532 580 531 579 z m 521 549 q 523 548 524 550 q 524 551 526 550 q 529 547 528 545 q 530 545 530 546 q 530 547 532 546 q 531 552 536 553 q 540 554 542 557 q 538 556 531 554 q 524 553 521 549 z m 548 542 q 548 544 547 545 q 547 543 548 542 z m 125 554 q 128 554 128 554 q 127 554 127 556 q 127 557 125 556 z m 567 528 q 569 527 571 529 q 568 529 567 528 z m 551 522 q 548 522 545 522 q 542 522 542 519 q 546 520 548 516 q 551 513 556 515 q 558 517 558 520 q 559 522 564 521 q 564 525 565 526 q 561 526 560 528 q 558 529 553 528 q 552 526 552 524 q 553 523 551 522 z m 103 525 q 104 527 105 525 q 106 523 108 524 q 107 526 109 526 q 111 527 110 529 q 108 529 108 530 q 107 530 105 530 q 106 528 103 528 q 100 527 103 525 z m 522 508 q 523 506 523 505 q 523 504 524 503 q 528 503 532 501 q 533 503 530 503 q 528 503 529 505 q 529 508 531 508 q 533 507 535 507 q 536 509 538 512 q 539 514 538 515 q 534 513 530 511 q 527 509 522 508 z m 94 520 q 96 519 98 521 q 95 521 94 520 z m 91 519 q 93 517 92 519 q 92 521 91 519 z m 510 502 q 511 498 514 496 q 517 495 518 491 q 518 495 523 498 q 521 499 522 501 q 522 503 520 505 q 515 506 514 504 q 513 501 510 502 z m 82 514 q 84 514 85 514 q 86 515 88 515 q 87 517 88 518 q 90 518 88 519 q 86 517 84 518 q 81 518 82 514 z m 75 510 q 75 504 79 504 q 78 506 78 508 q 79 511 77 511 q 76 510 75 510 z m 109 500 q 107 500 107 499 q 109 499 109 500 z m 531 480 q 531 482 532 482 q 533 482 534 484 q 532 486 531 484 q 530 481 531 480 z m 95 496 q 99 496 99 499 q 95 497 95 496 z m 76 496 q 78 494 78 495 q 78 496 80 495 q 81 499 78 498 q 76 498 76 496 z m 100 470 q 102 470 102 471 q 103 472 105 472 l 105 473 q 104 473 104 474 q 104 474 103 474 q 103 472 101 472 q 99 473 100 470 z m 60 460 q 61 458 62 460 q 62 462 60 460 z m 570 421 l 570 419 q 572 418 572 420 q 572 422 571 422 q 571 421 570 421 z m 582 408 l 583 408 q 585 410 583 410 q 581 411 581 409 q 582 409 582 408 z m 569 405 q 569 408 566 408 q 566 405 569 405 z m 584 399 q 584 401 585 400 q 586 400 586 402 q 584 403 584 404 q 583 404 581 405 q 582 403 582 402 q 582 400 584 399 z m 570 395 q 572 394 572 396 q 572 399 570 398 z m 575 393 q 576 392 579 392 q 579 394 577 396 q 577 394 576 394 q 575 395 575 393 z m 568 389 l 570 389 q 572 391 568 391 z m 581 379 q 582 379 582 374 q 586 373 586 377 q 581 376 584 380 q 586 383 583 383 q 584 381 582 381 q 581 381 581 379 z m 116 360 q 120 361 120 364 q 120 366 122 369 q 120 369 120 370 q 120 371 118 370 q 118 367 116 364 q 114 362 116 360 z m 55 361 q 57 361 57 363 q 55 363 55 361 z m 42 333 q 44 332 44 333 q 45 334 47 334 q 49 339 55 341 q 61 343 64 348 q 59 346 58 348 q 55 343 50 340 q 46 338 42 333 z m 115 306 q 117 306 118 305 q 120 304 121 306 l 121 309 q 119 308 119 310 q 119 311 117 311 q 116 310 116 308 q 117 307 115 306 z m 95 300 q 91 299 91 301 q 91 303 89 303 q 88 300 90 299 q 93 298 95 300 z m 576 280 q 573 282 570 284 q 566 287 563 285 q 566 284 570 281 q 573 278 576 280 z m 81 296 q 81 295 84 292 q 84 294 85 294 q 86 294 87 295 q 85 300 81 296 z m 83 278 q 83 282 76 282 q 76 278 83 278 z m 92 196 q 94 195 94 197 q 95 199 93 200 q 93 198 92 198 q 91 198 92 196 z m 186 86 q 185 87 185 88 q 185 89 183 90 q 181 88 182 86 q 184 84 186 86 z"},"(":{"x_min":0,"x_max":455,"ha":455,"o":"m 427 692 q 432 684 428 678 q 424 672 416 668 q 394 656 378 646 q 361 637 341 624 q 328 615 315 605 q 302 595 293 586 q 282 577 276 571 q 270 565 259 558 q 258 558 258 555 q 258 554 255 551 q 251 549 249 546 q 247 542 243 540 q 241 540 241 537 q 241 535 239 533 q 238 532 236 530 q 235 529 235 528 q 233 526 232 526 q 231 526 230 524 q 219 508 209 490 q 199 473 189 456 q 181 450 180 440 q 179 429 172 422 q 171 422 171 420 q 171 419 170 419 q 171 417 171 412 q 167 395 160 368 q 154 341 152 314 q 150 293 150 276 q 150 258 152 235 q 153 214 155 196 q 157 177 157 157 q 157 154 159 152 q 161 151 160 149 l 160 145 q 161 143 162 142 q 162 140 164 138 q 171 111 178 87 q 186 63 197 40 q 201 32 203 28 q 205 23 207 16 q 205 14 204 16 q 203 18 201 18 q 201 12 204 9 q 207 6 211 3 q 216 -5 218 -6 q 220 -8 222 -9 q 223 -10 226 -12 q 228 -14 233 -22 q 242 -35 254 -48 q 265 -61 276 -72 q 286 -84 295 -93 q 304 -102 310 -106 q 313 -109 313 -109 q 314 -112 316 -114 q 317 -116 319 -118 q 321 -120 323 -120 q 327 -120 332 -124 q 368 -153 396 -166 q 425 -179 432 -187 q 440 -195 438 -201 q 435 -207 432 -209 q 426 -211 420 -212 q 415 -212 404 -210 q 403 -209 399 -207 q 398 -206 396 -206 q 394 -206 393 -206 l 386 -206 q 378 -204 367 -199 q 356 -194 344 -188 q 331 -182 320 -176 q 308 -171 301 -166 q 285 -158 268 -146 q 252 -134 238 -122 q 223 -110 212 -99 q 200 -88 195 -82 q 181 -69 170 -53 q 158 -37 147 -21 q 146 -18 145 -15 q 144 -12 142 -10 q 142 -9 141 -8 q 140 -7 140 -6 q 137 7 130 14 l 130 17 l 130 18 q 130 19 130 20 q 129 20 129 21 q 119 34 112 46 q 105 58 97 80 q 93 89 88 106 q 84 123 80 142 q 76 162 73 182 q 70 201 69 215 q 67 232 66 263 q 66 294 71 326 q 73 340 78 364 q 82 388 88 406 q 92 420 98 430 q 103 441 106 456 q 106 458 109 461 l 110 462 q 110 463 110 463 q 111 463 111 464 q 119 482 130 500 q 142 518 154 533 q 166 548 178 560 q 189 573 197 581 q 214 598 233 613 q 252 628 272 641 q 277 644 282 646 q 286 648 289 651 q 292 654 294 654 q 299 656 302 658 q 306 659 309 662 q 312 665 314 665 q 320 664 325 670 q 330 676 338 675 q 340 676 341 677 q 342 678 344 680 q 357 685 368 689 q 378 693 390 696 q 401 698 412 698 q 422 699 427 692 z m 253 597 q 254 597 256 599 q 253 599 253 597 z m 197 510 q 199 512 198 513 q 197 514 195 514 q 194 510 197 510 z m 110 383 q 110 384 108 386 q 108 383 110 383 z m 92 264 q 94 266 92 266 q 89 267 89 266 q 91 264 92 264 z m 114 245 q 114 247 114 248 q 115 248 113 249 q 114 247 114 246 q 113 246 114 245 z m 111 241 q 113 240 114 242 q 115 244 113 244 q 113 243 112 243 q 110 243 111 241 z m 115 189 q 116 186 116 188 q 116 191 115 189 z m 128 167 q 128 169 128 169 q 128 168 127 168 q 126 167 128 167 z m 127 109 q 127 105 129 105 q 127 108 129 108 q 131 109 131 111 q 129 111 129 110 q 129 109 127 109 z m 179 18 q 179 17 178 18 q 178 18 178 17 q 179 17 179 18 z m 171 10 q 172 8 172 10 q 172 12 171 10 z m 197 -10 q 198 -10 198 -8 q 198 -6 196 -7 q 197 -8 196 -9 q 196 -10 197 -10 z m 190 -16 q 191 -18 192 -21 q 192 -24 194 -25 q 192 -22 194 -19 q 195 -16 191 -15 q 190 -16 190 -16 z m 201 -55 q 202 -54 204 -54 q 203 -51 204 -50 q 204 -49 205 -47 q 202 -48 201 -50 q 200 -53 201 -55 z m 214 -63 q 214 -61 216 -57 q 215 -57 214 -56 q 214 -56 213 -56 q 213 -59 212 -60 q 211 -61 214 -63 z m 220 -76 q 220 -71 215 -68 q 213 -70 216 -72 q 218 -75 220 -76 z m 259 -80 q 261 -82 260 -80 q 260 -78 259 -80 z m 225 -81 q 226 -83 226 -80 q 226 -78 225 -81 z m 239 -96 q 238 -94 240 -94 q 242 -94 241 -92 q 239 -92 238 -94 q 237 -95 239 -96 z m 242 -95 q 243 -97 243 -95 q 243 -93 242 -95 z m 287 -110 q 291 -110 291 -108 q 290 -106 288 -106 q 285 -107 286 -104 q 287 -104 286 -103 q 284 -105 286 -106 q 288 -108 287 -110 z m 250 -111 q 248 -111 248 -112 q 248 -114 246 -115 q 248 -116 250 -116 q 251 -117 251 -119 q 257 -117 258 -118 q 258 -116 256 -116 q 254 -116 252 -116 q 251 -116 250 -116 q 249 -115 250 -111 z m 286 -115 q 288 -116 288 -114 q 289 -111 287 -111 q 287 -113 286 -113 q 284 -113 286 -115 z m 299 -114 q 300 -117 300 -114 q 300 -112 299 -114 z m 284 -129 q 285 -127 286 -126 q 287 -124 284 -124 q 282 -125 282 -127 q 282 -129 284 -129 z m 288 -143 q 286 -143 286 -144 q 288 -144 288 -143 z m 306 -155 q 306 -152 305 -152 q 303 -155 306 -155 z m 372 -158 q 373 -160 373 -158 q 373 -155 372 -158 z m 422 -186 q 420 -186 420 -186 q 422 -186 422 -186 z"}}}
